<svg width="429" height="429" viewBox="0 0 429 429" fill="none" xmlns="http://www.w3.org/2000/svg">
<g filter="url(#filter0_diii_27_2694)">
<circle cx="202.402" cy="187.576" r="163.78" fill="url(#paint0_radial_27_2694)"/>
</g>
<rect x="74.877" y="60.7905" width="254.211" height="254.183" rx="127.092" fill="url(#paint1_linear_27_2694)" fill-opacity="0.1"/>
<rect x="76.5946" y="62.5081" width="250.776" height="250.748" rx="125.374" stroke="url(#paint2_linear_27_2694)" stroke-opacity="0.2" stroke-width="3.43523"/>
<path d="M164.459 129.929C165.203 130.286 165.83 130.846 166.269 131.544C166.709 132.242 166.941 133.05 166.941 133.875C166.941 138.72 168.764 141.51 171.047 144.907L171.216 145.152C173.155 148.036 175.702 151.812 175.702 157.224C175.702 162.745 172.916 167.614 168.67 170.503C169.786 171.437 170.773 172.587 171.625 173.965C174.405 178.459 175.702 185.329 175.702 195.194C175.702 205.188 174.358 217.189 172.168 226.773C171.082 231.536 169.733 235.932 168.127 239.23C167.369 240.871 166.364 242.386 165.149 243.724C163.945 244.956 162.094 246.269 159.641 246.269C157.188 246.269 155.337 244.956 154.14 243.724C152.921 242.389 151.916 240.873 151.161 239.23C149.55 235.926 148.201 231.536 147.114 226.767C144.836 216.393 143.652 205.809 143.581 195.188C143.581 185.324 144.878 178.459 147.657 173.965C148.451 172.66 149.448 171.491 150.613 170.503C148.445 169.032 146.67 167.052 145.444 164.737C144.219 162.422 143.579 159.843 143.581 157.224C143.581 155.075 143.581 151.381 145.818 146.612C148.008 141.942 152.172 136.577 159.822 130.454C160.467 129.939 161.245 129.616 162.065 129.523C162.885 129.43 163.715 129.571 164.459 129.929ZM152.341 157.218V157.224C152.341 159.159 153.11 161.015 154.479 162.383C155.848 163.751 157.705 164.52 159.641 164.52C161.577 164.52 163.434 163.751 164.803 162.383C166.172 161.015 166.941 159.159 166.941 157.224C166.941 154.661 165.861 152.887 163.776 149.787L163.706 149.682C162.369 147.697 160.786 145.345 159.665 142.327C156.493 145.549 154.741 148.223 153.754 150.324C152.341 153.336 152.341 155.478 152.341 157.212V157.218ZM155.109 178.564C153.661 180.911 152.341 185.721 152.341 195.194C152.341 204.54 153.614 215.887 155.653 224.824C156.68 229.318 157.848 232.967 159.034 235.395C159.25 235.844 159.454 236.218 159.641 236.533C159.828 236.218 160.033 235.844 160.249 235.395C161.434 232.967 162.602 229.312 163.63 224.824C165.674 215.893 166.941 204.545 166.941 195.194C166.941 185.721 165.622 180.911 164.173 178.564C163.736 177.774 163.076 177.131 162.275 176.714C161.446 176.353 160.545 176.185 159.641 176.223C158.473 176.223 157.638 176.404 157.007 176.714C156.206 177.131 155.546 177.774 155.109 178.564ZM190.302 204.901C187.208 204.383 184.198 203.448 181.355 202.123C181.526 198.812 181.574 195.497 181.501 192.182C184.135 193.951 187.107 195.253 190.302 195.976V179.113C190.302 176.791 191.225 174.564 192.868 172.922C194.51 171.28 196.739 170.357 199.062 170.357H222.422C222.422 165.458 221.051 160.657 218.464 156.495C215.877 152.334 212.177 148.979 207.783 146.809C203.388 144.639 198.474 143.74 193.595 144.215C188.717 144.69 184.068 146.519 180.175 149.495C179.007 146.267 177.343 143.798 176.186 142.082L175.953 141.732C181.2 138.035 187.362 135.85 193.767 135.415C200.172 134.98 206.574 136.312 212.273 139.266C217.972 142.22 222.749 146.682 226.084 152.164C229.419 157.647 231.182 163.941 231.182 170.357H251.623C253.946 170.357 256.174 171.28 257.817 172.922C259.46 174.564 260.383 176.791 260.383 179.113V231.647C260.383 233.97 259.46 236.197 257.817 237.839C256.174 239.481 253.946 240.403 251.623 240.403H199.062C196.739 240.403 194.51 239.481 192.868 237.839C191.225 236.197 190.302 233.97 190.302 231.647V204.896V204.901ZM199.062 205.269V231.653H251.623V179.119H230.073C228.253 186.153 224.292 192.447 218.736 197.132C213.18 201.817 206.305 204.661 199.062 205.269ZM220.927 179.119H199.062V196.473C203.969 195.923 208.622 194.004 212.488 190.935C216.355 187.866 219.28 183.771 220.927 179.119Z" fill="white"/>
<defs>
<filter id="filter0_diii_27_2694" x="0.147534" y="0.119263" width="428.186" height="428.186" filterUnits="userSpaceOnUse" color-interpolation-filters="sRGB">
<feFlood flood-opacity="0" result="BackgroundImageFix"/>
<feColorMatrix in="SourceAlpha" type="matrix" values="0 0 0 0 0 0 0 0 0 0 0 0 0 0 0 0 0 0 127 0" result="hardAlpha"/>
<feOffset dx="11.8383" dy="26.6362"/>
<feGaussianBlur stdDeviation="25.1564"/>
<feColorMatrix type="matrix" values="0 0 0 0 1 0 0 0 0 0.508167 0 0 0 0 0.0541667 0 0 0 0.4 0"/>
<feBlend mode="normal" in2="BackgroundImageFix" result="effect1_dropShadow_27_2694"/>
<feBlend mode="normal" in="SourceGraphic" in2="effect1_dropShadow_27_2694" result="shape"/>
<feColorMatrix in="SourceAlpha" type="matrix" values="0 0 0 0 0 0 0 0 0 0 0 0 0 0 0 0 0 0 127 0" result="hardAlpha"/>
<feOffset dy="-8.87874"/>
<feGaussianBlur stdDeviation="5.91916"/>
<feComposite in2="hardAlpha" operator="arithmetic" k2="-1" k3="1"/>
<feColorMatrix type="matrix" values="0 0 0 0 1 0 0 0 0 1 0 0 0 0 1 0 0 0 0.3 0"/>
<feBlend mode="soft-light" in2="shape" result="effect2_innerShadow_27_2694"/>
<feColorMatrix in="SourceAlpha" type="matrix" values="0 0 0 0 0 0 0 0 0 0 0 0 0 0 0 0 0 0 127 0" result="hardAlpha"/>
<feOffset dx="5.91916" dy="-2.95958"/>
<feGaussianBlur stdDeviation="10.3585"/>
<feComposite in2="hardAlpha" operator="arithmetic" k2="-1" k3="1"/>
<feColorMatrix type="matrix" values="0 0 0 0 0.875333 0 0 0 0 0.816667 0 0 0 0 1 0 0 0 1 0"/>
<feBlend mode="overlay" in2="effect2_innerShadow_27_2694" result="effect3_innerShadow_27_2694"/>
<feColorMatrix in="SourceAlpha" type="matrix" values="0 0 0 0 0 0 0 0 0 0 0 0 0 0 0 0 0 0 127 0" result="hardAlpha"/>
<feOffset dx="-11.8383" dy="-2.95958"/>
<feGaussianBlur stdDeviation="7.39895"/>
<feComposite in2="hardAlpha" operator="arithmetic" k2="-1" k3="1"/>
<feColorMatrix type="matrix" values="0 0 0 0 1 0 0 0 0 1 0 0 0 0 1 0 0 0 0.5 0"/>
<feBlend mode="overlay" in2="effect3_innerShadow_27_2694" result="effect4_innerShadow_27_2694"/>
</filter>
<radialGradient id="paint0_radial_27_2694" cx="0" cy="0" r="1" gradientUnits="userSpaceOnUse" gradientTransform="translate(154.882 23.7959) rotate(66.5508) scale(331.964)">
<stop stop-color="#081F27"/>
<stop offset="0.76607" stop-color="#152C34" stop-opacity="0.01"/>
<stop offset="0.9999" stop-color="#CF7130"/>
</radialGradient>
<linearGradient id="paint1_linear_27_2694" x1="201.982" y1="-107.52" x2="201.982" y2="716.858" gradientUnits="userSpaceOnUse">
<stop stop-color="#00B5FF"/>
<stop offset="0.467671" stop-color="#00B5FF"/>
</linearGradient>
<linearGradient id="paint2_linear_27_2694" x1="201.982" y1="-380.595" x2="201.982" y2="545.113" gradientUnits="userSpaceOnUse">
<stop stop-color="#00B5FF"/>
<stop offset="0.716291" stop-color="#00CDC1"/>
</linearGradient>
</defs>
</svg>
