<svg width="492" height="123" viewBox="0 0 492 123" fill="none" xmlns="http://www.w3.org/2000/svg">
<rect y="3.51502" width="491" height="119.402" rx="19.5284" transform="rotate(-0.410186 0 3.51502)" fill="#DCBD38"/>
<rect y="3.51502" width="491" height="119.402" rx="19.5284" transform="rotate(-0.410186 0 3.51502)" fill="url(#paint0_linear_153_393)" fill-opacity="0.39"/>
<g filter="url(#filter0_n_153_393)">
<rect x="10.115" y="13.4862" width="470.356" height="99.3159" rx="19.5284" transform="rotate(-0.410186 10.115 13.4862)" fill="#FBD840"/>
<rect x="12.0818" y="15.425" width="466.45" height="95.4102" rx="17.5756" transform="rotate(-0.410186 12.0818 15.425)" stroke="black" stroke-width="3.90568"/>
</g>
<path d="M47.5464 80.5255L47.3916 42.5399L63.0829 42.476C65.9269 42.4644 68.3834 42.9676 70.4526 43.9854C72.5341 44.9909 74.1413 46.4435 75.2743 48.3431C76.4072 50.2304 76.9789 52.4723 76.9895 55.069C77.0003 57.7028 76.4344 59.9432 75.292 61.7903C74.1495 63.625 72.523 65.0289 70.4125 66.002C68.3019 66.9627 65.7999 67.449 62.9065 67.4608L52.9835 67.5012L52.954 60.2676L61.1706 60.2342C62.5555 60.2285 63.7109 60.0445 64.6369 59.6821C65.5751 59.3074 66.2838 58.748 66.763 58.0042C67.2422 57.2479 67.4794 56.2825 67.4746 55.1078C67.4698 53.9331 67.2247 52.9634 66.7394 52.1988C66.254 51.4217 65.5406 50.8435 64.5993 50.464C63.6579 50.0721 62.501 49.879 61.1285 49.8846L56.6028 49.903L56.7275 80.4881L47.5464 80.5255ZM68.8611 63.0778L78.3911 80.3998L68.3754 80.4406L59.0308 63.1178L68.8611 63.0778ZM82.1284 80.3846L81.9737 42.399L108.46 42.2911L108.49 49.7472L91.1851 49.8177L91.2169 57.6078L107.168 57.5428L107.198 65.0174L91.2473 65.0824L91.2791 72.891L108.584 72.8205L108.614 80.2766L82.1284 80.3846ZM139.188 54.5744C138.975 53.7963 138.663 53.1113 138.252 52.5194C137.842 51.9152 137.339 51.4041 136.744 50.9861C136.148 50.5681 135.467 50.2556 134.7 50.0485C133.932 49.829 133.091 49.7212 132.176 49.7249C130.333 49.7324 128.74 50.1841 127.396 51.0798C126.064 51.9756 125.037 53.2781 124.314 54.9875C123.592 56.6844 123.235 58.7447 123.245 61.1683C123.255 63.6042 123.616 65.6801 124.328 67.396C125.04 69.1118 126.065 70.4184 127.404 71.3156C128.743 72.2128 130.365 72.6575 132.269 72.6498C133.951 72.6429 135.372 72.3651 136.532 71.8163C137.704 71.2551 138.591 70.4663 139.193 69.4499C139.795 68.4335 140.093 67.239 140.087 65.8665L141.794 66.0635L132.558 66.1012L132.53 59.4055L148.908 59.3387L148.928 64.3652C148.942 67.7656 148.231 70.6805 146.794 73.1099C145.37 75.5393 143.399 77.4083 140.882 78.717C138.377 80.0255 135.492 80.6864 132.228 80.6997C128.605 80.7145 125.418 79.9423 122.666 78.3831C119.915 76.8239 117.766 74.5946 116.221 71.695C114.676 68.7831 113.895 65.324 113.879 61.3177C113.866 58.2017 114.319 55.4362 115.236 53.0213C116.154 50.5939 117.438 48.5361 119.088 46.8477C120.75 45.1592 122.674 43.8777 124.859 43.0033C127.056 42.1287 129.423 41.6863 131.957 41.676C134.158 41.667 136.206 41.974 138.101 42.5969C140.007 43.2198 141.693 44.1032 143.156 45.2472C144.632 46.3912 145.831 47.7526 146.753 49.3316C147.674 50.9106 148.25 52.6456 148.48 54.5366L139.188 54.5744ZM163.43 42.0671L163.585 80.0526L154.404 80.09L154.249 42.1045L163.43 42.0671ZM189.773 53.3482C189.643 51.9885 189.089 50.9336 188.109 50.1833C187.141 49.4206 185.761 49.0429 183.968 49.0502C182.781 49.055 181.792 49.2136 181.002 49.5259C180.212 49.8383 179.62 50.2673 179.227 50.813C178.833 51.3463 178.632 51.9592 178.622 52.6517C178.6 53.2206 178.713 53.7209 178.962 54.1527C179.224 54.5844 179.596 54.9662 180.08 55.2981C180.576 55.6176 181.17 55.8996 181.864 56.144C182.557 56.3885 183.337 56.6017 184.204 56.7837L187.471 57.5123C189.352 57.9127 191.011 58.45 192.448 59.1242C193.898 59.7984 195.113 60.6034 196.094 61.5392C197.087 62.4749 197.839 63.5538 198.351 64.7758C198.863 65.9979 199.128 67.3694 199.147 68.8902C199.144 71.2891 198.547 73.3504 197.354 75.074C196.162 76.7976 194.442 78.1216 192.196 79.0457C189.961 79.9699 187.261 80.4384 184.096 80.4513C180.918 80.4642 178.146 79.9995 175.781 79.057C173.415 78.1145 171.573 76.6753 170.255 74.7393C168.936 72.8033 168.252 70.3516 168.203 67.3841L176.994 67.3483C177.074 68.5721 177.405 69.5909 177.99 70.4046C178.574 71.2184 179.374 71.8334 180.39 72.2497C181.418 72.6659 182.606 72.8713 183.954 72.8658C185.19 72.8607 186.241 72.6895 187.105 72.3521C187.981 72.0147 188.653 71.5483 189.121 70.9528C189.588 70.3574 189.827 69.6763 189.836 68.9096C189.821 68.1925 189.596 67.5813 189.161 67.0761C188.726 66.5586 188.056 66.1162 187.152 65.7489C186.26 65.3692 185.121 65.0214 183.735 64.7056L179.762 63.7944C176.47 63.0535 173.874 61.8461 171.976 60.1721C170.077 58.4858 169.128 56.2021 169.129 53.321C169.107 50.9717 169.729 48.9103 170.995 47.1369C172.262 45.3635 174.018 43.9777 176.264 42.9793C178.511 41.9809 181.075 41.4758 183.956 41.4641C186.899 41.4521 189.454 41.9425 191.622 42.9352C193.802 43.9156 195.496 45.2998 196.702 47.0878C197.909 48.8759 198.53 50.9507 198.564 53.3124L189.773 53.3482ZM202.462 49.3643L202.431 41.9082L234.537 41.7773L234.568 49.2335L223.049 49.2804L223.174 79.8098L214.123 79.8467L213.998 49.3173L202.462 49.3643ZM239.176 79.7446L239.021 41.7591L265.507 41.6511L265.537 49.1073L248.233 49.1778L248.264 56.9678L264.215 56.9028L264.246 64.3775L248.295 64.4425L248.327 72.251L265.631 72.1805L265.662 79.6367L239.176 79.7446ZM271.412 79.6132L271.257 41.6277L286.948 41.5638C289.792 41.5522 292.249 42.0553 294.318 43.0732C296.399 44.0787 298.006 45.5312 299.139 47.4309C300.272 49.3182 300.844 51.5601 300.855 54.1568C300.865 56.7906 300.3 59.031 299.157 60.8781C298.015 62.7128 296.388 64.1167 294.278 65.0898C292.167 66.0505 289.665 66.5368 286.772 66.5486L276.849 66.589L276.819 59.3554L285.036 59.3219C286.421 59.3163 287.576 59.1323 288.502 58.7699C289.44 58.3951 290.149 57.8358 290.628 57.0919C291.107 56.3357 291.345 55.3702 291.34 54.1956C291.335 53.0209 291.09 52.0512 290.605 51.2865C290.119 50.5095 289.406 49.9312 288.465 49.5518C287.523 49.1599 286.366 48.9668 284.994 48.9724L280.468 48.9908L280.593 79.5758L271.412 79.6132ZM292.726 62.1655L302.256 79.4876L292.241 79.5284L282.896 62.2056L292.726 62.1655ZM349.389 41.3093L349.543 79.2949L341.753 79.3266L326.548 57.4649L326.307 57.4659L326.396 79.3892L317.215 79.4266L317.06 41.4411L324.961 41.4089L340 63.2342L340.315 63.2329L340.226 41.3467L349.389 41.3093ZM391.092 60.1325C391.109 64.3119 390.319 67.8578 388.724 70.7701C387.128 73.6824 384.961 75.8985 382.222 77.4182C379.495 78.9379 376.432 79.7046 373.032 79.7185C369.619 79.7324 366.543 78.9845 363.804 77.4747C361.065 75.9649 358.886 73.7666 357.267 70.8797C355.66 67.9804 354.848 64.4473 354.831 60.2802C354.814 56.1008 355.597 52.555 357.18 49.6427C358.776 46.7304 360.937 44.5143 363.664 42.9947C366.39 41.475 369.46 40.7082 372.873 40.6943C376.273 40.6804 379.343 41.4222 382.081 42.9196C384.833 44.417 387.018 46.6153 388.637 49.5145C390.256 52.4138 391.075 55.9531 391.092 60.1325ZM381.707 60.1707C381.696 57.6977 381.336 55.6094 380.624 53.9059C379.924 52.2024 378.918 50.9143 377.603 50.0417C376.301 49.1691 374.735 48.7365 372.905 48.744C371.088 48.7514 369.525 49.1967 368.218 50.08C366.911 50.9632 365.909 52.2595 365.211 53.9687C364.525 55.6779 364.187 57.7691 364.198 60.2421C364.208 62.7151 364.562 64.8034 365.262 66.5069C365.974 68.2104 366.987 69.4985 368.301 70.3711C369.615 71.2437 371.181 71.6762 372.999 71.6688C374.829 71.6614 376.391 71.216 377.686 70.3328C378.993 69.4496 379.989 68.1533 380.675 66.4441C381.373 64.7349 381.717 62.6437 381.707 60.1707ZM403.749 79.074L392.54 41.1335L402.685 41.0922L408.518 65.9597L408.833 65.9584L415.279 41.0408L423.551 41.0071L430.2 65.927L430.516 65.9257L436.164 40.9557L446.291 40.9145L435.41 78.945L426.563 78.981L419.625 55.9728L419.328 55.974L412.578 79.038L403.749 79.074Z" fill="black"/>
<defs>
<filter id="filter0_n_153_393" x="10.2544" y="10.2582" width="470.776" height="102.402" filterUnits="userSpaceOnUse" color-interpolation-filters="sRGB">
<feFlood flood-opacity="0" result="BackgroundImageFix"/>
<feBlend mode="normal" in="SourceGraphic" in2="BackgroundImageFix" result="shape"/>
<feTurbulence type="fractalNoise" baseFrequency="0.9997594952583313 0.9997594952583313" stitchTiles="stitch" numOctaves="3" result="noise" seed="4474" />
<feColorMatrix in="noise" type="luminanceToAlpha" result="alphaNoise" />
<feComponentTransfer in="alphaNoise" result="coloredNoise1">
<feFuncA type="discrete" tableValues="1 1 1 1 1 1 1 1 1 1 1 1 1 1 1 1 1 1 1 1 1 1 1 1 1 1 1 1 1 1 1 1 1 1 1 1 1 1 1 1 1 1 1 1 1 1 1 1 1 1 1 0 0 0 0 0 0 0 0 0 0 0 0 0 0 0 0 0 0 0 0 0 0 0 0 0 0 0 0 0 0 0 0 0 0 0 0 0 0 0 0 0 0 0 0 0 0 0 0 0 "/>
</feComponentTransfer>
<feComposite operator="in" in2="shape" in="coloredNoise1" result="noise1Clipped" />
<feFlood flood-color="rgba(0, 0, 0, 0.25)" result="color1Flood" />
<feComposite operator="in" in2="noise1Clipped" in="color1Flood" result="color1" />
<feMerge result="effect1_noise_153_393">
<feMergeNode in="shape" />
<feMergeNode in="color1" />
</feMerge>
</filter>
<linearGradient id="paint0_linear_153_393" x1="245.059" y1="3.51503" x2="245.059" y2="122.544" gradientUnits="userSpaceOnUse">
<stop stop-color="#B7B7B7"/>
<stop offset="1"/>
</linearGradient>
</defs>
</svg>
