<svg width="226" height="57" viewBox="0 0 226 57" fill="none" xmlns="http://www.w3.org/2000/svg">
<rect y="1.6117" width="225.128" height="54.747" rx="8.95395" transform="rotate(-0.410186 0 1.6117)" fill="#DCBD38"/>
<rect y="1.6117" width="225.128" height="54.747" rx="8.95395" transform="rotate(-0.410186 0 1.6117)" fill="url(#paint0_linear_153_699)" fill-opacity="0.39"/>
<g filter="url(#filter0_n_153_699)">
<rect x="4.63794" y="6.18335" width="215.662" height="45.5373" rx="8.95395" transform="rotate(-0.410186 4.63794 6.18335)" fill="#FBD840"/>
<rect x="5.53972" y="7.07232" width="213.872" height="43.7465" rx="8.05856" transform="rotate(-0.410186 5.53972 7.07232)" stroke="black" stroke-width="1.79079"/>
</g>
<path d="M21.8008 36.9966L21.7298 19.5799L28.9244 19.5506C30.2284 19.5453 31.3548 19.776 32.3035 20.2427C33.2579 20.7037 33.9948 21.3697 34.5143 22.2407C35.0337 23.1061 35.2959 24.134 35.3007 25.3246C35.3057 26.5322 35.0462 27.5595 34.5224 28.4064C33.9985 29.2476 33.2528 29.8913 32.2851 30.3375C31.3174 30.778 30.1702 31.0009 28.8435 31.0064L24.2938 31.0249L24.2802 27.7082L28.0476 27.6929C28.6826 27.6903 29.2124 27.6059 29.6369 27.4398C30.0671 27.2679 30.3921 27.0115 30.6118 26.6704C30.8315 26.3237 30.9403 25.881 30.9381 25.3424C30.9359 24.8038 30.8235 24.3592 30.601 24.0086C30.3784 23.6523 30.0513 23.3872 29.6197 23.2132C29.1881 23.0335 28.6576 22.9449 28.0283 22.9475L25.9533 22.956L26.0104 36.9795L21.8008 36.9966ZM31.5738 28.9967L35.9434 36.939L31.3511 36.9577L27.0665 29.0151L31.5738 28.9967ZM37.657 36.932L37.586 19.5153L49.7301 19.4658L49.744 22.8845L41.8096 22.9169L41.8241 26.4887L49.1378 26.4588L49.1517 29.8861L41.8381 29.9159L41.8527 33.4962L49.7871 33.4638L49.8011 36.8825L37.657 36.932ZM63.8193 25.0979C63.7215 24.7411 63.5785 24.427 63.3903 24.1556C63.202 23.8786 62.9715 23.6442 62.6985 23.4526C62.4256 23.2609 62.1132 23.1176 61.7613 23.0227C61.4094 22.922 61.0236 22.8726 60.6041 22.8743C59.7593 22.8777 59.0288 23.0848 58.4125 23.4955C57.8019 23.9062 57.3309 24.5035 56.9996 25.2872C56.6682 26.0653 56.5048 27.01 56.5093 28.1212C56.5139 29.2381 56.6794 30.1899 57.0057 30.9766C57.3321 31.7634 57.8023 32.3624 58.4163 32.7738C59.0303 33.1852 59.7738 33.3891 60.6469 33.3856C61.418 33.3824 62.0695 33.255 62.6014 33.0034C63.1389 32.7461 63.5457 32.3844 63.8216 31.9184C64.0975 31.4523 64.2342 30.9047 64.2316 30.2754L65.0144 30.3657L60.7793 30.383L60.7668 27.3129L68.276 27.2823L68.2854 29.587C68.2918 31.1461 67.9655 32.4826 67.3067 33.5965C66.6536 34.7104 65.75 35.5674 64.5958 36.1674C63.4473 36.7674 62.1247 37.0704 60.628 37.0765C58.9668 37.0833 57.5054 36.7292 56.2439 36.0144C54.9823 35.2995 53.9973 34.2773 53.2888 32.9478C52.5804 31.6127 52.2224 30.0266 52.2149 28.1897C52.2091 26.761 52.4165 25.493 52.8372 24.3857C53.2579 23.2728 53.8465 22.3292 54.6031 21.5551C55.3654 20.7809 56.2474 20.1933 57.2493 19.7924C58.2569 19.3914 59.3418 19.1885 60.504 19.1838C61.5132 19.1797 62.4521 19.3204 63.3207 19.606C64.195 19.8916 64.9677 20.2967 65.6388 20.8212C66.3157 21.3457 66.8653 21.97 67.2878 22.694C67.7103 23.418 67.9744 24.2135 68.0799 25.0805L63.8193 25.0979ZM74.9346 19.3631L75.0056 36.7798L70.7959 36.797L70.725 19.3803L74.9346 19.3631ZM87.0128 24.5356C86.9535 23.9122 86.6993 23.4285 86.25 23.0845C85.8063 22.7347 85.1734 22.5616 84.3514 22.5649C83.8071 22.5671 83.3538 22.6399 82.9916 22.7831C82.6293 22.9263 82.3579 23.123 82.1775 23.3732C81.9971 23.6177 81.9047 23.8987 81.9003 24.2163C81.89 24.4771 81.942 24.7065 82.0562 24.9045C82.1761 25.1024 82.3469 25.2775 82.5686 25.4297C82.796 25.5761 83.0687 25.7054 83.3866 25.8175C83.7046 25.9296 84.0622 26.0274 84.4594 26.1108L85.9575 26.4449C86.82 26.6285 87.5808 26.8748 88.2397 27.184C88.9043 27.4931 89.4614 27.8622 89.9111 28.2912C90.3664 28.7203 90.7114 29.215 90.9461 29.7753C91.1809 30.3356 91.3025 30.9645 91.311 31.6618C91.3098 32.7617 91.0359 33.7068 90.4891 34.4971C89.9424 35.2874 89.154 35.8944 88.1238 36.3182C87.0994 36.7419 85.8614 36.9567 84.41 36.9626C82.953 36.9686 81.6821 36.7555 80.5975 36.3233C79.5128 35.8912 78.6682 35.2313 78.0636 34.3436C77.459 33.456 77.1454 32.3318 77.1229 30.9712L81.1539 30.9548C81.1902 31.5159 81.3423 31.983 81.6103 32.3561C81.8783 32.7292 82.2452 33.0112 82.7108 33.2021C83.1822 33.3929 83.7269 33.4871 84.3448 33.4846C84.9118 33.4823 85.3934 33.4038 85.7896 33.2491C86.1915 33.0944 86.4997 32.8805 86.714 32.6075C86.9283 32.3345 87.0376 32.0222 87.0418 31.6707C87.0348 31.3419 86.9316 31.0616 86.7323 30.83C86.5329 30.5927 86.2259 30.3898 85.8113 30.2214C85.4024 30.0473 84.8801 29.8879 84.2445 29.7431L82.4229 29.3253C80.9134 28.9856 79.7234 28.432 78.8528 27.6645C77.9822 26.8913 77.547 25.8442 77.5473 24.5231C77.5373 23.446 77.8226 22.5008 78.4032 21.6877C78.9839 20.8746 79.7892 20.2391 80.8192 19.7814C81.8492 19.3236 83.0247 19.092 84.3457 19.0866C85.695 19.0811 86.8667 19.306 87.8608 19.7612C88.8604 20.2107 89.6369 20.8453 90.1902 21.6652C90.7435 22.485 91.028 23.4363 91.0438 24.5192L87.0128 24.5356ZM92.8308 22.709L92.8169 19.2902L107.538 19.2303L107.552 22.649L102.271 22.6705L102.328 36.6685L98.1775 36.6854L98.1205 22.6874L92.8308 22.709ZM109.665 36.6386L109.594 19.2219L121.738 19.1724L121.752 22.5911L113.817 22.6234L113.832 26.1952L121.145 26.1654L121.159 29.5926L113.846 29.6224L113.86 33.2027L121.795 33.1704L121.809 36.5891L109.665 36.6386ZM124.445 36.5784L124.374 19.1617L131.569 19.1323C132.873 19.127 133.999 19.3577 134.948 19.8244C135.902 20.2855 136.639 20.9515 137.159 21.8225C137.678 22.6878 137.94 23.7158 137.945 24.9064C137.95 26.114 137.69 27.1412 137.167 27.9881C136.643 28.8294 135.897 29.4731 134.929 29.9192C133.962 30.3597 132.814 30.5827 131.488 30.5881L126.938 30.6066L126.925 27.29L130.692 27.2746C131.327 27.272 131.857 27.1877 132.281 27.0215C132.711 26.8497 133.036 26.5932 133.256 26.2521C133.476 25.9054 133.585 25.4627 133.582 24.9241C133.58 24.3855 133.468 23.9409 133.245 23.5903C133.023 23.234 132.696 22.9689 132.264 22.7949C131.832 22.6152 131.302 22.5267 130.673 22.5292L128.598 22.5377L128.655 36.5612L124.445 36.5784ZM134.218 28.5784L138.588 36.5207L133.995 36.5395L129.711 28.5968L134.218 28.5784ZM160.198 19.0157L160.269 36.4324L156.697 36.4469L149.726 26.4232L149.615 26.4236L149.656 36.4756L145.446 36.4928L145.375 19.0761L148.998 19.0613L155.893 29.0684L156.038 29.0678L155.997 19.0328L160.198 19.0157ZM179.319 27.6463C179.327 29.5626 178.965 31.1884 178.234 32.5237C177.502 33.859 176.508 34.8751 175.253 35.5719C174.002 36.2687 172.598 36.6203 171.039 36.6266C169.474 36.633 168.064 36.2901 166.808 35.5978C165.552 34.9056 164.553 33.8976 163.81 32.574C163.074 31.2446 162.701 29.6246 162.694 27.714C162.686 25.7977 163.045 24.1719 163.771 22.8366C164.502 21.5013 165.493 20.4852 166.743 19.7884C167.994 19.0916 169.401 18.7401 170.966 18.7337C172.525 18.7273 173.932 19.0674 175.188 19.754C176.45 20.4406 177.452 21.4485 178.194 22.7778C178.936 24.1072 179.312 25.73 179.319 27.6463ZM175.016 27.6638C175.012 26.5299 174.846 25.5724 174.52 24.7913C174.199 24.0102 173.737 23.4196 173.135 23.0196C172.538 22.6195 171.82 22.4211 170.981 22.4245C170.147 22.4279 169.431 22.6321 168.832 23.0371C168.232 23.4421 167.773 24.0364 167.453 24.8201C167.138 25.6038 166.984 26.5626 166.988 27.6965C166.993 28.8304 167.156 29.7879 167.476 30.569C167.803 31.3501 168.267 31.9407 168.87 32.3408C169.472 32.7408 170.19 32.9392 171.024 32.9358C171.863 32.9324 172.579 32.7282 173.173 32.3232C173.772 31.9182 174.229 31.3239 174.543 30.5402C174.863 29.7565 175.021 28.7977 175.016 27.6638ZM185.123 36.3311L179.983 18.9351L184.635 18.9161L187.31 30.3181L187.454 30.3175L190.41 18.8926L194.203 18.8771L197.251 30.3031L197.396 30.3025L199.985 18.8535L204.629 18.8346L199.64 36.272L195.583 36.2885L192.402 25.739L192.266 25.7395L189.171 36.3146L185.123 36.3311Z" fill="black"/>
<path d="M4.85292 14.0382C4.82264 9.80924 8.22635 6.35644 12.4553 6.32617L211.543 4.90086C215.772 4.87058 219.225 8.27429 219.255 12.5032L4.85292 14.0382Z" fill="black"/>
<path d="M21.0374 42.548L29.071 42.5153L19.6562 51.4307L12.0847 51.4616L21.0374 42.548Z" fill="black"/>
<path d="M10.0421 42.6267L18.0757 42.5939L10.9795 50.6451L6.55394 46.8283L10.0421 42.6267Z" fill="black"/>
<path d="M32.3987 42.4674L40.4323 42.4347L31.0176 51.3501L23.4461 51.3809L32.3987 42.4674Z" fill="black"/>
<path d="M43.7603 42.3859L51.7939 42.3532L42.3791 51.2686L34.8076 51.2995L43.7603 42.3859Z" fill="black"/>
<path d="M55.1219 42.3045L63.1555 42.2717L53.7407 51.1871L46.1692 51.218L55.1219 42.3045Z" fill="black"/>
<path d="M66.4835 42.223L74.5171 42.1902L65.1023 51.1056L57.5308 51.1365L66.4835 42.223Z" fill="black"/>
<path d="M77.845 42.1415L85.8786 42.1088L76.4639 51.0242L68.8924 51.055L77.845 42.1415Z" fill="black"/>
<path d="M89.2061 42.0609L97.2397 42.0281L87.8249 50.9435L80.2534 50.9744L89.2061 42.0609Z" fill="black"/>
<path d="M100.568 41.9794L108.601 41.9466L99.1865 50.8621L91.615 50.8929L100.568 41.9794Z" fill="black"/>
<path d="M111.929 41.8979L119.963 41.8652L110.548 50.7806L102.977 50.8114L111.929 41.8979Z" fill="black"/>
<path d="M123.291 41.8164L131.324 41.7837L121.909 50.6991L114.338 50.7299L123.291 41.8164Z" fill="black"/>
<path d="M134.652 41.7349L142.686 41.7022L133.271 50.6176L125.699 50.6485L134.652 41.7349Z" fill="black"/>
<path d="M146.014 41.6534L154.047 41.6207L144.633 50.5361L137.061 50.5669L146.014 41.6534Z" fill="black"/>
<path d="M157.375 41.5728L165.409 41.5401L155.994 50.4555L148.423 50.4864L157.375 41.5728Z" fill="black"/>
<path d="M168.736 41.4913L176.77 41.4586L167.355 50.374L159.784 50.4049L168.736 41.4913Z" fill="black"/>
<path d="M180.098 41.4099L188.132 41.3771L178.717 50.2925L171.145 50.3234L180.098 41.4099Z" fill="black"/>
<path d="M191.46 41.3283L199.493 41.2956L190.078 50.211L182.507 50.2418L191.46 41.3283Z" fill="black"/>
<path d="M202.821 41.2468L210.854 41.2141L201.439 50.1295L193.868 50.1604L202.821 41.2468Z" fill="black"/>
<path d="M214.181 41.1663L220.376 41.1211L216.572 47.3406L210.904 49.2137L205.228 50.0798L214.181 41.1663Z" fill="black"/>
<defs>
<filter id="filter0_n_153_699" x="4.7019" y="4.70331" width="215.855" height="46.9523" filterUnits="userSpaceOnUse" color-interpolation-filters="sRGB">
<feFlood flood-opacity="0" result="BackgroundImageFix"/>
<feBlend mode="normal" in="SourceGraphic" in2="BackgroundImageFix" result="shape"/>
<feTurbulence type="fractalNoise" baseFrequency="2.1804568767547607 2.1804568767547607" stitchTiles="stitch" numOctaves="3" result="noise" seed="4474" />
<feColorMatrix in="noise" type="luminanceToAlpha" result="alphaNoise" />
<feComponentTransfer in="alphaNoise" result="coloredNoise1">
<feFuncA type="discrete" tableValues="1 1 1 1 1 1 1 1 1 1 1 1 1 1 1 1 1 1 1 1 1 1 1 1 1 1 1 1 1 1 1 1 1 1 1 1 1 1 1 1 1 1 1 1 1 1 1 1 1 1 1 0 0 0 0 0 0 0 0 0 0 0 0 0 0 0 0 0 0 0 0 0 0 0 0 0 0 0 0 0 0 0 0 0 0 0 0 0 0 0 0 0 0 0 0 0 0 0 0 0 "/>
</feComponentTransfer>
<feComposite operator="in" in2="shape" in="coloredNoise1" result="noise1Clipped" />
<feFlood flood-color="rgba(0, 0, 0, 0.25)" result="color1Flood" />
<feComposite operator="in" in2="noise1Clipped" in="color1Flood" result="color1" />
<feMerge result="effect1_noise_153_699">
<feMergeNode in="shape" />
<feMergeNode in="color1" />
</feMerge>
</filter>
<linearGradient id="paint0_linear_153_699" x1="112.362" y1="1.6117" x2="112.362" y2="56.1874" gradientUnits="userSpaceOnUse">
<stop stop-color="#B7B7B7"/>
<stop offset="1"/>
</linearGradient>
</defs>
</svg>
