<svg width="582" height="1129" viewBox="0 0 582 1129" fill="none" xmlns="http://www.w3.org/2000/svg">
<path d="M267.756 749.592C268.961 745.685 279.828 411.916 282.259 17.4242C282.283 13.4836 286.272 10.7752 289.928 12.2478L428.529 68.0856C431.792 69.4001 435.456 69.2859 438.631 67.7707L574.443 2.95023C577.268 1.60197 580.519 3.71768 580.43 6.84657L555.255 896.804C554.708 916.155 553.147 936.453 541.436 951.869C499.118 1007.57 385.578 1008.87 331.785 1011.17C278.731 1013.45 230.891 1011.17 188.448 1011.17C191.116 1018.39 188.448 1038.05 188.448 1053.13C188.448 1067.94 178.504 1066.9 175.351 1064.28L5.93124 890.72C2.6691 887.378 2.77158 882.014 6.15897 878.799L173.058 720.405C175.792 717.81 179.775 717.022 183.291 718.38C185.985 719.42 187.816 721.948 187.964 724.832L189.448 753.808C189.706 758.848 193.755 762.859 198.8 762.987C212.173 763.325 232.884 763.531 246.656 762.704C264.118 761.655 267.999 753.525 267.756 749.592Z" fill="#D9D9D9" stroke="black" stroke-width="1.3954"/>
<path d="M289.49 758.028C291.709 680.342 298.161 336.819 300.096 45.9269C300.121 42.1277 303.976 39.5927 307.493 41.0299L428.507 90.4841C431.672 91.7776 435.237 91.6686 438.317 90.184L552.858 34.9813C555.57 33.674 558.706 35.6989 558.629 38.7091L536.98 893.611C536.49 912.99 534.786 933.492 522.169 948.21C485.739 990.708 402.349 992.241 357.251 997.358C322.744 1001.27 246.227 998.684 199.259 997.695C187.564 997.449 174.83 1009.95 174.83 1021.65C174.83 1030.15 176.197 1041.75 176.094 1047.38C176.045 1050.09 173.907 1049.53 172.072 1047.53L28.5163 891.446C25.5925 888.267 25.6985 883.347 28.7565 880.297L173.423 736.003C175.827 733.605 179.93 735.308 179.93 738.703V764.761C179.93 769.948 184.116 774.362 189.282 774.829C203.57 776.12 229.071 778.756 241.131 778.092C249.603 777.626 262.746 777.466 273.097 776.917C283.886 776.344 289.181 768.829 289.49 758.028Z" fill="#AC1210"/>
<g opacity="0.5" filter="url(#filter0_i_153_301)">
<path d="M289.088 817.126C291.247 738.441 297.808 365.617 299.757 50.4744C299.781 46.616 303.746 44.0801 307.28 45.6295L427.861 98.5024C431.199 99.966 435.02 99.8437 438.257 98.1696L552.423 39.133C555.139 37.7284 558.368 39.7462 558.296 42.8033L536.36 972.173C536.055 985.104 534.775 998.364 528.254 1009.53C496.287 1064.3 404.91 1065.78 356.911 1071.63C323.059 1075.75 240.553 1073.15 190.357 1072.05C176.691 1071.75 173.863 1082.86 174.464 1096.52C174.481 1096.9 174.489 1097.29 174.489 1097.69C174.489 1106.93 175.891 1119.58 175.749 1125.52C175.684 1128.24 173.598 1127.64 171.827 1125.58L27.6321 957.353C24.9625 954.239 25.0616 949.615 27.8622 946.618L172.857 791.444C175.267 788.865 179.59 790.571 179.59 794.1V822.745C179.59 827.932 183.775 832.361 188.938 832.862C203.225 834.247 228.73 837.075 240.791 836.363C249.581 835.845 263.398 835.679 273.908 835.034C283.994 834.415 288.811 827.227 289.088 817.126Z" fill="url(#paint0_linear_153_301)" fill-opacity="0.4"/>
</g>
<g filter="url(#filter1_d_153_301)">
<path d="M85.63 917.384C85.5903 912.234 86.3804 907.834 88.0003 904.185C89.6197 900.467 92.5408 896.363 96.7636 891.873C100.918 887.383 103.772 883.554 105.327 880.386C106.951 877.217 107.749 873.916 107.723 870.483C107.699 867.393 107.168 865.268 106.129 864.107C105.158 862.877 103.711 862.268 101.789 862.28C97.8746 862.304 95.9359 864.686 95.9724 869.423L96.032 877.148L85.3202 877.215L85.2662 870.211C85.2212 864.375 86.6287 859.903 89.4889 856.795C92.3484 853.618 96.5249 852.013 102.018 851.978C107.511 851.944 111.712 853.497 114.62 856.637C117.528 859.709 119.005 864.163 119.05 870C119.083 874.394 118.052 878.693 115.956 882.895C113.928 887.096 110.36 891.925 105.252 897.382C101.915 900.973 99.6718 903.906 98.522 906.179C97.3716 908.384 96.8062 910.756 96.8258 913.297L96.8377 914.842L118.364 914.707L118.444 925.007L85.6904 925.212L85.63 917.384ZM125.17 883.764L147.83 883.622L147.909 893.922L125.25 894.064L125.17 883.764ZM173.748 911.579L152.118 911.715L152.039 901.415L172.263 852.568L184.622 852.491L184.998 901.209L190.354 901.175L190.433 911.475L185.077 911.508L185.178 924.589L173.849 924.66L173.748 911.579ZM173.668 901.28L173.451 873.161L173.245 873.163L162.339 901.35L173.668 901.28ZM212.076 852.319L228.247 852.218L235.855 903.774L236.061 903.773L242.873 852.126L259.043 852.025L259.599 924.123L248.887 924.19L248.466 869.602L248.26 869.603L240.442 924.243L230.966 924.302L222.305 869.765L222.099 869.767L222.52 924.355L212.632 924.417L212.076 852.319ZM267.498 851.972L298.397 851.779L298.477 862.078L278.907 862.201L279.054 881.255L294.607 881.158L294.686 891.458L279.133 891.555L279.304 913.699L298.874 913.577L298.953 923.877L268.054 924.07L267.498 851.972ZM304.915 851.738L321.086 851.637L328.694 903.193L328.9 903.192L335.712 851.545L351.882 851.444L352.438 923.542L341.726 923.609L341.305 869.02L341.099 869.022L333.281 923.662L323.805 923.721L315.144 869.184L314.938 869.185L315.359 923.774L305.471 923.836L304.915 851.738ZM360.337 851.391L377.435 851.284C383.271 851.247 387.539 852.594 390.238 855.324C392.937 857.985 394.308 862.131 394.351 867.761L394.373 870.645C394.402 874.353 393.807 877.378 392.589 879.72C391.44 882.062 389.633 883.756 387.169 884.801L387.171 885.007C392.816 886.895 395.67 891.89 395.733 899.992L395.78 906.172C395.823 911.734 394.38 916 391.45 918.971C388.588 921.873 384.342 923.342 378.712 923.377L360.893 923.489L360.337 851.391ZM376.322 880.646C378.588 880.632 380.266 880.038 381.355 878.864C382.514 877.689 383.082 875.729 383.061 872.982L383.03 868.965C383.01 866.356 382.515 864.471 381.544 863.309C380.643 862.148 379.196 861.573 377.205 861.585L371.746 861.62L371.893 880.674L376.322 880.646ZM378.632 913.077C380.623 913.065 382.096 912.541 383.049 911.505C384.002 910.4 384.468 908.543 384.448 905.934L384.4 899.651C384.374 896.355 383.773 894.093 382.596 892.864C381.488 891.567 379.629 890.926 377.019 890.942L371.972 890.974L372.143 913.118L378.632 913.077ZM401.979 851.13L432.878 850.937L432.957 861.236L413.388 861.359L413.535 880.413L429.088 880.316L429.167 890.616L413.614 890.713L413.785 912.857L433.355 912.735L433.434 923.035L402.535 923.228L401.979 851.13ZM439.396 850.896L456.185 850.791C462.021 850.754 466.289 852.101 468.988 854.831C471.687 857.492 473.058 861.638 473.101 867.268L473.135 871.697C473.193 879.181 470.758 883.935 465.829 885.957L465.831 886.163C468.584 886.97 470.519 888.64 471.637 891.174C472.824 893.707 473.434 897.102 473.467 901.359L473.565 914.028C473.581 916.088 473.662 917.77 473.81 919.074C473.957 920.309 474.309 921.543 474.868 922.775L463.332 922.847C462.911 921.683 462.628 920.586 462.483 919.557C462.338 918.527 462.255 916.674 462.234 913.996L462.132 900.812C462.107 897.517 461.54 895.22 460.431 893.922C459.391 892.624 457.567 891.983 454.957 891.999L451.043 892.024L451.282 922.923L439.952 922.994L439.396 850.896ZM455.084 881.698C457.35 881.684 459.028 881.09 460.117 879.916C461.276 878.741 461.844 876.78 461.823 874.034L461.78 868.472C461.76 865.863 461.265 863.978 460.294 862.816C459.393 861.655 457.946 861.08 455.955 861.092L450.805 861.125L450.964 881.724L455.084 881.698ZM496.23 923.671C490.737 923.706 486.57 922.187 483.731 919.115C480.892 915.974 479.449 911.485 479.404 905.648L479.372 901.529L490.084 901.461L490.122 906.405C490.158 911.074 492.133 913.397 496.047 913.372C497.97 913.36 499.408 912.802 500.361 911.697C501.381 910.524 501.882 908.666 501.863 906.126C501.839 903.105 501.132 900.465 499.741 898.208C498.35 895.882 495.788 893.117 492.055 889.913C487.354 885.822 484.064 882.135 482.185 878.85C480.305 875.498 479.349 871.727 479.316 867.538C479.272 861.839 480.68 857.436 483.541 854.328C486.4 851.151 490.577 849.545 496.07 849.511C501.494 849.477 505.592 851.031 508.363 854.172C511.202 857.244 512.644 861.699 512.689 867.535L512.712 870.522L502.001 870.589L501.972 866.881C501.953 864.409 501.458 862.627 500.489 861.535C499.518 860.373 498.106 859.798 496.252 859.81C492.476 859.834 490.605 862.146 490.641 866.746C490.661 869.356 491.366 871.789 492.757 874.046C494.216 876.303 496.813 879.034 500.545 882.238C505.315 886.328 508.605 890.05 510.417 893.403C512.228 896.756 513.151 900.699 513.186 905.231C513.232 911.136 511.79 915.677 508.862 918.854C506.002 922.031 501.792 923.637 496.23 923.671Z" fill="white"/>
</g>
<defs>
<filter id="filter0_i_153_301" x="1.69385" y="14.6775" width="556.603" height="1112.67" filterUnits="userSpaceOnUse" color-interpolation-filters="sRGB">
<feFlood flood-opacity="0" result="BackgroundImageFix"/>
<feBlend mode="normal" in="SourceGraphic" in2="BackgroundImageFix" result="shape"/>
<feColorMatrix in="SourceAlpha" type="matrix" values="0 0 0 0 0 0 0 0 0 0 0 0 0 0 0 0 0 0 127 0" result="hardAlpha"/>
<feOffset dx="-30" dy="-30"/>
<feGaussianBlur stdDeviation="12"/>
<feComposite in2="hardAlpha" operator="arithmetic" k2="-1" k3="1"/>
<feColorMatrix type="matrix" values="0 0 0 0 0 0 0 0 0 0 0 0 0 0 0 0 0 0 1 0"/>
<feBlend mode="normal" in2="shape" result="effect1_innerShadow_153_301"/>
</filter>
<filter id="filter1_d_153_301" x="80.6849" y="849.406" width="437.084" height="85.7184" filterUnits="userSpaceOnUse" color-interpolation-filters="sRGB">
<feFlood flood-opacity="0" result="BackgroundImageFix"/>
<feColorMatrix in="SourceAlpha" type="matrix" values="0 0 0 0 0 0 0 0 0 0 0 0 0 0 0 0 0 0 127 0" result="hardAlpha"/>
<feOffset dy="4.44158"/>
<feGaussianBlur stdDeviation="2.22079"/>
<feComposite in2="hardAlpha" operator="out"/>
<feColorMatrix type="matrix" values="0 0 0 0 0 0 0 0 0 0 0 0 0 0 0 0 0 0 0.99 0"/>
<feBlend mode="normal" in2="BackgroundImageFix" result="effect1_dropShadow_153_301"/>
<feBlend mode="normal" in="SourceGraphic" in2="effect1_dropShadow_153_301" result="shape"/>
</filter>
<linearGradient id="paint0_linear_153_301" x1="612.679" y1="561.872" x2="275.193" y2="947.773" gradientUnits="userSpaceOnUse">
<stop/>
<stop offset="0.436565" stop-color="#363636"/>
<stop offset="1" stop-color="#666666"/>
</linearGradient>
</defs>
</svg>
