<svg width="62" height="62" viewBox="0 0 62 62" fill="none" xmlns="http://www.w3.org/2000/svg">
<path fill-rule="evenodd" clip-rule="evenodd" d="M30.7869 0C13.784 0 0 13.7833 0 30.7869C0 46.3974 11.6202 59.294 26.6825 61.3013V55.0977C26.6825 53.349 25.5797 51.7758 23.921 51.2201C15.2302 48.3 9.01274 39.9937 9.24222 30.2681C9.52098 18.4275 19.1667 9.11753 31.0086 9.2376C42.809 9.35767 52.3377 18.9601 52.3377 30.7884C52.3377 31.8967 52.2514 33.0051 52.0851 34.0995C49.4469 51.4803 26.8088 61.249 26.6855 61.3028C28.027 61.4799 29.3961 61.5737 30.7869 61.5737C47.7897 61.5737 61.5737 47.7905 61.5737 30.7869C61.5737 13.7833 47.7897 0 30.7869 0Z" fill="url(#paint0_linear_153_423)"/>
<defs>
<linearGradient id="paint0_linear_153_423" x1="30.7869" y1="0" x2="30.7869" y2="61.5737" gradientUnits="userSpaceOnUse">
<stop stop-color="#269FD5"/>
<stop offset="1" stop-color="#269FD5"/>
</linearGradient>
</defs>
</svg>
