<svg width="555" height="116" viewBox="0 0 555 116" fill="none" xmlns="http://www.w3.org/2000/svg">
<path d="M149.929 78.9032V37.3323H167.686C173.467 37.3323 177.96 38.6784 181.167 41.3706C184.374 44.0232 185.977 47.7052 185.977 52.4166C185.977 55.5047 185.245 58.1771 183.78 60.4338C182.315 62.651 180.237 64.3534 177.544 65.5411C174.852 66.7289 171.645 67.3227 167.924 67.3227H155.274L159.55 63.1063V78.9032H149.929ZM176.357 78.9032L165.964 63.8189H176.238L186.749 78.9032H176.357ZM159.55 64.1752L155.274 59.6618H167.389C170.359 59.6618 172.576 59.0283 174.041 57.7614C175.505 56.4549 176.238 54.6733 176.238 52.4166C176.238 50.1203 175.505 48.3387 174.041 47.0717C172.576 45.8048 170.359 45.1714 167.389 45.1714H155.274L159.55 40.5985V64.1752ZM209.142 79.3783C205.5 79.3783 202.293 78.6657 199.522 77.2404C196.79 75.8151 194.672 73.8751 193.167 71.4205C191.663 68.9262 190.91 66.0954 190.91 62.9281C190.91 59.7212 191.643 56.8904 193.108 54.4357C194.612 51.9415 196.651 50.0015 199.225 48.6158C201.798 47.1905 204.708 46.4779 207.955 46.4779C211.082 46.4779 213.893 47.1509 216.388 48.497C218.921 49.8035 220.921 51.7039 222.386 54.1982C223.85 56.6529 224.583 59.6024 224.583 63.0469C224.583 63.4032 224.563 63.8189 224.524 64.294C224.484 64.7295 224.444 65.1452 224.405 65.5411H198.453V60.1369H219.535L215.972 61.7404C215.972 60.0775 215.635 58.6324 214.962 57.4051C214.289 56.1778 213.359 55.2276 212.171 54.5545C210.983 53.8419 209.598 53.4855 208.014 53.4855C206.43 53.4855 205.025 53.8419 203.797 54.5545C202.61 55.2276 201.679 56.1976 201.006 57.4645C200.333 58.6918 199.997 60.1567 199.997 61.8591V63.2844C199.997 65.0264 200.373 66.5705 201.125 67.9166C201.917 69.2231 203.006 70.2327 204.391 70.9454C205.817 71.6184 207.479 71.9549 209.38 71.9549C211.082 71.9549 212.567 71.6976 213.834 71.1829C215.14 70.6682 216.328 69.8962 217.397 68.8668L222.326 74.2116C220.861 75.8745 219.02 77.1612 216.803 78.0718C214.586 78.9428 212.032 79.3783 209.142 79.3783ZM246.115 90.8994C243.106 90.8994 240.196 90.5233 237.385 89.7711C234.614 89.0584 232.298 87.9697 230.437 86.5048L234.119 79.8534C235.465 80.962 237.167 81.833 239.226 82.4665C241.325 83.1395 243.383 83.476 245.402 83.476C248.689 83.476 251.064 82.7436 252.529 81.2787C254.033 79.8138 254.786 77.6363 254.786 74.7461V69.9358L255.38 61.9185L255.261 53.8419V46.953H264.05V73.5584C264.05 79.4971 262.506 83.8719 259.418 86.6829C256.33 89.4939 251.895 90.8994 246.115 90.8994ZM244.69 77.3592C241.72 77.3592 239.028 76.7257 236.613 75.4588C234.238 74.1523 232.318 72.3508 230.853 70.0545C229.427 67.7187 228.715 65.0066 228.715 61.9185C228.715 58.7908 229.427 56.0788 230.853 53.7825C232.318 51.4466 234.238 49.6452 236.613 48.3783C239.028 47.1113 241.72 46.4779 244.69 46.4779C247.382 46.4779 249.758 47.0322 251.816 48.1407C253.875 49.2097 255.478 50.8923 256.627 53.1886C257.775 55.4453 258.349 58.3553 258.349 61.9185C258.349 65.4421 257.775 68.3521 256.627 70.6484C255.478 72.9051 253.875 74.5878 251.816 75.6963C249.758 76.8049 247.382 77.3592 244.69 77.3592ZM246.531 69.7576C248.154 69.7576 249.599 69.4409 250.866 68.8074C252.133 68.1344 253.123 67.204 253.835 66.0162C254.548 64.8285 254.904 63.4626 254.904 61.9185C254.904 60.3349 254.548 58.969 253.835 57.8208C253.123 56.6331 252.133 55.7225 250.866 55.089C249.599 54.4159 248.154 54.0794 246.531 54.0794C244.908 54.0794 243.462 54.4159 242.196 55.089C240.929 55.7225 239.919 56.6331 239.167 57.8208C238.454 58.969 238.098 60.3349 238.098 61.9185C238.098 63.4626 238.454 64.8285 239.167 66.0162C239.919 67.204 240.929 68.1344 242.196 68.8074C243.462 69.4409 244.908 69.7576 246.531 69.7576ZM273.012 78.9032V46.953H282.276V78.9032H273.012ZM277.644 42.4989C275.942 42.4989 274.556 42.004 273.487 41.0143C272.418 40.0245 271.884 38.7971 271.884 37.3323C271.884 35.8674 272.418 34.64 273.487 33.6503C274.556 32.6605 275.942 32.1656 277.644 32.1656C279.347 32.1656 280.732 32.6407 281.801 33.5909C282.87 34.5015 283.405 35.6892 283.405 37.1541C283.405 38.6982 282.87 39.9849 281.801 41.0143C280.772 42.004 279.386 42.4989 277.644 42.4989ZM301.963 79.3783C299.231 79.3783 296.598 79.0616 294.065 78.4281C291.57 77.7551 289.591 76.9237 288.126 75.9339L291.214 69.2825C292.679 70.1931 294.401 70.9454 296.381 71.5392C298.4 72.0935 300.379 72.3706 302.319 72.3706C304.457 72.3706 305.962 72.1133 306.833 71.5986C307.743 71.0839 308.199 70.3713 308.199 69.4607C308.199 68.7084 307.842 68.1542 307.13 67.7978C306.457 67.4019 305.546 67.105 304.398 66.907C303.25 66.7091 301.983 66.5111 300.597 66.3132C299.251 66.1152 297.885 65.8579 296.499 65.5411C295.114 65.1848 293.847 64.6701 292.699 63.9971C291.551 63.324 290.62 62.4134 289.907 61.2653C289.234 60.1171 288.898 58.6324 288.898 56.8112C288.898 54.7921 289.472 53.0105 290.62 51.4664C291.808 49.9223 293.51 48.7148 295.727 47.8438C297.945 46.9332 300.597 46.4779 303.685 46.4779C305.863 46.4779 308.08 46.7154 310.337 47.1905C312.593 47.6656 314.474 48.3585 315.978 49.2691L312.89 55.861C311.346 54.9504 309.782 54.3368 308.199 54.02C306.655 53.6637 305.15 53.4855 303.685 53.4855C301.627 53.4855 300.122 53.7627 299.172 54.317C298.222 54.8712 297.747 55.5839 297.747 56.4549C297.747 57.2467 298.083 57.8406 298.756 58.2365C299.469 58.6324 300.399 58.9492 301.547 59.1867C302.695 59.4243 303.943 59.642 305.289 59.84C306.674 59.9983 308.06 60.2557 309.446 60.612C310.832 60.9683 312.079 61.483 313.187 62.1561C314.335 62.7895 315.266 63.6803 315.978 64.8285C316.691 65.937 317.047 67.4019 317.047 69.2231C317.047 71.2027 316.453 72.9645 315.266 74.5086C314.078 76.0131 312.356 77.2008 310.099 78.0718C307.882 78.9428 305.17 79.3783 301.963 79.3783ZM336.168 79.3783C332.407 79.3783 329.477 78.4281 327.379 76.5277C325.28 74.5878 324.231 71.7174 324.231 67.9166V39.8859H333.495V67.7978C333.495 69.1439 333.852 70.1931 334.564 70.9454C335.277 71.658 336.247 72.0143 337.474 72.0143C338.939 72.0143 340.186 71.6184 341.216 70.8266L343.71 77.3592C342.76 78.0322 341.612 78.5469 340.266 78.9032C338.959 79.22 337.593 79.3783 336.168 79.3783ZM319.302 54.0794V46.953H341.453V54.0794H319.302ZM364.12 79.3783C360.478 79.3783 357.271 78.6657 354.5 77.2404C351.768 75.8151 349.65 73.8751 348.145 71.4205C346.641 68.9262 345.889 66.0954 345.889 62.9281C345.889 59.7212 346.621 56.8904 348.086 54.4357C349.59 51.9415 351.629 50.0015 354.203 48.6158C356.776 47.1905 359.686 46.4779 362.933 46.4779C366.06 46.4779 368.871 47.1509 371.366 48.497C373.899 49.8035 375.899 51.7039 377.364 54.1982C378.829 56.6529 379.561 59.6024 379.561 63.0469C379.561 63.4032 379.541 63.8189 379.502 64.294C379.462 64.7295 379.422 65.1452 379.383 65.5411H353.431V60.1369H374.513L370.95 61.7404C370.95 60.0775 370.613 58.6324 369.94 57.4051C369.267 56.1778 368.337 55.2276 367.149 54.5545C365.961 53.8419 364.576 53.4855 362.992 53.4855C361.408 53.4855 360.003 53.8419 358.776 54.5545C357.588 55.2276 356.657 56.1976 355.984 57.4645C355.311 58.6918 354.975 60.1567 354.975 61.8591V63.2844C354.975 65.0264 355.351 66.5705 356.103 67.9166C356.895 69.2231 357.984 70.2327 359.369 70.9454C360.795 71.6184 362.458 71.9549 364.358 71.9549C366.06 71.9549 367.545 71.6976 368.812 71.1829C370.118 70.6682 371.306 69.8962 372.375 68.8668L377.304 74.2116C375.839 75.8745 373.998 77.1612 371.781 78.0718C369.564 78.9428 367.011 79.3783 364.12 79.3783ZM386.068 78.9032V46.953H394.917V55.9798L393.67 53.3668C394.62 51.1101 396.144 49.4076 398.243 48.2595C400.341 47.0717 402.895 46.4779 405.904 46.4779V55.0296C405.508 54.99 405.151 54.9702 404.835 54.9702C404.518 54.9306 404.181 54.9108 403.825 54.9108C401.291 54.9108 399.232 55.6433 397.649 57.1082C396.105 58.5335 395.333 60.7704 395.333 63.8189V78.9032H386.068Z" fill="white"/>
<path d="M45.0188 1.89721C52.1567 -0.680435 78.4096 0.123176 87.2207 0.103529L133.486 0.094718L252.558 0.0800145L400.262 0.0457547C425.288 0.0230382 450.407 0.00213246 475.43 0.297232C478.68 0.335543 481.994 0.792913 485.216 0.873034C489.689 0.984314 494.142 0.699991 498.628 0.910395C501.414 0.922306 507.747 1.02619 510.509 1.48957C511.853 2.93247 512.55 3.92429 513.669 5.51521C515.544 9.92436 517.766 15.3247 522.712 16.8314C526.52 18.9167 531.178 20.0495 534.431 22.5517C535.183 24.2391 535.649 25.262 536.14 27.0707L537.831 31.5216C542.268 43.5518 542.467 48.5657 553.155 57.4549C553.854 58.1269 554.667 58.7228 554.769 59.6594C553.848 61.3023 546.496 66.8479 545.134 69.0041C540.316 76.6316 538.653 91.3065 530.061 95.6236C529.779 95.6012 529.435 95.5741 529.03 95.5422C525.876 97.5385 520.73 99.5068 518.085 101.701C515.48 103.863 514.427 106.879 513.317 109.633C513.547 109.813 513.798 110.045 514.059 110.154C512.988 112.686 512.2 113.738 509.944 115.4C506.213 115.997 502.62 115.74 498.87 115.782C454.967 116.276 411.146 115.57 367.239 115.14C366.944 115.502 367.788 114.962 367.239 115.14C362.974 115.064 330.561 114.528 329.641 115.365C318.778 115.69 308.229 116.281 297.321 115.738C296.741 115.818 296.136 115.774 295.55 115.767C286.704 115.649 277.848 115.899 269.002 115.731C258.275 115.883 245.158 116.172 234.651 115.863C232.415 115.893 230.425 115.894 228.19 115.797C225.772 116.101 219.265 115.849 216.537 115.807C210.307 115.724 204.078 115.69 197.848 115.705C184.375 115.869 170.945 115.602 157.48 115.84C155.855 115.869 154.102 115.778 152.474 115.726C147.974 115.813 143.387 115.765 138.884 115.724C112.087 115.482 85.2268 116.064 58.4391 115.722C54.3651 115.839 48.9869 115.739 45.151 114.266C41.7303 101.452 31.8606 101.274 25.3189 94.3174C16.8168 88.5038 17.7588 78.3642 12.3439 70.4138L12.4509 69.0483C8.6531 64.5925 5.00499 62.5302 0 59.6471C5.8301 55.5308 16.4958 49.0136 15.88 40.8034C16.83 36.0925 19.4612 30.0742 22.0948 26.0822C26.3349 19.5706 35.0585 18.2647 39.2175 13.2833C42.0731 9.42306 43.1989 6.31274 45.0188 1.89721Z" fill="#E7D8D3"/>
<path d="M364.592 109.944C407.249 110.336 449.822 110.977 492.475 110.528C496.118 110.489 499.609 110.723 503.234 110.181C505.425 108.67 506.191 107.714 507.231 105.411C506.978 105.312 506.734 105.102 506.51 104.938C507.589 102.434 508.612 99.6924 511.143 97.7278C513.712 95.7327 518.712 93.9434 521.776 92.1286C522.17 92.1577 522.504 92.1822 522.778 92.2026C531.125 88.2781 532.741 74.9378 537.421 68.004C538.745 66.0438 545.887 61.0026 546.782 59.509C546.683 58.6576 545.893 58.1159 545.214 57.5051C534.83 49.4242 534.637 44.8663 530.326 33.9301L528.683 29.884C528.206 28.2398 527.753 27.3099 527.023 25.7759C523.863 23.5013 519.338 22.4715 515.638 20.5759C510.833 19.2062 508.674 14.2969 506.853 10.2888C505.765 8.84252 505.088 7.9409 503.782 6.62922C501.099 6.20798 494.946 6.11354 492.24 6.10272C487.881 5.91145 483.556 6.16991 479.209 6.06875C476.079 5.99592 472.859 5.58014 469.702 5.54531C445.392 5.27705 420.988 5.29606 396.675 5.31671L253.177 5.34785L137.495 5.36122L92.5476 5.36923C83.9874 5.38709 58.482 4.65656 51.5474 6.99979C49.7793 11.0138 48.6855 13.8412 45.9113 17.3504C41.8708 21.8788 33.3955 23.0659 29.2762 28.9854C26.7176 32.6143 24.1613 38.0854 23.2383 42.3679C23.8366 49.8314 13.4746 55.7559 7.81055 59.4978C12.673 62.1188 16.2172 63.9935 19.9069 68.0441L19.8029 69.2854C25.0636 76.5129 24.1484 85.7303 32.4085 91.0152C38.7639 97.339 48.3526 97.5012 51.6759 109.15C55.4025 110.488 60.6275 110.579 64.5855 110.473C90.6105 110.785 116.706 110.255 142.74 110.475C147.114 110.512 151.571 110.556 155.943 110.477C157.525 110.524 159.228 110.607 160.806 110.581C173.888 110.365 186.935 110.607 200.024 110.458C206.077 110.444 212.129 110.475 218.181 110.551C220.832 110.589 227.154 110.818 229.503 110.542C231.674 110.63 233.607 110.629 235.78 110.601C245.987 110.882 258.731 110.62 269.152 110.481C277.747 110.634 286.35 110.407 294.945 110.514C295.514 110.521 296.101 110.561 296.665 110.488C307.263 110.982 317.512 110.444 328.065 110.149C328.959 109.388 360.448 109.875 364.592 109.944ZM364.592 109.944C365.126 109.782 364.306 110.273 364.592 109.944Z" stroke="#474346" stroke-width="2.60373"/>
<path d="M475 70.8282L486.886 57.1498L475 43.4714L477.377 38L494.017 57.1498L477.377 76.2995L475 70.8282Z" fill="black"/>
</svg>
