<svg width="745" height="172" viewBox="0 0 745 172" fill="none" xmlns="http://www.w3.org/2000/svg">
<path fill-rule="evenodd" clip-rule="evenodd" d="M732.167 0C732.167 0 744.574 12.5139 745 12.833V50H732.167V12.833H695V0H732.167Z" fill="#F6632D"/>
<path fill-rule="evenodd" clip-rule="evenodd" d="M12.833 0C12.833 0 0.425537 12.5139 0 12.833V50H12.833V12.833H50V0H12.833Z" fill="#F6632D"/>
<path fill-rule="evenodd" clip-rule="evenodd" d="M12.833 170C12.833 170 0.425538 157.486 1.1219e-06 157.167L4.37114e-06 120L12.833 120L12.833 157.167L50 157.167L50 170L12.833 170Z" fill="#F6632D"/>
<path fill-rule="evenodd" clip-rule="evenodd" d="M732.167 172C732.167 172 744.574 159.486 745 159.167L745 122L732.167 122L732.167 159.167L695 159.167L695 172L732.167 172Z" fill="#F6632D"/>
</svg>
