<svg width="744" height="357" viewBox="0 0 744 357" fill="none" xmlns="http://www.w3.org/2000/svg">
<g style="mix-blend-mode:color-dodge">
<path d="M645.903 83.9618V3.32031H611.528V74.5117L588.481 3.32031H554.106V74.2123L645.903 83.9618Z" fill="#FF3A4F"/>
<path d="M645.903 83.9618V3.32031H611.528V74.5117L588.481 3.32031H554.106V74.2123L645.903 83.9618Z" fill="#E200FF"/>
<path d="M492.502 67.6695L511.626 3.32031H473.833C468.603 27.4266 464.842 47.8159 462.549 64.4883L492.502 67.6695Z" fill="#FF3A4F"/>
<path d="M492.502 67.6695L511.626 3.32031H473.833C468.603 27.4266 464.842 47.8159 462.549 64.4883L492.502 67.6695Z" fill="#E200FF"/>
<path d="M462.33 64.465C461.474 53.5049 458.18 33.1234 452.446 3.32031H414.653L431.227 61.1617L462.33 64.465Z" fill="#FF3A4F"/>
<path d="M462.33 64.465C461.474 53.5049 458.18 33.1234 452.446 3.32031H414.653L431.227 61.1617L462.33 64.465Z" fill="#E200FF"/>
<path d="M407.367 58.6276C407.797 55.1478 408.012 51.1001 408.012 46.4844C408.012 33.0078 405.831 23.2096 401.469 17.0898C397.173 10.9049 391.574 7.0638 384.673 5.56641C377.837 4.06901 364.718 3.32031 345.317 3.32031H316.216V48.9467L357.329 53.3132V30.3711C362.081 30.3711 365.337 31.1523 367.094 32.7148C368.917 34.2773 369.829 37.5651 369.829 42.5781V51.2695C369.829 52.4751 369.801 53.5959 369.744 54.6318L407.367 58.6276Z" fill="#FF3A4F"/>
<path d="M407.367 58.6276C407.797 55.1478 408.012 51.1001 408.012 46.4844C408.012 33.0078 405.831 23.2096 401.469 17.0898C397.173 10.9049 391.574 7.0638 384.673 5.56641C377.837 4.06901 364.718 3.32031 345.317 3.32031H316.216V48.9467L357.329 53.3132V30.3711C362.081 30.3711 365.337 31.1523 367.094 32.7148C368.917 34.2773 369.829 37.5651 369.829 42.5781V51.2695C369.829 52.4751 369.801 53.5959 369.744 54.6318L407.367 58.6276Z" fill="#E200FF"/>
<path d="M300.198 47.2455C300.199 46.9935 300.2 46.7398 300.2 46.4844C300.2 33.0078 298.019 23.2096 293.657 17.0898C289.36 10.9049 283.761 7.0638 276.86 5.56641C270.024 4.06901 256.906 3.32031 237.505 3.32031H208.403V37.4963L249.516 41.8628V30.3711C254.269 30.3711 257.524 31.1523 259.282 32.7148C261.105 34.2773 262.016 37.5651 262.016 42.5781V43.1904L300.198 47.2455Z" fill="#FF3A4F"/>
<path d="M300.198 47.2455C300.199 46.9935 300.2 46.7398 300.2 46.4844C300.2 33.0078 298.019 23.2096 293.657 17.0898C289.36 10.9049 283.761 7.0638 276.86 5.56641C270.024 4.06901 256.906 3.32031 237.505 3.32031H208.403V37.4963L249.516 41.8628V30.3711C254.269 30.3711 257.524 31.1523 259.282 32.7148C261.105 34.2773 262.016 37.5651 262.016 42.5781V43.1904L300.198 47.2455Z" fill="#E200FF"/>
<path d="M182.515 34.7467L177.837 3.32031H118.364L115.156 27.5927L182.515 34.7467Z" fill="#FF3A4F"/>
<path d="M182.515 34.7467L177.837 3.32031H118.364L115.156 27.5927L182.515 34.7467Z" fill="#E200FF"/>
<path d="M88.4348 24.7548C88.4178 24.7061 88.4007 24.6577 88.3835 24.6094C85.9096 17.5781 80.7338 11.7188 72.8562 7.03125C64.9786 2.34375 54.9851 0 42.8757 0C33.9564 0 26.0463 1.52995 19.1452 4.58984C12.8403 7.35201 7.78147 11.0834 3.96875 15.7839L88.4348 24.7548Z" fill="#FF3A4F"/>
<path d="M88.4348 24.7548C88.4178 24.7061 88.4007 24.6577 88.3835 24.6094C85.9096 17.5781 80.7338 11.7188 72.8562 7.03125C64.9786 2.34375 54.9851 0 42.8757 0C33.9564 0 26.0463 1.52995 19.1452 4.58984C12.8403 7.35201 7.78147 11.0834 3.96875 15.7839L88.4348 24.7548Z" fill="#E200FF"/>
<path d="M44.1137 126.634C28.4203 126.95 14.7495 127.17 3.5 127.276C4.08673 135.364 5.18948 141.878 6.80826 146.818C9.34732 154.5 14.5231 160.522 22.3356 164.884C30.1481 169.246 40.0765 171.427 52.1208 171.427C63.7093 171.427 73.4424 168.855 81.32 163.712C89.2627 158.569 94.3734 152.579 96.652 145.743C98.2381 141.117 99.2874 134.315 99.8002 125.336C85.2711 125.71 71.632 126.039 59.048 126.318C58.988 134.019 58.5018 138.964 57.5895 141.153C56.6781 143.497 54.6924 144.669 51.6325 144.669C48.4424 144.669 46.3916 143.497 45.4801 141.153C44.5894 138.863 44.1339 134.023 44.1137 126.634Z" fill="#FF3A4F"/>
<path d="M44.1137 126.634C28.4203 126.95 14.7495 127.17 3.5 127.276C4.08673 135.364 5.18948 141.878 6.80826 146.818C9.34732 154.5 14.5231 160.522 22.3356 164.884C30.1481 169.246 40.0765 171.427 52.1208 171.427C63.7093 171.427 73.4424 168.855 81.32 163.712C89.2627 158.569 94.3734 152.579 96.652 145.743C98.2381 141.117 99.2874 134.315 99.8002 125.336C85.2711 125.71 71.632 126.039 59.048 126.318C58.988 134.019 58.5018 138.964 57.5895 141.153C56.6781 143.497 54.6924 144.669 51.6325 144.669C48.4424 144.669 46.3916 143.497 45.4801 141.153C44.5894 138.863 44.1339 134.023 44.1137 126.634Z" fill="#E200FF"/>
<path d="M111.232 125.038L105.539 168.107H148.117L150.558 139.689H165.304L167.355 168.107H209.445L202.645 122.427C169.945 123.416 139.119 124.3 111.232 125.038Z" fill="#FF3A4F"/>
<path d="M111.232 125.038L105.539 168.107H148.117L150.558 139.689H165.304L167.355 168.107H209.445L202.645 122.427C169.945 123.416 139.119 124.3 111.232 125.038Z" fill="#E200FF"/>
<path d="M216.476 122.006V168.107H257.59V120.725C243.649 121.166 229.921 121.594 216.476 122.006Z" fill="#FF3A4F"/>
<path d="M216.476 122.006V168.107H257.59V120.725C243.649 121.166 229.921 121.594 216.476 122.006Z" fill="#E200FF"/>
<path d="M270.09 120.328V168.107H308.273V126.407C308.273 123.756 308.258 121.319 308.227 119.097C295.395 119.516 282.666 119.927 270.09 120.328Z" fill="#FF3A4F"/>
<path d="M270.09 120.328V168.107H308.273V126.407C308.273 123.756 308.258 121.319 308.227 119.097C295.395 119.516 282.666 119.927 270.09 120.328Z" fill="#E200FF"/>
<path d="M324.289 118.571V168.107H365.402V117.204C351.646 117.666 337.922 118.122 324.289 118.571Z" fill="#FF3A4F"/>
<path d="M324.289 118.571V168.107H365.402V117.204C351.646 117.666 337.922 118.122 324.289 118.571Z" fill="#E200FF"/>
<path d="M377.902 116.784V168.107H416.086V126.407C416.086 122.236 416.047 118.596 415.971 115.489C403.301 115.923 390.596 116.355 377.902 116.784Z" fill="#FF3A4F"/>
<path d="M377.902 116.784V168.107H416.086V126.407C416.086 122.236 416.047 118.596 415.971 115.489C403.301 115.923 390.596 116.355 377.902 116.784Z" fill="#E200FF"/>
<path d="M451.632 114.259V168.107H489.718V112.929C477.138 113.371 464.427 113.815 451.632 114.259Z" fill="#FF3A4F"/>
<path d="M451.632 114.259V168.107H489.718V112.929C477.138 113.371 464.427 113.815 451.632 114.259Z" fill="#E200FF"/>
<path d="M562.179 110.351L562.179 168.107H596.554V109.108C585.35 109.515 573.875 109.931 562.179 110.351Z" fill="#FF3A4F"/>
<path d="M562.179 110.351L562.179 168.107H596.554V109.108C585.35 109.515 573.875 109.931 562.179 110.351Z" fill="#E200FF"/>
<path d="M600.345 108.97L617.941 168.107H653.976V107C637.024 107.628 619.072 108.288 600.345 108.97Z" fill="#FF3A4F"/>
<path d="M600.345 108.97L617.941 168.107H653.976V107C637.024 107.628 619.072 108.288 600.345 108.97Z" fill="#E200FF"/>
<path d="M97.168 75.84H56.0547V48.3009C56.0547 40.2931 55.599 35.3127 54.6875 33.3595C53.8411 31.3413 51.9206 30.3322 48.9258 30.3322C45.5404 30.3322 43.3919 31.5366 42.4805 33.9455C41.569 36.3543 41.1133 41.5627 41.1133 49.5705V123.008C41.1133 130.69 41.569 135.703 42.4805 138.047C41.5897 135.757 41.1339 130.917 41.1137 123.528C25.4204 123.844 11.7498 124.063 0.500346 124.17C0.166782 119.571 0 114.464 0 108.848V62.6564C0 51.2632 0.390625 42.7345 1.17188 37.0705C1.95312 31.3413 4.26432 25.84 8.10547 20.5666C8.40889 20.1569 8.72115 19.7542 9.04224 19.3583L93.508 28.3292L93.4783 28.2446L93.4568 28.1838C95.9307 35.1499 97.168 46.0223 97.168 60.8009V75.84Z" fill="#FF3A4F"/>
<path d="M97.168 75.84H56.0547V48.3009C56.0547 40.2931 55.599 35.3127 54.6875 33.3595C53.8411 31.3413 51.9206 30.3322 48.9258 30.3322C45.5404 30.3322 43.3919 31.5366 42.4805 33.9455C41.569 36.3543 41.1133 41.5627 41.1133 49.5705V123.008C41.1133 130.69 41.569 135.703 42.4805 138.047C41.5897 135.757 41.1339 130.917 41.1137 123.528C25.4204 123.844 11.7498 124.063 0.500346 124.17C0.166782 119.571 0 114.464 0 108.848V62.6564C0 51.2632 0.390625 42.7345 1.17188 37.0705C1.95312 31.3413 4.26432 25.84 8.10547 20.5666C8.40889 20.1569 8.72115 19.7542 9.04224 19.3583L93.508 28.3292L93.4783 28.2446L93.4568 28.1838C95.9307 35.1499 97.168 46.0223 97.168 60.8009V75.84Z" fill="#E200FF"/>
<path d="M78.3203 160.606C78.3202 160.606 78.3204 160.606 78.3203 160.606V160.606Z" fill="#FF3A4F"/>
<path d="M78.3203 160.606C78.3202 160.606 78.3204 160.606 78.3203 160.606V160.606Z" fill="#E200FF"/>
<path d="M93.6523 142.637C95.9961 135.801 97.168 124.212 97.168 107.871V101.719H56.0547V121.543C56.0547 122.113 56.0526 122.669 56.0483 123.212C68.6323 122.933 82.2712 122.604 96.8002 122.23C96.2874 131.209 95.2384 138.011 93.6523 142.637Z" fill="#FF3A4F"/>
<path d="M93.6523 142.637C95.9961 135.801 97.168 124.212 97.168 107.871V101.719H56.0547V121.543C56.0547 122.113 56.0526 122.669 56.0483 123.212C68.6323 122.933 82.2712 122.604 96.8002 122.23C96.2874 131.209 95.2384 138.011 93.6523 142.637Z" fill="#E200FF"/>
<path fill-rule="evenodd" clip-rule="evenodd" d="M182.91 6.89469L206.445 165L199.645 119.321C166.945 120.309 136.119 121.194 108.232 121.932L120.229 31.1672L187.588 38.3211L182.91 6.89469ZM161.133 108.555C159.049 90.6512 156.966 68.5483 154.883 42.2463C150.716 72.4546 148.112 94.5574 147.07 108.555H161.133Z" fill="#FF3A4F"/>
<path fill-rule="evenodd" clip-rule="evenodd" d="M182.91 6.89469L206.445 165L199.645 119.321C166.945 120.309 136.119 121.194 108.232 121.932L120.229 31.1672L187.588 38.3211L182.91 6.89469ZM161.133 108.555C159.049 90.6512 156.966 68.5483 154.883 42.2463C150.716 72.4546 148.112 94.5574 147.07 108.555H161.133Z" fill="#E200FF"/>
<path d="M213.477 118.9V41.0707L254.59 45.4372V33.9455L254.59 69.1017C259.212 69.1017 262.435 68.4832 264.258 67.2463C266.146 65.9442 267.09 61.8101 267.09 54.8439V46.7648L305.271 50.8199C305.272 50.5679 305.273 50.3142 305.273 50.0588C305.273 62.3634 303.743 70.6317 300.684 74.8634C297.624 79.0952 291.602 81.6343 282.617 82.4806C290.755 84.4989 296.224 87.2007 299.023 90.5861C301.823 93.9715 303.548 97.0965 304.199 99.9611C304.915 102.761 305.273 110.541 305.273 123.301C305.273 120.649 305.258 118.213 305.227 115.991C292.395 116.41 279.666 116.821 267.09 117.222V112.461C267.09 103.998 266.406 98.7567 265.039 96.7384C263.737 94.7202 260.254 93.7111 254.59 93.7111V165L254.59 117.619C240.649 118.06 226.922 118.488 213.477 118.9Z" fill="#FF3A4F"/>
<path d="M213.477 118.9V41.0707L254.59 45.4372V33.9455L254.59 69.1017C259.212 69.1017 262.435 68.4832 264.258 67.2463C266.146 65.9442 267.09 61.8101 267.09 54.8439V46.7648L305.271 50.8199C305.272 50.5679 305.273 50.3142 305.273 50.0588C305.273 62.3634 303.743 70.6317 300.684 74.8634C297.624 79.0952 291.602 81.6343 282.617 82.4806C290.755 84.4989 296.224 87.2007 299.023 90.5861C301.823 93.9715 303.548 97.0965 304.199 99.9611C304.915 102.761 305.273 110.541 305.273 123.301C305.273 120.649 305.258 118.213 305.227 115.991C292.395 116.41 279.666 116.821 267.09 117.222V112.461C267.09 103.998 266.406 98.7567 265.039 96.7384C263.737 94.7202 260.254 93.7111 254.59 93.7111V165L254.59 117.619C240.649 118.06 226.922 118.488 213.477 118.9Z" fill="#E200FF"/>
<path d="M321.289 115.465V52.5211L362.402 56.8876V33.9455L362.402 69.1017C367.025 69.1017 370.247 68.4832 372.07 67.2463C373.632 66.1695 374.547 63.1562 374.818 58.2062L412.44 62.2019C412.87 58.7222 413.086 54.6745 413.086 50.0588C413.086 62.3634 411.556 70.6317 408.496 74.8634C405.436 79.0952 399.414 81.6343 390.43 82.4806C398.568 84.4989 404.036 87.2007 406.836 90.5861C409.635 93.9715 411.361 97.0965 412.012 99.9611C412.728 102.761 413.086 110.541 413.086 123.301C413.086 119.129 413.047 115.49 412.971 112.383C400.301 112.817 387.596 113.249 374.902 113.677V112.461C374.902 103.998 374.219 98.7567 372.852 96.7384C371.549 94.7202 368.066 93.7111 362.402 93.7111V165L362.402 114.098C348.647 114.56 334.922 115.016 321.289 115.465Z" fill="#FF3A4F"/>
<path d="M321.289 115.465V52.5211L362.402 56.8876V33.9455L362.402 69.1017C367.025 69.1017 370.247 68.4832 372.07 67.2463C373.632 66.1695 374.547 63.1562 374.818 58.2062L412.44 62.2019C412.87 58.7222 413.086 54.6745 413.086 50.0588C413.086 62.3634 411.556 70.6317 408.496 74.8634C405.436 79.0952 399.414 81.6343 390.43 82.4806C398.568 84.4989 404.036 87.2007 406.836 90.5861C409.635 93.9715 411.361 97.0965 412.012 99.9611C412.728 102.761 413.086 110.541 413.086 123.301C413.086 119.129 413.047 115.49 412.971 112.383C400.301 112.817 387.596 113.249 374.902 113.677V112.461C374.902 103.998 374.219 98.7567 372.852 96.7384C371.549 94.7202 368.066 93.7111 362.402 93.7111V165L362.402 114.098C348.647 114.56 334.922 115.016 321.289 115.465Z" fill="#E200FF"/>
<path d="M486.719 107.774L497.575 71.2439L467.622 68.0627C467.574 68.4107 467.527 68.757 467.48 69.1017C466.764 58.4246 463.444 37.689 457.52 6.89469C463.253 36.6977 466.548 57.0793 467.403 68.0394L436.3 64.7361L448.633 107.774V111.153C461.427 110.709 474.138 110.265 486.718 109.823V165L486.719 107.774Z" fill="#FF3A4F"/>
<path d="M486.719 107.774L497.575 71.2439L467.622 68.0627C467.574 68.4107 467.527 68.757 467.48 69.1017C466.764 58.4246 463.444 37.689 457.52 6.89469C463.253 36.6977 466.548 57.0793 467.403 68.0394L436.3 64.7361L448.633 107.774V111.153C461.427 110.709 474.138 110.265 486.718 109.823V165L486.719 107.774Z" fill="#E200FF"/>
<path d="M597.345 105.864C616.072 105.182 634.024 104.522 650.976 103.894L650.977 165V6.89469L650.976 87.5362L559.179 77.7867L559.179 107.245C570.875 106.824 582.35 106.409 593.554 106.002L593.555 165V93.1252L597.345 105.864Z" fill="#FF3A4F"/>
<path d="M597.345 105.864C616.072 105.182 634.024 104.522 650.976 103.894L650.977 165V6.89469L650.976 87.5362L559.179 77.7867L559.179 107.245C570.875 106.824 582.35 106.409 593.554 106.002L593.555 165V93.1252L597.345 105.864Z" fill="#E200FF"/>
<path d="M190.454 224.744L150.403 220.875C151.373 215.727 153.596 210.766 157.074 205.992C160.98 200.719 166.351 196.585 173.187 193.59C180.088 190.53 187.998 189 196.918 189C209.027 189 219.021 191.344 226.898 196.031C234.776 200.719 239.951 206.578 242.425 213.609C243.888 217.728 244.919 223.213 245.516 230.064L204.839 226.134C204.627 222.471 204.233 220.022 203.656 218.785C202.81 216.767 200.889 215.758 197.894 215.758C194.509 215.758 192.36 216.962 191.449 219.371C191.013 220.523 190.682 222.314 190.454 224.744Z" fill="#FF3A4F"/>
<path d="M190.454 224.744L150.403 220.875C151.373 215.727 153.596 210.766 157.074 205.992C160.98 200.719 166.351 196.585 173.187 193.59C180.088 190.53 187.998 189 196.918 189C209.027 189 219.021 191.344 226.898 196.031C234.776 200.719 239.951 206.578 242.425 213.609C243.888 217.728 244.919 223.213 245.516 230.064L204.839 226.134C204.627 222.471 204.233 220.022 203.656 218.785C202.81 216.767 200.889 215.758 197.894 215.758C194.509 215.758 192.36 216.962 191.449 219.371C191.013 220.523 190.682 222.314 190.454 224.744Z" fill="#E200FF"/>
<path d="M301.996 235.52L260.882 231.548V192.32H301.996V235.52Z" fill="#FF3A4F"/>
<path d="M301.996 235.52L260.882 231.548V192.32H301.996V235.52Z" fill="#E200FF"/>
<path d="M504.828 255.115L463.715 251.143V223.961H439.398V192.32H529.242V223.961H504.828V255.115Z" fill="#FF3A4F"/>
<path d="M504.828 255.115L463.715 251.143V223.961H439.398V192.32H529.242V223.961H504.828V255.115Z" fill="#E200FF"/>
<path d="M578.558 262.238L537.445 258.266V248.082C537.445 236.689 537.836 228.16 538.617 222.496C539.398 216.767 541.709 211.266 545.55 205.992C549.457 200.719 554.828 196.585 561.664 193.59C568.565 190.53 576.475 189 585.394 189C597.504 189 607.497 191.344 615.375 196.031C623.252 200.719 628.428 206.578 630.902 213.609C633.376 220.576 634.613 231.448 634.613 246.227V261.266H593.5V233.727C593.5 225.719 593.044 220.738 592.132 218.785C591.286 216.767 589.365 215.758 586.371 215.758C582.985 215.758 580.837 216.962 579.925 219.371C579.014 221.78 578.558 226.988 578.558 234.996V262.238Z" fill="#FF3A4F"/>
<path d="M578.558 262.238L537.445 258.266V248.082C537.445 236.689 537.836 228.16 538.617 222.496C539.398 216.767 541.709 211.266 545.55 205.992C549.457 200.719 554.828 196.585 561.664 193.59C568.565 190.53 576.475 189 585.394 189C597.504 189 607.497 191.344 615.375 196.031C623.252 200.719 628.428 206.578 630.902 213.609C633.376 220.576 634.613 231.448 634.613 246.227V261.266H593.5V233.727C593.5 225.719 593.044 220.738 592.132 218.785C591.286 216.767 589.365 215.758 586.371 215.758C582.985 215.758 580.837 216.962 579.925 219.371C579.014 221.78 578.558 226.988 578.558 234.996V262.238Z" fill="#E200FF"/>
<path d="M743.89 278.21L649.359 269.078V192.32H690.472V248.863H702.777V192.32H743.89V278.21Z" fill="#FF3A4F"/>
<path d="M743.89 278.21L649.359 269.078V192.32H690.472V248.863H702.777V192.32H743.89V278.21Z" fill="#E200FF"/>
<path d="M430.511 247.936L389.398 243.964V192.32H430.511V247.936Z" fill="#FF3A4F"/>
<path d="M430.511 247.936L389.398 243.964V192.32H430.511V247.936Z" fill="#E200FF"/>
<path d="M377.582 242.822L336.468 238.85V192.32H377.582V242.822Z" fill="#FF3A4F"/>
<path d="M377.582 242.822L336.468 238.85V192.32H377.582V242.822Z" fill="#E200FF"/>
<path d="M202.023 264.476H243.137V249.437C243.137 234.658 241.9 223.786 239.426 216.82C240.889 220.939 241.919 226.424 242.516 233.274L201.839 229.344C201.962 231.468 202.023 233.998 202.023 236.937V264.476Z" fill="#FF3A4F"/>
<path d="M202.023 264.476H243.137V249.437C243.137 234.658 241.9 223.786 239.426 216.82C240.889 220.939 241.919 226.424 242.516 233.274L201.839 229.344C201.962 231.468 202.023 233.998 202.023 236.937V264.476Z" fill="#E200FF"/>
<path d="M194.895 218.968C194.894 218.968 194.895 218.968 194.895 218.968C194.865 218.968 194.835 218.968 194.806 218.969C194.77 218.969 194.735 218.969 194.7 218.97" fill="#FF3A4F"/>
<path d="M194.895 218.968C194.894 218.968 194.895 218.968 194.895 218.968C194.865 218.968 194.835 218.968 194.806 218.969C194.77 218.969 194.735 218.969 194.7 218.97" fill="#E200FF"/>
<path d="M194.7 218.97C194.735 218.969 194.77 218.969 194.806 218.969C194.835 218.968 194.865 218.968 194.895 218.968" fill="#FF3A4F"/>
<path d="M194.7 218.97C194.735 218.969 194.77 218.969 194.806 218.969C194.835 218.968 194.865 218.968 194.895 218.968" fill="#E200FF"/>
<path d="M147.404 224.085C147.302 224.624 147.215 225.164 147.141 225.707C146.359 231.371 145.969 239.899 145.969 251.292V297.484C145.969 312.979 147.238 324.6 149.777 332.347C152.316 340.029 157.492 346.052 165.305 350.414C173.117 354.776 183.046 356.957 195.09 356.957C206.678 356.957 216.411 354.385 224.289 349.242C232.232 344.098 237.342 338.109 239.621 331.273C241.965 324.437 243.137 312.848 243.137 296.507V290.355H202.023V310.179C202.023 318.838 201.535 324.339 200.559 326.683C199.647 329.027 197.661 330.199 194.602 330.199C191.411 330.199 189.361 329.027 188.449 326.683C187.538 324.339 187.082 319.326 187.082 311.644V238.207C187.082 230.199 187.538 224.99 188.449 222.582C188.014 223.733 187.682 225.524 187.454 227.955L147.404 224.085Z" fill="#FF3A4F"/>
<path d="M147.404 224.085C147.302 224.624 147.215 225.164 147.141 225.707C146.359 231.371 145.969 239.899 145.969 251.292V297.484C145.969 312.979 147.238 324.6 149.777 332.347C152.316 340.029 157.492 346.052 165.305 350.414C173.117 354.776 183.046 356.957 195.09 356.957C206.678 356.957 216.411 354.385 224.289 349.242C232.232 344.098 237.342 338.109 239.621 331.273C241.965 324.437 243.137 312.848 243.137 296.507V290.355H202.023V310.179C202.023 318.838 201.535 324.339 200.559 326.683C199.647 329.027 197.661 330.199 194.602 330.199C191.411 330.199 189.361 329.027 188.449 326.683C187.538 324.339 187.082 319.326 187.082 311.644V238.207C187.082 230.199 187.538 224.99 188.449 222.582C188.014 223.733 187.682 225.524 187.454 227.955L147.404 224.085Z" fill="#E200FF"/>
<path d="M298.996 321.996V195.531L298.996 238.73L257.883 234.759V353.636H323.996V321.996H298.996Z" fill="#FF3A4F"/>
<path d="M298.996 321.996V195.531L298.996 238.73L257.883 234.759V353.636H323.996V321.996H298.996Z" fill="#E200FF"/>
<path d="M427.512 195.531V301.195C427.512 313.174 427.121 321.605 426.34 326.488C425.559 331.305 423.247 336.286 419.406 341.429C415.565 346.507 410.487 350.381 404.172 353.05C397.922 355.654 390.533 356.957 382.004 356.957C372.564 356.957 364.23 355.394 357.004 352.269C349.777 349.144 344.374 345.075 340.793 340.062C337.212 335.049 335.096 329.776 334.445 324.242C333.794 318.643 333.469 306.924 333.469 289.085V242.061L374.582 246.033V195.531L374.582 314.085C374.582 320.986 374.94 325.414 375.656 327.367C376.438 329.255 377.967 330.199 380.246 330.199C382.85 330.199 384.51 329.157 385.227 327.074C386.008 324.925 386.398 319.912 386.398 312.035V247.174L427.511 251.146L427.512 195.531Z" fill="#FF3A4F"/>
<path d="M427.512 195.531V301.195C427.512 313.174 427.121 321.605 426.34 326.488C425.559 331.305 423.247 336.286 419.406 341.429C415.565 346.507 410.487 350.381 404.172 353.05C397.922 355.654 390.533 356.957 382.004 356.957C372.564 356.957 364.23 355.394 357.004 352.269C349.777 349.144 344.374 345.075 340.793 340.062C337.212 335.049 335.096 329.776 334.445 324.242C333.794 318.643 333.469 306.924 333.469 289.085V242.061L374.582 246.033V195.531L374.582 314.085C374.582 320.986 374.94 325.414 375.656 327.367C376.438 329.255 377.967 330.199 380.246 330.199C382.85 330.199 384.51 329.157 385.227 327.074C386.008 324.925 386.398 319.912 386.398 312.035V247.174L427.511 251.146L427.512 195.531Z" fill="#E200FF"/>
<path d="M501.828 227.171L501.828 258.326L460.715 254.354V353.636H501.828V227.171Z" fill="#FF3A4F"/>
<path d="M501.828 227.171L501.828 258.326L460.715 254.354V353.636H501.828V227.171Z" fill="#E200FF"/>
<path d="M583.371 218.968C583.371 218.968 583.371 218.968 583.371 218.968V218.968Z" fill="#FF3A4F"/>
<path d="M583.371 218.968C583.371 218.968 583.371 218.968 583.371 218.968V218.968Z" fill="#E200FF"/>
<path d="M576.925 222.582C576.014 224.99 575.558 230.199 575.558 238.207V265.448L534.445 261.477V297.484C534.445 312.979 535.715 324.6 538.254 332.347C540.793 340.029 545.969 346.052 553.781 350.414C561.594 354.776 571.522 356.957 583.566 356.957C595.155 356.957 604.888 354.385 612.766 349.242C620.708 344.098 625.819 338.109 628.098 331.273C630.441 324.437 631.613 312.848 631.613 296.507V290.355H590.5V310.179C590.5 318.838 590.012 324.339 589.035 326.683C588.124 329.027 586.138 330.199 583.078 330.199C579.888 330.199 577.837 329.027 576.926 326.683C576.014 324.339 575.559 319.326 575.559 311.644L575.558 238.207C575.558 230.199 576.014 224.99 576.925 222.582Z" fill="#FF3A4F"/>
<path d="M576.925 222.582C576.014 224.99 575.558 230.199 575.558 238.207V265.448L534.445 261.477V297.484C534.445 312.979 535.715 324.6 538.254 332.347C540.793 340.029 545.969 346.052 553.781 350.414C561.594 354.776 571.522 356.957 583.566 356.957C595.155 356.957 604.888 354.385 612.766 349.242C620.708 344.098 625.819 338.109 628.098 331.273C630.441 324.437 631.613 312.848 631.613 296.507V290.355H590.5V310.179C590.5 318.838 590.012 324.339 589.035 326.683C588.124 329.027 586.138 330.199 583.078 330.199C579.888 330.199 577.837 329.027 576.926 326.683C576.014 324.339 575.559 319.326 575.559 311.644L575.558 238.207C575.558 230.199 576.014 224.99 576.925 222.582Z" fill="#E200FF"/>
<path d="M699.777 353.636H740.891V195.531L740.89 281.421L646.359 272.288V353.636H687.473V287.23H699.777V353.636Z" fill="#FF3A4F"/>
<path d="M699.777 353.636H740.891V195.531L740.89 281.421L646.359 272.288V353.636H687.473V287.23H699.777V353.636Z" fill="#E200FF"/>
</g>
</svg>
