<svg width="25" height="25" viewBox="0 0 25 25" fill="none" xmlns="http://www.w3.org/2000/svg">
<path d="M11.1072 0.0884237C5.34975 0.727182 0.718805 5.45399 0.0930014 11.2028C-0.657963 17.5904 3.22202 23.0837 8.7291 24.8722V21.934C8.7291 21.934 8.22845 22.0617 7.60265 22.0617C5.8504 22.0617 5.09943 20.5287 4.97427 19.6344C4.84911 19.1234 4.59879 18.7402 4.22331 18.3569C3.84783 18.2292 3.72266 18.2292 3.72266 18.1014C3.72266 17.8459 4.09815 17.8459 4.22331 17.8459C4.97427 17.8459 5.60008 18.7402 5.8504 19.1234C6.4762 20.1454 7.22717 20.4009 7.60265 20.4009C8.10329 20.4009 8.47877 20.2732 8.7291 20.1454C8.85426 19.2512 9.22974 18.3569 9.9807 17.8459C7.10201 17.2071 4.97427 15.5464 4.97427 12.7358C4.97427 11.3306 5.60008 9.9253 6.4762 8.90329C6.35104 8.64779 6.22588 8.00903 6.22588 7.11477C6.22588 6.60376 6.22588 5.83725 6.60136 5.07074C6.60136 5.07074 8.35361 5.07074 10.1059 6.73151C10.7317 6.47601 11.6078 6.34826 12.4839 6.34826C13.36 6.34826 14.2362 6.47601 14.9871 6.73151C16.6142 5.07074 18.4916 5.07074 18.4916 5.07074C18.742 5.83725 18.742 6.60376 18.742 7.11477C18.742 8.13678 18.6168 8.64779 18.4916 8.90329C19.3678 9.9253 19.9936 11.2028 19.9936 12.7358C19.9936 15.5464 17.8658 17.2071 14.9871 17.8459C15.7381 18.4847 16.2387 19.6344 16.2387 20.7842V25C21.3703 23.3392 25 18.4847 25 12.8636C25 5.19849 18.6168 -0.805838 11.1072 0.0884237Z" fill="white"/>
</svg>
