<svg width="26" height="25" viewBox="0 0 26 25" fill="none" xmlns="http://www.w3.org/2000/svg">
<path d="M12.7293 6.08629C9.11405 6.08629 6.19633 8.95073 6.19633 12.5C6.19633 16.0493 9.11405 18.9137 12.7293 18.9137C16.3446 18.9137 19.2624 16.0493 19.2624 12.5C19.2624 8.95073 16.3446 6.08629 12.7293 6.08629ZM12.7293 16.6684C10.3913 16.6684 8.48336 14.7953 8.48336 12.5C8.48336 10.2047 10.3913 8.33156 12.7293 8.33156C15.0673 8.33156 16.9753 10.2047 16.9753 12.5C16.9753 14.7953 15.0673 16.6684 12.7293 16.6684ZM19.5299 4.32885C18.6858 4.32885 18.0042 4.99806 18.0042 5.82674C18.0042 6.65543 18.6858 7.32463 19.5299 7.32463C20.374 7.32463 21.0557 6.65855 21.0557 5.82674C21.0559 5.62997 21.0166 5.43508 20.9401 5.25323C20.8635 5.07139 20.7511 4.90617 20.6094 4.76702C20.4676 4.62788 20.2993 4.51756 20.1141 4.44237C19.9289 4.36718 19.7304 4.32861 19.5299 4.32885ZM25.4641 12.5C25.4641 10.7738 25.48 9.0633 25.3813 7.34026C25.2826 5.33891 24.8175 3.56271 23.3268 2.09922C21.8329 0.632607 20.0268 0.179176 17.9883 0.082235C16.23 -0.0147055 14.4876 0.000930141 12.7325 0.000930141C10.9743 0.000930141 9.2319 -0.0147055 7.47681 0.082235C5.43823 0.179176 3.62899 0.635734 2.13827 2.09922C0.644375 3.56584 0.182509 5.33891 0.0837648 7.34026C-0.014979 9.06643 0.000947445 10.777 0.000947445 12.5C0.000947445 14.223 -0.014979 15.9367 0.0837648 17.6597C0.182509 19.6611 0.64756 21.4373 2.13827 22.9008C3.63217 24.3674 5.43823 24.8208 7.47681 24.9178C9.23509 25.0147 10.9774 24.9991 12.7325 24.9991C14.4908 24.9991 16.2332 25.0147 17.9883 24.9178C20.0268 24.8208 21.8361 24.3643 23.3268 22.9008C24.8207 21.4342 25.2826 19.6611 25.3813 17.6597C25.4832 15.9367 25.4641 14.2262 25.4641 12.5ZM22.6611 19.8737C22.4285 20.4429 22.1482 20.8682 21.6991 21.306C21.25 21.7469 20.82 22.0221 20.2403 22.2503C18.5648 22.9039 14.5864 22.7569 12.7293 22.7569C10.8723 22.7569 6.89072 22.9039 5.21526 22.2535C4.63554 22.0252 4.20234 21.75 3.7564 21.3091C3.30727 20.8682 3.02697 20.446 2.79444 19.8769C2.1319 18.2289 2.28161 14.3231 2.28161 12.5C2.28161 10.6769 2.1319 6.768 2.79444 5.12314C3.02697 4.55401 3.30727 4.12872 3.7564 3.69092C4.20552 3.25313 4.63554 2.97481 5.21526 2.74654C6.89072 2.0961 10.8723 2.24307 12.7293 2.24307C14.5864 2.24307 18.568 2.0961 20.2434 2.74654C20.8232 2.97481 21.2564 3.25 21.7023 3.69092C22.1514 4.13185 22.4317 4.55401 22.6643 5.12314C23.3268 6.768 23.1771 10.6769 23.1771 12.5C23.1771 14.3231 23.3268 18.2289 22.6611 19.8737Z" fill="white"/>
</svg>
