<svg width="251" height="30" viewBox="0 0 251 30" fill="none" xmlns="http://www.w3.org/2000/svg">
<path d="M41.56 23.14C41.2933 23.14 41.08 23.08 40.92 22.96C40.76 22.84 40.6667 22.68 40.64 22.48C40.6133 22.28 40.6533 22.0533 40.76 21.8L46.18 9.64C46.3133 9.32 46.48 9.09333 46.68 8.96C46.8933 8.82667 47.1267 8.76 47.38 8.76C47.62 8.76 47.84 8.82667 48.04 8.96C48.2533 9.09333 48.4267 9.32 48.56 9.64L53.98 21.8C54.1 22.0533 54.1467 22.2867 54.12 22.5C54.0933 22.7 54.0067 22.86 53.86 22.98C53.7133 23.0867 53.5067 23.14 53.24 23.14C52.9467 23.14 52.7133 23.0667 52.54 22.92C52.3667 22.7733 52.2133 22.5467 52.08 22.24L50.68 19L51.62 19.56H43.1L44.02 19L42.64 22.24C42.5067 22.56 42.36 22.7933 42.2 22.94C42.04 23.0733 41.8267 23.14 41.56 23.14ZM47.34 11.2L44.32 18.36L43.82 17.88H50.88L50.42 18.36L47.38 11.2H47.34ZM59.2866 23.18C58.2466 23.18 57.4599 22.88 56.9266 22.28C56.4066 21.6667 56.1466 20.7867 56.1466 19.64V9.78C56.1466 9.44667 56.2332 9.19333 56.4066 9.02C56.5799 8.84667 56.8266 8.76 57.1466 8.76C57.4666 8.76 57.7132 8.84667 57.8866 9.02C58.0732 9.19333 58.1666 9.44667 58.1666 9.78V19.52C58.1666 20.1867 58.2999 20.6867 58.5666 21.02C58.8466 21.34 59.2466 21.5 59.7666 21.5C59.8866 21.5 59.9932 21.5 60.0866 21.5C60.1799 21.4867 60.2732 21.4733 60.3666 21.46C60.5266 21.4467 60.6399 21.4933 60.7066 21.6C60.7732 21.6933 60.8066 21.8933 60.8066 22.2C60.8066 22.48 60.7466 22.7 60.6266 22.86C60.5066 23.0067 60.3132 23.1 60.0466 23.14C59.9266 23.1533 59.7999 23.16 59.6666 23.16C59.5332 23.1733 59.4066 23.18 59.2866 23.18ZM66.7422 23.18C65.6755 23.18 64.7555 22.98 63.9822 22.58C63.2222 22.1667 62.6289 21.5867 62.2022 20.84C61.7889 20.08 61.5822 19.18 61.5822 18.14C61.5822 17.1267 61.7889 16.24 62.2022 15.48C62.6155 14.72 63.1822 14.1267 63.9022 13.7C64.6222 13.2733 65.4422 13.06 66.3622 13.06C67.0422 13.06 67.6489 13.1733 68.1822 13.4C68.7155 13.6133 69.1689 13.9333 69.5422 14.36C69.9289 14.7733 70.2155 15.28 70.4022 15.88C70.6022 16.48 70.7022 17.1533 70.7022 17.9C70.7022 18.1267 70.6355 18.3 70.5022 18.42C70.3689 18.5267 70.1689 18.58 69.9022 18.58H63.1822V17.34H69.3422L69.0022 17.62C69.0022 16.9533 68.9022 16.3867 68.7022 15.92C68.5155 15.4533 68.2289 15.1 67.8422 14.86C67.4689 14.6067 67.0022 14.48 66.4422 14.48C65.8155 14.48 65.2822 14.6267 64.8422 14.92C64.4155 15.2133 64.0889 15.62 63.8622 16.14C63.6355 16.66 63.5222 17.2667 63.5222 17.96V18.08C63.5222 19.2533 63.7955 20.14 64.3422 20.74C64.9022 21.3267 65.7089 21.62 66.7622 21.62C67.1622 21.62 67.5822 21.5667 68.0222 21.46C68.4755 21.3533 68.9022 21.1733 69.3022 20.92C69.5289 20.7867 69.7289 20.7267 69.9022 20.74C70.0889 20.7533 70.2355 20.8133 70.3422 20.92C70.4622 21.0267 70.5355 21.16 70.5622 21.32C70.5889 21.48 70.5622 21.6467 70.4822 21.82C70.4022 21.98 70.2622 22.1267 70.0622 22.26C69.6089 22.5667 69.0822 22.8 68.4822 22.96C67.8822 23.1067 67.3022 23.18 66.7422 23.18ZM73.1663 23.12C72.9263 23.12 72.7263 23.0533 72.5663 22.92C72.4196 22.7733 72.3396 22.5933 72.3263 22.38C72.3263 22.1667 72.4196 21.9333 72.6063 21.68L75.9863 17.46V18.46L72.8263 14.52C72.6129 14.28 72.5129 14.0533 72.5263 13.84C72.5396 13.6133 72.6263 13.4333 72.7863 13.3C72.9463 13.1667 73.1396 13.1 73.3663 13.1C73.6196 13.1 73.8263 13.1467 73.9863 13.24C74.1596 13.32 74.3196 13.46 74.4663 13.66L77.1263 17.04H76.4062L79.0863 13.66C79.2329 13.46 79.3863 13.32 79.5463 13.24C79.7196 13.1467 79.9263 13.1 80.1663 13.1C80.4063 13.1 80.5996 13.1733 80.7463 13.32C80.9063 13.4533 80.9863 13.6333 80.9863 13.86C80.9996 14.0733 80.9063 14.3 80.7063 14.54L77.5463 18.42V17.52L80.9263 21.68C81.1263 21.92 81.2196 22.1533 81.2063 22.38C81.2063 22.5933 81.1263 22.7733 80.9663 22.92C80.8063 23.0533 80.6063 23.12 80.3663 23.12C80.1263 23.12 79.9196 23.0733 79.7463 22.98C79.5863 22.8867 79.4263 22.7467 79.2663 22.56L76.4062 18.96H77.0863L74.2463 22.56C74.0996 22.7333 73.9396 22.8733 73.7663 22.98C73.6063 23.0733 73.4063 23.12 73.1663 23.12ZM86.5517 23.18C85.8717 23.18 85.2584 23.0467 84.7117 22.78C84.1784 22.5133 83.7584 22.1533 83.4517 21.7C83.1451 21.2467 82.9917 20.7333 82.9917 20.16C82.9917 19.44 83.1717 18.8733 83.5317 18.46C83.9051 18.0333 84.5117 17.7333 85.3517 17.56C86.2051 17.3733 87.3517 17.28 88.7917 17.28H89.7317V18.52H88.8117C87.8517 18.52 87.0917 18.5667 86.5317 18.66C85.9717 18.7533 85.5717 18.9133 85.3317 19.14C85.1051 19.3533 84.9917 19.6533 84.9917 20.04C84.9917 20.5467 85.1651 20.96 85.5117 21.28C85.8584 21.5867 86.3384 21.74 86.9517 21.74C87.4451 21.74 87.8784 21.6267 88.2517 21.4C88.6251 21.16 88.9184 20.84 89.1317 20.44C89.3584 20.04 89.4717 19.58 89.4717 19.06V16.76C89.4717 16 89.3117 15.4533 88.9917 15.12C88.6717 14.7867 88.1451 14.62 87.4117 14.62C86.9851 14.62 86.5384 14.6733 86.0717 14.78C85.6184 14.8867 85.1451 15.0667 84.6517 15.32C84.4251 15.4267 84.2317 15.46 84.0717 15.42C83.9117 15.38 83.7851 15.2933 83.6917 15.16C83.5984 15.0133 83.5451 14.86 83.5317 14.7C83.5317 14.5267 83.5717 14.36 83.6517 14.2C83.7451 14.04 83.8984 13.92 84.1117 13.84C84.6984 13.56 85.2784 13.36 85.8517 13.24C86.4251 13.12 86.9651 13.06 87.4717 13.06C88.3651 13.06 89.0984 13.2 89.6717 13.48C90.2584 13.76 90.6917 14.1867 90.9717 14.76C91.2517 15.3333 91.3917 16.0733 91.3917 16.98V22.12C91.3917 22.44 91.3117 22.6933 91.1517 22.88C90.9917 23.0533 90.7584 23.14 90.4517 23.14C90.1584 23.14 89.9251 23.0533 89.7517 22.88C89.5784 22.6933 89.4917 22.44 89.4917 22.12V20.82H89.6717C89.5651 21.3133 89.3651 21.74 89.0717 22.1C88.7917 22.4467 88.4384 22.7133 88.0117 22.9C87.5851 23.0867 87.0984 23.18 86.5517 23.18ZM100.787 23C100.427 23 100.147 22.9067 99.9473 22.72C99.7607 22.52 99.6673 22.24 99.6673 21.88V10.02C99.6673 9.66 99.7607 9.38667 99.9473 9.2C100.147 9 100.427 8.9 100.787 8.9H104.647C106.967 8.9 108.754 9.50667 110.007 10.72C111.274 11.92 111.907 13.66 111.907 15.94C111.907 17.0733 111.747 18.08 111.427 18.96C111.107 19.84 110.634 20.58 110.007 21.18C109.394 21.7667 108.641 22.22 107.747 22.54C106.854 22.8467 105.821 23 104.647 23H100.787ZM101.747 21.26H104.527C105.407 21.26 106.167 21.1533 106.807 20.94C107.461 20.7133 108.007 20.38 108.447 19.94C108.887 19.5 109.214 18.9467 109.427 18.28C109.641 17.6133 109.747 16.8333 109.747 15.94C109.747 14.1667 109.307 12.84 108.427 11.96C107.561 11.08 106.261 10.64 104.527 10.64H101.747V21.26ZM119.047 23.18C117.98 23.18 117.06 22.98 116.287 22.58C115.527 22.1667 114.934 21.5867 114.507 20.84C114.094 20.08 113.887 19.18 113.887 18.14C113.887 17.1267 114.094 16.24 114.507 15.48C114.92 14.72 115.487 14.1267 116.207 13.7C116.927 13.2733 117.747 13.06 118.667 13.06C119.347 13.06 119.954 13.1733 120.487 13.4C121.02 13.6133 121.474 13.9333 121.847 14.36C122.234 14.7733 122.52 15.28 122.707 15.88C122.907 16.48 123.007 17.1533 123.007 17.9C123.007 18.1267 122.94 18.3 122.807 18.42C122.674 18.5267 122.474 18.58 122.207 18.58H115.487V17.34H121.647L121.307 17.62C121.307 16.9533 121.207 16.3867 121.007 15.92C120.82 15.4533 120.534 15.1 120.147 14.86C119.774 14.6067 119.307 14.48 118.747 14.48C118.12 14.48 117.587 14.6267 117.147 14.92C116.72 15.2133 116.394 15.62 116.167 16.14C115.94 16.66 115.827 17.2667 115.827 17.96V18.08C115.827 19.2533 116.1 20.14 116.647 20.74C117.207 21.3267 118.014 21.62 119.067 21.62C119.467 21.62 119.887 21.5667 120.327 21.46C120.78 21.3533 121.207 21.1733 121.607 20.92C121.834 20.7867 122.034 20.7267 122.207 20.74C122.394 20.7533 122.54 20.8133 122.647 20.92C122.767 21.0267 122.84 21.16 122.867 21.32C122.894 21.48 122.867 21.6467 122.787 21.82C122.707 21.98 122.567 22.1267 122.367 22.26C121.914 22.5667 121.387 22.8 120.787 22.96C120.187 23.1067 119.607 23.18 119.047 23.18ZM128.852 23.14C128.572 23.14 128.326 23.0667 128.112 22.92C127.912 22.7733 127.746 22.5467 127.612 22.24L124.272 14.48C124.166 14.24 124.126 14.0133 124.152 13.8C124.179 13.5867 124.279 13.42 124.452 13.3C124.626 13.1667 124.859 13.1 125.152 13.1C125.406 13.1 125.606 13.16 125.752 13.28C125.899 13.4 126.032 13.6067 126.152 13.9L129.172 21.34H128.612L131.692 13.9C131.812 13.6067 131.946 13.4 132.092 13.28C132.252 13.16 132.472 13.1 132.752 13.1C132.992 13.1 133.179 13.1667 133.312 13.3C133.459 13.42 133.546 13.5867 133.572 13.8C133.612 14 133.579 14.22 133.472 14.46L130.092 22.24C129.972 22.5467 129.806 22.7733 129.592 22.92C129.379 23.0667 129.132 23.14 128.852 23.14ZM139.867 23.18C138.801 23.18 137.881 22.98 137.107 22.58C136.347 22.1667 135.754 21.5867 135.327 20.84C134.914 20.08 134.707 19.18 134.707 18.14C134.707 17.1267 134.914 16.24 135.327 15.48C135.741 14.72 136.307 14.1267 137.027 13.7C137.747 13.2733 138.567 13.06 139.487 13.06C140.167 13.06 140.774 13.1733 141.307 13.4C141.841 13.6133 142.294 13.9333 142.667 14.36C143.054 14.7733 143.341 15.28 143.527 15.88C143.727 16.48 143.827 17.1533 143.827 17.9C143.827 18.1267 143.761 18.3 143.627 18.42C143.494 18.5267 143.294 18.58 143.027 18.58H136.307V17.34H142.467L142.127 17.62C142.127 16.9533 142.027 16.3867 141.827 15.92C141.641 15.4533 141.354 15.1 140.967 14.86C140.594 14.6067 140.127 14.48 139.567 14.48C138.941 14.48 138.407 14.6267 137.967 14.92C137.541 15.2133 137.214 15.62 136.987 16.14C136.761 16.66 136.647 17.2667 136.647 17.96V18.08C136.647 19.2533 136.921 20.14 137.467 20.74C138.027 21.3267 138.834 21.62 139.887 21.62C140.287 21.62 140.707 21.5667 141.147 21.46C141.601 21.3533 142.027 21.1733 142.427 20.92C142.654 20.7867 142.854 20.7267 143.027 20.74C143.214 20.7533 143.361 20.8133 143.467 20.92C143.587 21.0267 143.661 21.16 143.687 21.32C143.714 21.48 143.687 21.6467 143.607 21.82C143.527 21.98 143.387 22.1267 143.187 22.26C142.734 22.5667 142.207 22.8 141.607 22.96C141.007 23.1067 140.427 23.18 139.867 23.18ZM149.169 23.18C148.129 23.18 147.343 22.88 146.809 22.28C146.289 21.6667 146.029 20.7867 146.029 19.64V9.78C146.029 9.44667 146.116 9.19333 146.289 9.02C146.463 8.84667 146.709 8.76 147.029 8.76C147.349 8.76 147.596 8.84667 147.769 9.02C147.956 9.19333 148.049 9.44667 148.049 9.78V19.52C148.049 20.1867 148.183 20.6867 148.449 21.02C148.729 21.34 149.129 21.5 149.649 21.5C149.769 21.5 149.876 21.5 149.969 21.5C150.063 21.4867 150.156 21.4733 150.249 21.46C150.409 21.4467 150.523 21.4933 150.589 21.6C150.656 21.6933 150.689 21.8933 150.689 22.2C150.689 22.48 150.629 22.7 150.509 22.86C150.389 23.0067 150.196 23.1 149.929 23.14C149.809 23.1533 149.683 23.16 149.549 23.16C149.416 23.1733 149.289 23.18 149.169 23.18ZM156.285 23.18C155.298 23.18 154.445 22.9733 153.725 22.56C153.018 22.1467 152.465 21.56 152.065 20.8C151.665 20.04 151.465 19.1467 151.465 18.12C151.465 17.3333 151.578 16.6333 151.805 16.02C152.032 15.4067 152.352 14.88 152.765 14.44C153.192 13.9867 153.698 13.6467 154.285 13.42C154.885 13.18 155.552 13.06 156.285 13.06C157.258 13.06 158.098 13.2667 158.805 13.68C159.525 14.0933 160.085 14.68 160.485 15.44C160.885 16.1867 161.085 17.08 161.085 18.12C161.085 18.8933 160.972 19.5933 160.745 20.22C160.518 20.8467 160.192 21.38 159.765 21.82C159.352 22.26 158.845 22.6 158.245 22.84C157.658 23.0667 157.005 23.18 156.285 23.18ZM156.285 21.62C156.832 21.62 157.312 21.4867 157.725 21.22C158.138 20.9533 158.458 20.56 158.685 20.04C158.925 19.52 159.045 18.88 159.045 18.12C159.045 16.9733 158.792 16.1067 158.285 15.52C157.778 14.9333 157.112 14.64 156.285 14.64C155.725 14.64 155.238 14.7733 154.825 15.04C154.412 15.2933 154.085 15.68 153.845 16.2C153.618 16.72 153.505 17.36 153.505 18.12C153.505 19.2533 153.758 20.12 154.265 20.72C154.772 21.32 155.445 21.62 156.285 21.62ZM164.354 26.74C164.034 26.74 163.787 26.6533 163.614 26.48C163.44 26.3067 163.354 26.0533 163.354 25.72V14.12C163.354 13.7867 163.44 13.5333 163.614 13.36C163.787 13.1867 164.027 13.1 164.334 13.1C164.654 13.1 164.9 13.1867 165.074 13.36C165.247 13.5333 165.334 13.7867 165.334 14.12V15.86L165.114 15.44C165.327 14.72 165.747 14.1467 166.374 13.72C167 13.28 167.74 13.06 168.594 13.06C169.46 13.06 170.214 13.2667 170.854 13.68C171.507 14.0933 172.007 14.6733 172.354 15.42C172.714 16.1667 172.894 17.0667 172.894 18.12C172.894 19.1467 172.714 20.0467 172.354 20.82C172.007 21.58 171.514 22.1667 170.874 22.58C170.234 22.98 169.474 23.18 168.594 23.18C167.754 23.18 167.02 22.9667 166.394 22.54C165.767 22.1133 165.347 21.5467 165.134 20.84H165.374V25.72C165.374 26.0533 165.28 26.3067 165.094 26.48C164.92 26.6533 164.674 26.74 164.354 26.74ZM168.094 21.62C168.654 21.62 169.14 21.4867 169.554 21.22C169.967 20.9533 170.287 20.56 170.514 20.04C170.74 19.52 170.854 18.88 170.854 18.12C170.854 16.9733 170.6 16.1067 170.094 15.52C169.6 14.9333 168.934 14.64 168.094 14.64C167.547 14.64 167.06 14.7733 166.634 15.04C166.22 15.2933 165.9 15.68 165.674 16.2C165.447 16.72 165.334 17.36 165.334 18.12C165.334 19.2533 165.587 20.12 166.094 20.72C166.6 21.32 167.267 21.62 168.094 21.62ZM179.75 23.18C178.683 23.18 177.763 22.98 176.99 22.58C176.23 22.1667 175.637 21.5867 175.21 20.84C174.797 20.08 174.59 19.18 174.59 18.14C174.59 17.1267 174.797 16.24 175.21 15.48C175.623 14.72 176.19 14.1267 176.91 13.7C177.63 13.2733 178.45 13.06 179.37 13.06C180.05 13.06 180.657 13.1733 181.19 13.4C181.723 13.6133 182.177 13.9333 182.55 14.36C182.937 14.7733 183.223 15.28 183.41 15.88C183.61 16.48 183.71 17.1533 183.71 17.9C183.71 18.1267 183.643 18.3 183.51 18.42C183.377 18.5267 183.177 18.58 182.91 18.58H176.19V17.34H182.35L182.01 17.62C182.01 16.9533 181.91 16.3867 181.71 15.92C181.523 15.4533 181.237 15.1 180.85 14.86C180.477 14.6067 180.01 14.48 179.45 14.48C178.823 14.48 178.29 14.6267 177.85 14.92C177.423 15.2133 177.097 15.62 176.87 16.14C176.643 16.66 176.53 17.2667 176.53 17.96V18.08C176.53 19.2533 176.803 20.14 177.35 20.74C177.91 21.3267 178.717 21.62 179.77 21.62C180.17 21.62 180.59 21.5667 181.03 21.46C181.483 21.3533 181.91 21.1733 182.31 20.92C182.537 20.7867 182.737 20.7267 182.91 20.74C183.097 20.7533 183.243 20.8133 183.35 20.92C183.47 21.0267 183.543 21.16 183.57 21.32C183.597 21.48 183.57 21.6467 183.49 21.82C183.41 21.98 183.27 22.1267 183.07 22.26C182.617 22.5667 182.09 22.8 181.49 22.96C180.89 23.1067 180.31 23.18 179.75 23.18ZM186.932 23.14C186.599 23.14 186.346 23.0533 186.172 22.88C185.999 22.6933 185.912 22.44 185.912 22.12V14.12C185.912 13.7867 185.999 13.5333 186.172 13.36C186.346 13.1867 186.586 13.1 186.892 13.1C187.212 13.1 187.452 13.1867 187.612 13.36C187.786 13.5333 187.872 13.7867 187.872 14.12V15.58H187.672C187.886 14.78 188.279 14.1733 188.852 13.76C189.426 13.3467 190.159 13.1067 191.052 13.04C191.292 13.0267 191.479 13.0867 191.612 13.22C191.759 13.3533 191.839 13.56 191.852 13.84C191.879 14.12 191.819 14.3467 191.672 14.52C191.526 14.68 191.299 14.7733 190.992 14.8L190.612 14.84C189.746 14.92 189.086 15.1933 188.632 15.66C188.179 16.1267 187.952 16.7667 187.952 17.58V22.12C187.952 22.44 187.866 22.6933 187.692 22.88C187.532 23.0533 187.279 23.14 186.932 23.14ZM196.695 23.18C196.109 23.18 195.502 23.1133 194.875 22.98C194.262 22.8467 193.695 22.62 193.175 22.3C193.002 22.18 192.882 22.0467 192.815 21.9C192.749 21.7533 192.722 21.6067 192.735 21.46C192.762 21.3 192.822 21.1667 192.915 21.06C193.022 20.94 193.149 20.8667 193.295 20.84C193.455 20.8133 193.622 20.8467 193.795 20.94C194.315 21.2333 194.815 21.44 195.295 21.56C195.775 21.6667 196.249 21.72 196.715 21.72C197.422 21.72 197.955 21.5933 198.315 21.34C198.675 21.0867 198.855 20.7467 198.855 20.32C198.855 19.9733 198.735 19.7067 198.495 19.52C198.255 19.32 197.895 19.1667 197.415 19.06L195.515 18.68C194.689 18.5067 194.062 18.2 193.635 17.76C193.209 17.32 192.995 16.76 192.995 16.08C192.995 15.4667 193.162 14.9333 193.495 14.48C193.829 14.0267 194.295 13.68 194.895 13.44C195.495 13.1867 196.189 13.06 196.975 13.06C197.562 13.06 198.115 13.1333 198.635 13.28C199.155 13.4267 199.635 13.6467 200.075 13.94C200.249 14.0333 200.362 14.16 200.415 14.32C200.469 14.4667 200.475 14.6133 200.435 14.76C200.409 14.9067 200.342 15.04 200.235 15.16C200.129 15.2667 199.995 15.3333 199.835 15.36C199.689 15.3733 199.522 15.3333 199.335 15.24C198.935 14.9867 198.535 14.8067 198.135 14.7C197.749 14.5933 197.362 14.54 196.975 14.54C196.269 14.54 195.735 14.6733 195.375 14.94C195.029 15.1933 194.855 15.54 194.855 15.98C194.855 16.3133 194.962 16.5867 195.175 16.8C195.389 17.0133 195.722 17.1667 196.175 17.26L198.075 17.64C198.942 17.8133 199.595 18.1067 200.035 18.52C200.489 18.9333 200.715 19.4933 200.715 20.2C200.715 21.12 200.349 21.8467 199.615 22.38C198.882 22.9133 197.909 23.18 196.695 23.18ZM213.156 23.18C212.543 23.18 211.943 23.1333 211.356 23.04C210.77 22.9467 210.216 22.8067 209.696 22.62C209.176 22.42 208.71 22.18 208.296 21.9C208.096 21.7533 207.956 21.5867 207.876 21.4C207.81 21.2133 207.79 21.0333 207.816 20.86C207.856 20.6733 207.936 20.5133 208.056 20.38C208.176 20.2467 208.323 20.1667 208.496 20.14C208.67 20.1 208.863 20.1533 209.076 20.3C209.676 20.6867 210.31 20.9733 210.976 21.16C211.643 21.3333 212.37 21.42 213.156 21.42C214.29 21.42 215.123 21.22 215.656 20.82C216.203 20.4067 216.476 19.8733 216.476 19.22C216.476 18.6867 216.283 18.2667 215.896 17.96C215.51 17.64 214.863 17.3867 213.956 17.2L211.816 16.76C210.55 16.4933 209.603 16.0533 208.976 15.44C208.363 14.8267 208.056 14 208.056 12.96C208.056 12.3333 208.183 11.76 208.436 11.24C208.703 10.72 209.07 10.2733 209.536 9.9C210.003 9.51333 210.563 9.22 211.216 9.02C211.87 8.82 212.583 8.72 213.356 8.72C214.183 8.72 214.956 8.82667 215.676 9.04C216.41 9.25333 217.063 9.58 217.636 10.02C217.81 10.14 217.923 10.2933 217.976 10.48C218.043 10.6533 218.056 10.8267 218.016 11C217.99 11.1733 217.916 11.32 217.796 11.44C217.676 11.56 217.523 11.6333 217.336 11.66C217.15 11.6733 216.943 11.6067 216.716 11.46C216.196 11.1133 215.663 10.8667 215.116 10.72C214.583 10.56 213.99 10.48 213.336 10.48C212.683 10.48 212.11 10.58 211.616 10.78C211.136 10.98 210.763 11.26 210.496 11.62C210.243 11.98 210.116 12.4067 210.116 12.9C210.116 13.46 210.296 13.9067 210.656 14.24C211.016 14.5733 211.616 14.8267 212.456 15L214.576 15.44C215.91 15.72 216.903 16.1533 217.556 16.74C218.21 17.3267 218.536 18.1067 218.536 19.08C218.536 19.7067 218.41 20.2733 218.156 20.78C217.903 21.2733 217.543 21.7 217.076 22.06C216.61 22.42 216.043 22.7 215.376 22.9C214.723 23.0867 213.983 23.18 213.156 23.18ZM221.938 23.14C221.604 23.14 221.344 23.0467 221.158 22.86C220.984 22.6733 220.898 22.4133 220.898 22.08V9.96C220.898 9.61333 220.991 9.35333 221.178 9.18C221.364 8.99333 221.624 8.9 221.958 8.9H226.738C228.258 8.9 229.431 9.26 230.258 9.98C231.084 10.7 231.498 11.72 231.498 13.04C231.498 13.8933 231.311 14.6267 230.938 15.24C230.564 15.8533 230.018 16.32 229.298 16.64C228.591 16.96 227.738 17.12 226.738 17.12L226.918 16.84H227.438C227.971 16.84 228.431 16.9733 228.818 17.24C229.218 17.5067 229.578 17.9333 229.898 18.52L231.618 21.72C231.751 21.96 231.811 22.1933 231.798 22.42C231.798 22.6333 231.718 22.8067 231.558 22.94C231.411 23.0733 231.198 23.14 230.918 23.14C230.624 23.14 230.384 23.08 230.198 22.96C230.024 22.8267 229.864 22.6333 229.718 22.38L227.618 18.5C227.338 17.98 227.018 17.6333 226.658 17.46C226.298 17.2733 225.824 17.18 225.238 17.18H222.978V22.08C222.978 22.4133 222.891 22.6733 222.718 22.86C222.544 23.0467 222.284 23.14 221.938 23.14ZM222.978 15.62H226.398C227.411 15.62 228.178 15.4067 228.698 14.98C229.218 14.5533 229.478 13.92 229.478 13.08C229.478 12.2533 229.218 11.6267 228.698 11.2C228.178 10.7733 227.411 10.56 226.398 10.56H222.978V15.62ZM235.433 23.14C235.126 23.14 234.886 23.0533 234.713 22.88C234.553 22.7067 234.473 22.4667 234.473 22.16V9.74C234.473 9.42 234.56 9.18 234.733 9.02C234.906 8.84667 235.14 8.76 235.433 8.76C235.713 8.76 235.926 8.81333 236.073 8.92C236.233 9.01333 236.38 9.18667 236.513 9.44L241.753 19.22H241.133L246.353 9.44C246.486 9.18667 246.626 9.01333 246.773 8.92C246.92 8.81333 247.133 8.76 247.413 8.76C247.706 8.76 247.933 8.84667 248.093 9.02C248.253 9.18 248.333 9.42 248.333 9.74V22.16C248.333 22.4667 248.253 22.7067 248.093 22.88C247.946 23.0533 247.72 23.14 247.413 23.14C247.106 23.14 246.873 23.0533 246.713 22.88C246.553 22.7067 246.473 22.4667 246.473 22.16V11.84H246.913L242.273 20.42C242.166 20.62 242.053 20.7667 241.933 20.86C241.813 20.9533 241.646 21 241.433 21C241.22 21 241.046 20.9533 240.913 20.86C240.78 20.7533 240.66 20.6067 240.553 20.42L235.873 11.82H236.353V22.16C236.353 22.4667 236.273 22.7067 236.113 22.88C235.966 23.0533 235.74 23.14 235.433 23.14Z" fill="white"/>
<path fill-rule="evenodd" clip-rule="evenodd" d="M15 0C6.71586 0 0 6.7155 0 15C0 22.6057 5.66158 28.8893 13.0002 29.8673V26.8447C13.0002 25.9928 12.463 25.2262 11.6548 24.9555C7.42046 23.5327 4.39119 19.4858 4.503 14.7472C4.63882 8.97825 9.33842 4.44225 15.1081 4.50075C20.8574 4.55925 25.5 9.23775 25.5 15.0007C25.5 15.5407 25.458 16.0807 25.3769 16.614C24.0915 25.0823 13.0618 29.8418 13.0017 29.868C13.6553 29.9543 14.3224 30 15 30C23.2841 30 30 23.2845 30 15C30 6.7155 23.2841 0 15 0Z" fill="url(#paint0_linear_2_26)"/>
<defs>
<linearGradient id="paint0_linear_2_26" x1="0" y1="15" x2="30" y2="15" gradientUnits="userSpaceOnUse">
<stop stop-color="#00B5FF"/>
<stop offset="1" stop-color="#00CDC1"/>
</linearGradient>
</defs>
</svg>
