<svg width="723" height="661" viewBox="0 0 723 661" fill="none" xmlns="http://www.w3.org/2000/svg">
<g filter="url(#filter0_d_155_5)">
<path d="M393.262 505.422C376.074 505.422 359.961 502.785 344.922 497.512C329.883 492.238 316.504 484.426 304.785 474.074C293.066 463.918 283.789 450.734 276.953 434.523C270.117 418.117 266.699 399.562 266.699 378.859C266.699 356.008 270.703 334.816 278.711 315.285C286.914 295.559 297.852 279.055 311.523 265.773C325.195 252.297 341.113 241.848 359.277 234.426C377.637 226.809 396.875 223 416.992 223C452.93 223 481.641 233.938 503.125 255.812C524.609 277.688 535.352 306.301 535.352 341.652C535.352 356.496 533.008 369.973 528.32 382.082C523.828 394.191 517.871 403.957 510.449 411.379C503.223 418.801 495.215 424.562 486.426 428.664C477.832 432.57 469.141 434.523 460.352 434.523C450.586 434.523 442.188 432.277 435.156 427.785C428.32 423.293 424.023 416.945 422.266 408.742C422.266 408.547 422.168 408.449 421.973 408.449C421.777 408.449 421.582 408.547 421.387 408.742C416.504 415.383 410.254 420.852 402.637 425.148C395.02 429.25 387.598 431.301 380.371 431.301C367.48 431.301 356.934 426.809 348.73 417.824C340.723 408.645 336.719 396.34 336.719 380.91C336.719 367.629 339.551 354.738 345.215 342.238C351.074 329.543 359.277 319.191 369.824 311.184C380.371 302.98 391.895 298.879 404.395 298.879C416.309 298.879 425 304.348 430.469 315.285C430.469 315.48 430.566 315.578 430.762 315.578C430.957 315.578 431.152 315.48 431.348 315.285L431.641 314.113C433.008 310.402 435.254 307.375 438.379 305.031C441.699 302.688 445.312 301.516 449.219 301.516H449.512C453.223 301.516 456.152 302.883 458.301 305.617C460.059 307.766 460.938 310.012 460.938 312.355C460.938 313.137 460.84 314.016 460.645 314.992L448.633 374.758C447.266 380.031 446.582 384.621 446.582 388.527C446.582 400.637 452.637 406.691 464.746 406.691C475.684 406.691 485.449 400.832 494.043 389.113C502.637 377.199 506.934 361.867 506.934 343.117C506.934 330.227 505.078 318.312 501.367 307.375C497.656 296.242 492.09 286.379 484.668 277.785C477.441 269.191 467.676 262.453 455.371 257.57C443.262 252.688 429.297 250.246 413.477 250.246C398.828 250.246 384.473 253.371 370.41 259.621C356.543 265.676 344.141 274.074 333.203 284.816C322.266 295.559 313.477 309.035 306.836 325.246C300.195 341.457 296.875 358.938 296.875 377.688C296.875 393.898 299.512 408.547 304.785 421.633C310.059 434.523 317.285 444.973 326.465 452.98C335.645 461.184 346.191 467.434 358.105 471.73C370.215 476.027 383.203 478.176 397.07 478.176C410.547 478.176 424.023 475.441 437.5 469.973C439.258 469.387 441.016 469.094 442.773 469.094C444.336 469.094 445.898 469.387 447.461 469.973C450.781 471.145 453.125 473.391 454.492 476.711C455.273 478.469 455.664 480.324 455.664 482.277C455.664 483.84 455.371 485.5 454.785 487.258C453.418 490.773 450.977 493.312 447.461 494.875C431.055 501.906 412.988 505.422 393.262 505.422ZM389.746 403.469C396.973 403.469 404.688 398.586 412.891 388.82C414.062 387.453 414.844 385.793 415.234 383.84L422.852 341.652C423.047 341.066 423.145 340.578 423.145 340.188C423.145 338.625 422.656 337.355 421.68 336.379C417.578 330.52 412.207 327.59 405.566 327.59C398.73 327.59 392.48 330.422 386.816 336.086C381.152 341.555 376.953 348.098 374.219 355.715C371.484 363.332 370.117 370.949 370.117 378.566C370.117 386.77 371.875 393.02 375.391 397.316C378.906 401.418 383.691 403.469 389.746 403.469Z" fill="url(#paint0_linear_155_5)"/>
</g>
<rect x="523" y="173" width="200" height="60" rx="10" fill="url(#paint1_linear_155_5)"/>
<path fill-rule="evenodd" clip-rule="evenodd" d="M563.455 198.909C563.455 200.356 562.88 201.743 561.857 202.766C560.834 203.789 559.447 204.364 558 204.364C556.554 204.364 555.166 203.789 554.143 202.766C553.121 201.743 552.546 200.356 552.546 198.909C552.546 197.463 553.121 196.075 554.143 195.052C555.166 194.029 556.554 193.455 558 193.455C559.447 193.455 560.834 194.029 561.857 195.052C562.88 196.075 563.455 197.463 563.455 198.909ZM560.728 198.909C560.728 199.632 560.44 200.326 559.929 200.838C559.417 201.349 558.724 201.636 558 201.636C557.277 201.636 556.583 201.349 556.072 200.838C555.561 200.326 555.273 199.632 555.273 198.909C555.273 198.186 555.561 197.492 556.072 196.981C556.583 196.469 557.277 196.182 558 196.182C558.724 196.182 559.417 196.469 559.929 196.981C560.44 197.492 560.728 198.186 560.728 198.909Z" fill="white" fill-opacity="0.8"/>
<path fill-rule="evenodd" clip-rule="evenodd" d="M558 188C549.716 188 543 194.716 543 203C543 211.284 549.716 218 558 218C566.284 218 573 211.284 573 203C573 194.716 566.284 188 558 188ZM545.727 203C545.727 205.85 546.7 208.474 548.329 210.557C549.473 209.054 550.95 207.836 552.643 206.999C554.336 206.161 556.2 205.726 558.089 205.727C559.953 205.726 561.794 206.149 563.469 206.967C565.145 207.784 566.613 208.973 567.76 210.443C568.941 208.893 569.737 207.084 570.08 205.166C570.424 203.248 570.306 201.276 569.736 199.412C569.166 197.549 568.161 195.848 566.803 194.45C565.445 193.052 563.774 191.998 561.928 191.374C560.082 190.751 558.113 190.576 556.186 190.864C554.259 191.152 552.428 191.894 550.845 193.031C549.261 194.167 547.972 195.663 547.082 197.397C546.192 199.131 545.728 201.051 545.727 203ZM558 215.273C555.183 215.277 552.45 214.308 550.265 212.529C551.145 211.27 552.315 210.242 553.678 209.533C555.04 208.823 556.553 208.453 558.089 208.455C559.605 208.453 561.1 208.814 562.449 209.506C563.799 210.199 564.963 211.203 565.846 212.436C563.644 214.273 560.867 215.277 558 215.273Z" fill="white" fill-opacity="0.8"/>
<rect x="593" y="192" width="50" height="4" rx="2" fill="white" fill-opacity="0.8"/>
<rect x="593" y="203" width="90" height="5" rx="2.5" fill="white" fill-opacity="0.8"/>
<rect x="593" y="213" width="90" height="5" rx="2.5" fill="white" fill-opacity="0.8"/>
<path d="M696 188.5V174.616C696 174.155 696 173 696 173C696 173 697.156 173.001 697.616 173H706.385C706.845 173 707.5 173 708 173C708 173.5 708.001 174.156 708 174.616V188.5L702 185.923L696 188.5Z" fill="#FF0000"/>
<rect x="69" y="480" width="200" height="60" rx="10" fill="url(#paint2_linear_155_5)"/>
<rect x="145" y="502" width="30" height="4" rx="2" fill="white" fill-opacity="0.8"/>
<rect x="180" y="502" width="20" height="4" rx="2" fill="white" fill-opacity="0.8"/>
<rect x="229" y="514" width="20" height="4" rx="2" fill="white" fill-opacity="0.8"/>
<rect x="219" y="502" width="30" height="4" rx="2" fill="black" fill-opacity="0.8"/>
<path fill-rule="evenodd" clip-rule="evenodd" d="M90.105 499.887C90 500.439 90 501.102 90 502.425V513C90 518.656 90 521.485 91.758 523.242C93.5145 525 96.3435 525 102 525H108C113.656 525 116.485 525 118.242 523.242C120 521.485 120 518.656 120 513V509.697C120 505.749 120 503.774 118.845 502.491C118.739 502.373 118.627 502.26 118.509 502.154C117.227 501 115.251 501 111.303 501H110.742C109.013 501 108.147 501 107.34 500.771C106.897 500.644 106.47 500.467 106.068 500.242C105.336 499.836 104.724 499.222 103.5 498L102.675 497.175C102.264 496.764 102.06 496.56 101.844 496.38C100.915 495.61 99.7754 495.138 98.574 495.025C98.295 495 98.004 495 97.425 495C96.1005 495 95.439 495 94.887 495.105C93.7018 495.329 92.6115 495.905 91.7585 496.757C90.9054 497.61 90.3292 498.702 90.105 499.887ZM105.375 507C105.375 506.702 105.494 506.415 105.705 506.205C105.915 505.994 106.202 505.875 106.5 505.875H114C114.298 505.875 114.585 505.994 114.795 506.205C115.006 506.415 115.125 506.702 115.125 507C115.125 507.298 115.006 507.585 114.795 507.795C114.585 508.006 114.298 508.125 114 508.125H106.5C106.202 508.125 105.915 508.006 105.705 507.795C105.494 507.585 105.375 507.298 105.375 507Z" fill="#F8F8F8" fill-opacity="0.8"/>
<circle cx="146.5" cy="516.5" r="1.5" fill="black"/>
<circle cx="150.5" cy="516.5" r="1.5" fill="black"/>
<circle cx="154.5" cy="516.5" r="1.5" fill="black"/>
<circle cx="158.5" cy="516.5" r="1.5" fill="black"/>
<circle cx="162.5" cy="516.5" r="1.5" fill="black"/>
<circle cx="175.5" cy="516.5" r="1.5" fill="black"/>
<circle cx="179.5" cy="516.5" r="1.5" fill="black"/>
<circle cx="183.5" cy="516.5" r="1.5" fill="black"/>
<circle cx="187.5" cy="516.5" r="1.5" fill="black"/>
<circle cx="191.5" cy="516.5" r="1.5" fill="black"/>
<g filter="url(#filter1_di_155_5)">
<circle cx="196" cy="196" r="51" fill="url(#paint3_linear_155_5)"/>
</g>
<path d="M205.835 177.671C206.551 178.244 206.909 178.996 206.909 179.927C206.909 180.75 206.623 181.466 206.05 182.075C205.513 182.684 204.814 183.024 203.955 183.096C203.848 183.096 203.758 183.096 203.687 183.096C202.935 183.096 202.254 182.881 201.646 182.451C200.213 181.556 198.656 181.108 196.973 181.108C195.361 181.108 194.108 181.502 193.213 182.29C192.354 183.042 191.924 184.17 191.924 185.674C191.924 186.497 192.157 187.249 192.622 187.93C193.123 188.61 193.768 189.201 194.556 189.702C195.343 190.168 196.239 190.669 197.241 191.206C198.244 191.707 199.264 192.209 200.303 192.71C201.341 193.175 202.362 193.766 203.364 194.482C204.367 195.163 205.262 195.915 206.05 196.738C206.838 197.526 207.464 198.529 207.93 199.746C208.431 200.964 208.682 202.306 208.682 203.774C208.682 205.744 208.324 207.516 207.607 209.092C206.927 210.632 205.889 211.956 204.492 213.066C203.132 214.141 201.466 214.893 199.497 215.322C199.139 215.394 198.96 215.609 198.96 215.967V219.082C198.96 219.834 198.691 220.479 198.154 221.016C197.653 221.553 197.026 221.821 196.274 221.821C195.522 221.821 194.878 221.553 194.341 221.016C193.804 220.479 193.535 219.834 193.535 219.082V216.182C193.535 215.859 193.356 215.662 192.998 215.591C190.241 215.197 187.663 214.266 185.264 212.798C184.476 212.332 184.01 211.634 183.867 210.703C183.831 210.488 183.813 210.291 183.813 210.112C183.813 209.396 184.01 208.752 184.404 208.179C184.906 207.427 185.586 206.979 186.445 206.836C186.696 206.8 186.929 206.782 187.144 206.782C187.752 206.782 188.343 206.943 188.916 207.266C191.064 208.555 193.195 209.199 195.308 209.199C199.032 209.199 200.894 207.57 200.894 204.312C200.894 203.452 200.643 202.646 200.142 201.895C199.676 201.143 199.049 200.498 198.262 199.961C197.51 199.424 196.632 198.887 195.63 198.35C194.627 197.777 193.589 197.24 192.515 196.738C191.476 196.237 190.456 195.646 189.453 194.966C188.451 194.25 187.555 193.516 186.768 192.764C186.016 191.976 185.389 191.009 184.888 189.863C184.422 188.717 184.189 187.446 184.189 186.05C184.189 183.185 184.959 180.786 186.499 178.853C188.075 176.883 190.241 175.594 192.998 174.985C193.356 174.878 193.535 174.663 193.535 174.341V171.172C193.535 170.42 193.804 169.793 194.341 169.292C194.878 168.755 195.522 168.486 196.274 168.486C197.026 168.486 197.653 168.755 198.154 169.292C198.691 169.793 198.96 170.42 198.96 171.172V174.233C198.96 174.556 199.139 174.753 199.497 174.824C201.789 175.218 203.901 176.167 205.835 177.671Z" fill="#2FB457"/>
<path d="M112 370H237C245.284 370 252 376.716 252 385V395C252 403.284 245.284 410 237 410H112V370Z" fill="url(#paint4_linear_155_5)"/>
<circle cx="112" cy="390" r="20" fill="url(#paint5_linear_155_5)"/>
<path fill-rule="evenodd" clip-rule="evenodd" d="M119.273 384.546C119.273 386.475 118.507 388.324 117.143 389.688C115.779 391.052 113.929 391.818 112 391.818C110.071 391.818 108.222 391.052 106.858 389.688C105.494 388.324 104.728 386.475 104.728 384.546C104.728 382.617 105.494 380.767 106.858 379.403C108.222 378.039 110.071 377.273 112 377.273C113.929 377.273 115.779 378.039 117.143 379.403C118.507 380.767 119.273 382.617 119.273 384.546ZM115.637 384.546C115.637 385.51 115.254 386.435 114.572 387.117C113.89 387.799 112.965 388.182 112 388.182C111.036 388.182 110.111 387.799 109.429 387.117C108.747 386.435 108.364 385.51 108.364 384.546C108.364 383.581 108.747 382.656 109.429 381.974C110.111 381.292 111.036 380.909 112 380.909C112.965 380.909 113.89 381.292 114.572 381.974C115.254 382.656 115.637 383.581 115.637 384.546Z" fill="white" fill-opacity="0.8"/>
<path fill-rule="evenodd" clip-rule="evenodd" d="M112 370C100.955 370 92 378.955 92 390C92 401.045 100.955 410 112 410C123.045 410 132 401.045 132 390C132 378.955 123.045 370 112 370ZM95.6364 390C95.6364 393.8 96.9327 397.298 99.1055 400.076C100.631 398.073 102.6 396.449 104.857 395.331C107.114 394.214 109.6 393.634 112.118 393.636C114.604 393.634 117.058 394.199 119.293 395.289C121.527 396.378 123.484 397.963 125.013 399.924C126.588 397.857 127.649 395.446 128.107 392.888C128.565 390.331 128.408 387.701 127.648 385.216C126.888 382.732 125.548 380.464 123.737 378.6C121.927 376.736 119.699 375.331 117.237 374.499C114.775 373.668 112.151 373.434 109.582 373.818C107.012 374.202 104.571 375.193 102.46 376.707C100.349 378.222 98.6287 380.218 97.4422 382.529C96.2557 384.841 95.6367 387.402 95.6364 390ZM112 406.364C108.244 406.369 104.6 405.077 101.687 402.705C102.86 401.027 104.421 399.656 106.237 398.71C108.053 397.764 110.071 397.271 112.118 397.273C114.14 397.271 116.134 397.752 117.933 398.675C119.732 399.599 121.284 400.938 122.462 402.582C119.526 405.03 115.823 406.369 112 406.364Z" fill="white" fill-opacity="0.8"/>
<path d="M154.872 395.144C154.115 395.144 153.448 395.048 152.872 394.856C152.296 394.653 151.811 394.355 151.416 393.96C151.032 393.565 150.739 393.075 150.536 392.488C150.333 391.901 150.232 391.224 150.232 390.456V384.44C150.232 384.163 150.301 383.955 150.44 383.816C150.589 383.677 150.797 383.608 151.064 383.608C151.331 383.608 151.533 383.677 151.672 383.816C151.821 383.955 151.896 384.163 151.896 384.44V390.424C151.896 391.523 152.147 392.344 152.648 392.888C153.16 393.432 153.901 393.704 154.872 393.704C155.853 393.704 156.595 393.432 157.096 392.888C157.597 392.344 157.848 391.523 157.848 390.424V384.44C157.848 384.163 157.917 383.955 158.056 383.816C158.205 383.677 158.408 383.608 158.664 383.608C158.931 383.608 159.133 383.677 159.272 383.816C159.411 383.955 159.48 384.163 159.48 384.44V390.456C159.48 391.48 159.304 392.344 158.952 393.048C158.611 393.741 158.099 394.264 157.416 394.616C156.733 394.968 155.885 395.144 154.872 395.144ZM164.606 395.144C164.137 395.144 163.652 395.091 163.15 394.984C162.66 394.877 162.206 394.696 161.79 394.44C161.652 394.344 161.556 394.237 161.502 394.12C161.449 394.003 161.428 393.885 161.438 393.768C161.46 393.64 161.508 393.533 161.582 393.448C161.668 393.352 161.769 393.293 161.886 393.272C162.014 393.251 162.148 393.277 162.286 393.352C162.702 393.587 163.102 393.752 163.486 393.848C163.87 393.933 164.249 393.976 164.622 393.976C165.188 393.976 165.614 393.875 165.902 393.672C166.19 393.469 166.334 393.197 166.334 392.856C166.334 392.579 166.238 392.365 166.046 392.216C165.854 392.056 165.566 391.933 165.182 391.848L163.662 391.544C163.001 391.405 162.5 391.16 162.158 390.808C161.817 390.456 161.646 390.008 161.646 389.464C161.646 388.973 161.78 388.547 162.046 388.184C162.313 387.821 162.686 387.544 163.166 387.352C163.646 387.149 164.201 387.048 164.83 387.048C165.3 387.048 165.742 387.107 166.158 387.224C166.574 387.341 166.958 387.517 167.31 387.752C167.449 387.827 167.54 387.928 167.582 388.056C167.625 388.173 167.63 388.291 167.598 388.408C167.577 388.525 167.524 388.632 167.438 388.728C167.353 388.813 167.246 388.867 167.118 388.888C167.001 388.899 166.868 388.867 166.718 388.792C166.398 388.589 166.078 388.445 165.758 388.36C165.449 388.275 165.14 388.232 164.83 388.232C164.265 388.232 163.838 388.339 163.55 388.552C163.273 388.755 163.134 389.032 163.134 389.384C163.134 389.651 163.22 389.869 163.39 390.04C163.561 390.211 163.828 390.333 164.19 390.408L165.71 390.712C166.404 390.851 166.926 391.085 167.278 391.416C167.641 391.747 167.822 392.195 167.822 392.76C167.822 393.496 167.529 394.077 166.942 394.504C166.356 394.931 165.577 395.144 164.606 395.144ZM173.284 395.144C172.431 395.144 171.695 394.984 171.076 394.664C170.468 394.333 169.994 393.869 169.652 393.272C169.322 392.664 169.156 391.944 169.156 391.112C169.156 390.301 169.322 389.592 169.652 388.984C169.983 388.376 170.436 387.901 171.012 387.56C171.588 387.219 172.244 387.048 172.98 387.048C173.524 387.048 174.01 387.139 174.436 387.32C174.863 387.491 175.226 387.747 175.524 388.088C175.834 388.419 176.063 388.824 176.212 389.304C176.372 389.784 176.452 390.323 176.452 390.92C176.452 391.101 176.399 391.24 176.292 391.336C176.186 391.421 176.026 391.464 175.812 391.464H170.436V390.472H175.364L175.092 390.696C175.092 390.163 175.012 389.709 174.852 389.336C174.703 388.963 174.474 388.68 174.164 388.488C173.866 388.285 173.492 388.184 173.044 388.184C172.543 388.184 172.116 388.301 171.764 388.536C171.423 388.771 171.162 389.096 170.98 389.512C170.799 389.928 170.708 390.413 170.708 390.968V391.064C170.708 392.003 170.927 392.712 171.364 393.192C171.812 393.661 172.458 393.896 173.3 393.896C173.62 393.896 173.956 393.853 174.308 393.768C174.671 393.683 175.012 393.539 175.332 393.336C175.514 393.229 175.674 393.181 175.812 393.192C175.962 393.203 176.079 393.251 176.164 393.336C176.26 393.421 176.319 393.528 176.34 393.656C176.362 393.784 176.34 393.917 176.276 394.056C176.212 394.184 176.1 394.301 175.94 394.408C175.578 394.653 175.156 394.84 174.676 394.968C174.196 395.085 173.732 395.144 173.284 395.144ZM179.03 395.112C178.763 395.112 178.561 395.043 178.422 394.904C178.283 394.755 178.214 394.552 178.214 394.296V387.896C178.214 387.629 178.283 387.427 178.422 387.288C178.561 387.149 178.753 387.08 178.998 387.08C179.254 387.08 179.446 387.149 179.574 387.288C179.713 387.427 179.782 387.629 179.782 387.896V389.064H179.622C179.793 388.424 180.107 387.939 180.566 387.608C181.025 387.277 181.611 387.085 182.326 387.032C182.518 387.021 182.667 387.069 182.774 387.176C182.891 387.283 182.955 387.448 182.966 387.672C182.987 387.896 182.939 388.077 182.822 388.216C182.705 388.344 182.523 388.419 182.278 388.44L181.974 388.472C181.281 388.536 180.753 388.755 180.39 389.128C180.027 389.501 179.846 390.013 179.846 390.664V394.296C179.846 394.552 179.777 394.755 179.638 394.904C179.51 395.043 179.307 395.112 179.03 395.112ZM184.983 395.112C184.727 395.112 184.53 395.043 184.391 394.904C184.252 394.755 184.183 394.552 184.183 394.296V387.896C184.183 387.629 184.252 387.427 184.391 387.288C184.53 387.149 184.722 387.08 184.967 387.08C185.223 387.08 185.415 387.149 185.543 387.288C185.682 387.427 185.751 387.629 185.751 387.896V389.144L185.575 388.856C185.81 388.259 186.178 387.811 186.679 387.512C187.18 387.203 187.756 387.048 188.407 387.048C189.026 387.048 189.538 387.165 189.943 387.4C190.359 387.624 190.668 387.971 190.871 388.44C191.074 388.899 191.175 389.48 191.175 390.184V394.296C191.175 394.552 191.106 394.755 190.967 394.904C190.828 395.043 190.631 395.112 190.375 395.112C190.108 395.112 189.906 395.043 189.767 394.904C189.628 394.755 189.559 394.552 189.559 394.296V390.28C189.559 389.608 189.426 389.117 189.159 388.808C188.903 388.499 188.498 388.344 187.943 388.344C187.292 388.344 186.77 388.547 186.375 388.952C185.991 389.357 185.799 389.901 185.799 390.584V394.296C185.799 394.84 185.527 395.112 184.983 395.112ZM195.898 395.144C195.354 395.144 194.863 395.037 194.426 394.824C193.999 394.611 193.663 394.323 193.418 393.96C193.172 393.597 193.05 393.187 193.05 392.728C193.05 392.152 193.194 391.699 193.482 391.368C193.78 391.027 194.266 390.787 194.938 390.648C195.62 390.499 196.538 390.424 197.69 390.424H198.442V391.416H197.706C196.938 391.416 196.33 391.453 195.882 391.528C195.434 391.603 195.114 391.731 194.922 391.912C194.74 392.083 194.65 392.323 194.65 392.632C194.65 393.037 194.788 393.368 195.066 393.624C195.343 393.869 195.727 393.992 196.218 393.992C196.612 393.992 196.959 393.901 197.258 393.72C197.556 393.528 197.791 393.272 197.962 392.952C198.143 392.632 198.234 392.264 198.234 391.848V390.008C198.234 389.4 198.106 388.963 197.85 388.696C197.594 388.429 197.172 388.296 196.586 388.296C196.244 388.296 195.887 388.339 195.514 388.424C195.151 388.509 194.772 388.653 194.378 388.856C194.196 388.941 194.042 388.968 193.914 388.936C193.786 388.904 193.684 388.835 193.61 388.728C193.535 388.611 193.492 388.488 193.482 388.36C193.482 388.221 193.514 388.088 193.578 387.96C193.652 387.832 193.775 387.736 193.946 387.672C194.415 387.448 194.879 387.288 195.338 387.192C195.796 387.096 196.228 387.048 196.634 387.048C197.348 387.048 197.935 387.16 198.394 387.384C198.863 387.608 199.21 387.949 199.434 388.408C199.658 388.867 199.77 389.459 199.77 390.184V394.296C199.77 394.552 199.706 394.755 199.578 394.904C199.45 395.043 199.263 395.112 199.018 395.112C198.783 395.112 198.596 395.043 198.458 394.904C198.319 394.755 198.25 394.552 198.25 394.296V393.256H198.394C198.308 393.651 198.148 393.992 197.914 394.28C197.69 394.557 197.407 394.771 197.066 394.92C196.724 395.069 196.335 395.144 195.898 395.144ZM202.827 395.112C202.571 395.112 202.374 395.043 202.235 394.904C202.097 394.755 202.027 394.552 202.027 394.296V387.896C202.027 387.629 202.097 387.427 202.235 387.288C202.374 387.149 202.566 387.08 202.811 387.08C203.067 387.08 203.259 387.149 203.387 387.288C203.526 387.427 203.595 387.629 203.595 387.896V389.208L203.419 388.856C203.633 388.291 203.963 387.848 204.411 387.528C204.859 387.208 205.398 387.048 206.027 387.048C206.678 387.048 207.206 387.203 207.611 387.512C208.017 387.821 208.294 388.296 208.443 388.936H208.219C208.422 388.349 208.769 387.891 209.259 387.56C209.75 387.219 210.321 387.048 210.971 387.048C211.569 387.048 212.059 387.165 212.443 387.4C212.827 387.624 213.115 387.971 213.307 388.44C213.499 388.899 213.595 389.48 213.595 390.184V394.296C213.595 394.552 213.521 394.755 213.371 394.904C213.233 395.043 213.035 395.112 212.779 395.112C212.523 395.112 212.326 395.043 212.187 394.904C212.049 394.755 211.979 394.552 211.979 394.296V390.264C211.979 389.603 211.862 389.117 211.627 388.808C211.403 388.499 211.03 388.344 210.507 388.344C209.921 388.344 209.457 388.547 209.115 388.952C208.774 389.357 208.603 389.917 208.603 390.632V394.296C208.603 394.552 208.534 394.755 208.395 394.904C208.257 395.043 208.059 395.112 207.803 395.112C207.547 395.112 207.345 395.043 207.195 394.904C207.057 394.755 206.987 394.552 206.987 394.296V390.264C206.987 389.603 206.875 389.117 206.651 388.808C206.427 388.499 206.054 388.344 205.531 388.344C204.945 388.344 204.481 388.547 204.139 388.952C203.809 389.357 203.643 389.917 203.643 390.632V394.296C203.643 394.84 203.371 395.112 202.827 395.112ZM219.519 395.144C218.665 395.144 217.929 394.984 217.311 394.664C216.703 394.333 216.228 393.869 215.887 393.272C215.556 392.664 215.391 391.944 215.391 391.112C215.391 390.301 215.556 389.592 215.887 388.984C216.217 388.376 216.671 387.901 217.247 387.56C217.823 387.219 218.479 387.048 219.215 387.048C219.759 387.048 220.244 387.139 220.671 387.32C221.097 387.491 221.46 387.747 221.759 388.088C222.068 388.419 222.297 388.824 222.447 389.304C222.607 389.784 222.687 390.323 222.687 390.92C222.687 391.101 222.633 391.24 222.527 391.336C222.42 391.421 222.26 391.464 222.047 391.464H216.671V390.472H221.599L221.327 390.696C221.327 390.163 221.247 389.709 221.087 389.336C220.937 388.963 220.708 388.68 220.399 388.488C220.1 388.285 219.727 388.184 219.279 388.184C218.777 388.184 218.351 388.301 217.999 388.536C217.657 388.771 217.396 389.096 217.215 389.512C217.033 389.928 216.943 390.413 216.943 390.968V391.064C216.943 392.003 217.161 392.712 217.599 393.192C218.047 393.661 218.692 393.896 219.535 393.896C219.855 393.896 220.191 393.853 220.543 393.768C220.905 393.683 221.247 393.539 221.567 393.336C221.748 393.229 221.908 393.181 222.047 393.192C222.196 393.203 222.313 393.251 222.399 393.336C222.495 393.421 222.553 393.528 222.575 393.656C222.596 393.784 222.575 393.917 222.511 394.056C222.447 394.184 222.335 394.301 222.175 394.408C221.812 394.653 221.391 394.84 220.911 394.968C220.431 395.085 219.967 395.144 219.519 395.144Z" fill="#498DCC"/>
<path d="M271 511.5H309C324 511.5 324 509.5 324 489.5C324 469.5 322.732 424.5 322 404C321.833 399.333 322 391 307 391C296.2 391 266.167 391 252.5 391" stroke="black" stroke-width="2"/>
<circle cx="255" cy="391" r="3" fill="#498DCC"/>
<circle cx="272" cy="511" r="3" fill="#498DCC"/>
<rect x="458" y="525" width="200" height="50" rx="10" fill="url(#paint6_linear_155_5)"/>
<path d="M518.072 555.144C517.581 555.144 517.101 555.107 516.632 555.032C516.163 554.957 515.72 554.845 515.304 554.696C514.888 554.536 514.515 554.344 514.184 554.12C514.024 554.003 513.912 553.869 513.848 553.72C513.795 553.571 513.779 553.427 513.8 553.288C513.832 553.139 513.896 553.011 513.992 552.904C514.088 552.797 514.205 552.733 514.344 552.712C514.483 552.68 514.637 552.723 514.808 552.84C515.288 553.149 515.795 553.379 516.328 553.528C516.861 553.667 517.443 553.736 518.072 553.736C518.979 553.736 519.645 553.576 520.072 553.256C520.509 552.925 520.728 552.499 520.728 551.976C520.728 551.549 520.573 551.213 520.264 550.968C519.955 550.712 519.437 550.509 518.712 550.36L517 550.008C515.987 549.795 515.229 549.443 514.728 548.952C514.237 548.461 513.992 547.8 513.992 546.968C513.992 546.467 514.093 546.008 514.296 545.592C514.509 545.176 514.803 544.819 515.176 544.52C515.549 544.211 515.997 543.976 516.52 543.816C517.043 543.656 517.613 543.576 518.232 543.576C518.893 543.576 519.512 543.661 520.088 543.832C520.675 544.003 521.197 544.264 521.656 544.616C521.795 544.712 521.885 544.835 521.928 544.984C521.981 545.123 521.992 545.261 521.96 545.4C521.939 545.539 521.88 545.656 521.784 545.752C521.688 545.848 521.565 545.907 521.416 545.928C521.267 545.939 521.101 545.885 520.92 545.768C520.504 545.491 520.077 545.293 519.64 545.176C519.213 545.048 518.739 544.984 518.216 544.984C517.693 544.984 517.235 545.064 516.84 545.224C516.456 545.384 516.157 545.608 515.944 545.896C515.741 546.184 515.64 546.525 515.64 546.92C515.64 547.368 515.784 547.725 516.072 547.992C516.36 548.259 516.84 548.461 517.512 548.6L519.208 548.952C520.275 549.176 521.069 549.523 521.592 549.992C522.115 550.461 522.376 551.085 522.376 551.864C522.376 552.365 522.275 552.819 522.072 553.224C521.869 553.619 521.581 553.96 521.208 554.248C520.835 554.536 520.381 554.76 519.848 554.92C519.325 555.069 518.733 555.144 518.072 555.144ZM524.889 557.992C524.633 557.992 524.436 557.923 524.297 557.784C524.158 557.645 524.089 557.443 524.089 557.176V547.896C524.089 547.629 524.158 547.427 524.297 547.288C524.436 547.149 524.628 547.08 524.873 547.08C525.129 547.08 525.326 547.149 525.465 547.288C525.604 547.427 525.673 547.629 525.673 547.896V549.288L525.497 548.952C525.668 548.376 526.004 547.917 526.505 547.576C527.006 547.224 527.598 547.048 528.281 547.048C528.974 547.048 529.577 547.213 530.089 547.544C530.612 547.875 531.012 548.339 531.289 548.936C531.577 549.533 531.721 550.253 531.721 551.096C531.721 551.917 531.577 552.637 531.289 553.256C531.012 553.864 530.617 554.333 530.105 554.664C529.593 554.984 528.985 555.144 528.281 555.144C527.609 555.144 527.022 554.973 526.521 554.632C526.02 554.291 525.684 553.837 525.513 553.272H525.705V557.176C525.705 557.443 525.63 557.645 525.481 557.784C525.342 557.923 525.145 557.992 524.889 557.992ZM527.881 553.896C528.329 553.896 528.718 553.789 529.049 553.576C529.38 553.363 529.636 553.048 529.817 552.632C529.998 552.216 530.089 551.704 530.089 551.096C530.089 550.179 529.886 549.485 529.481 549.016C529.086 548.547 528.553 548.312 527.881 548.312C527.444 548.312 527.054 548.419 526.713 548.632C526.382 548.835 526.126 549.144 525.945 549.56C525.764 549.976 525.673 550.488 525.673 551.096C525.673 552.003 525.876 552.696 526.281 553.176C526.686 553.656 527.22 553.896 527.881 553.896ZM536.934 555.144C536.145 555.144 535.462 554.979 534.886 554.648C534.321 554.317 533.878 553.848 533.558 553.24C533.238 552.632 533.078 551.917 533.078 551.096C533.078 550.467 533.169 549.907 533.35 549.416C533.532 548.925 533.788 548.504 534.118 548.152C534.46 547.789 534.865 547.517 535.334 547.336C535.814 547.144 536.348 547.048 536.934 547.048C537.713 547.048 538.385 547.213 538.95 547.544C539.526 547.875 539.974 548.344 540.294 548.952C540.614 549.549 540.774 550.264 540.774 551.096C540.774 551.715 540.684 552.275 540.502 552.776C540.321 553.277 540.06 553.704 539.718 554.056C539.388 554.408 538.982 554.68 538.502 554.872C538.033 555.053 537.51 555.144 536.934 555.144ZM536.934 553.896C537.372 553.896 537.756 553.789 538.086 553.576C538.417 553.363 538.673 553.048 538.854 552.632C539.046 552.216 539.142 551.704 539.142 551.096C539.142 550.179 538.94 549.485 538.534 549.016C538.129 548.547 537.596 548.312 536.934 548.312C536.486 548.312 536.097 548.419 535.766 548.632C535.436 548.835 535.174 549.144 534.982 549.56C534.801 549.976 534.71 550.488 534.71 551.096C534.71 552.003 534.913 552.696 535.318 553.176C535.724 553.656 536.262 553.896 536.934 553.896ZM543.389 555.112C543.133 555.112 542.936 555.043 542.797 554.904C542.658 554.755 542.589 554.552 542.589 554.296V547.896C542.589 547.629 542.658 547.427 542.797 547.288C542.936 547.149 543.128 547.08 543.373 547.08C543.629 547.08 543.821 547.149 543.949 547.288C544.088 547.427 544.157 547.629 544.157 547.896V549.144L543.981 548.856C544.216 548.259 544.584 547.811 545.085 547.512C545.586 547.203 546.162 547.048 546.813 547.048C547.432 547.048 547.944 547.165 548.349 547.4C548.765 547.624 549.074 547.971 549.277 548.44C549.48 548.899 549.581 549.48 549.581 550.184V554.296C549.581 554.552 549.512 554.755 549.373 554.904C549.234 555.043 549.037 555.112 548.781 555.112C548.514 555.112 548.312 555.043 548.173 554.904C548.034 554.755 547.965 554.552 547.965 554.296V550.28C547.965 549.608 547.832 549.117 547.565 548.808C547.309 548.499 546.904 548.344 546.349 548.344C545.698 548.344 545.176 548.547 544.781 548.952C544.397 549.357 544.205 549.901 544.205 550.584V554.296C544.205 554.84 543.933 555.112 543.389 555.112ZM554.544 555.144C554.075 555.144 553.589 555.091 553.088 554.984C552.597 554.877 552.144 554.696 551.728 554.44C551.589 554.344 551.493 554.237 551.44 554.12C551.387 554.003 551.365 553.885 551.376 553.768C551.397 553.64 551.445 553.533 551.52 553.448C551.605 553.352 551.707 553.293 551.824 553.272C551.952 553.251 552.085 553.277 552.224 553.352C552.64 553.587 553.04 553.752 553.424 553.848C553.808 553.933 554.187 553.976 554.56 553.976C555.125 553.976 555.552 553.875 555.84 553.672C556.128 553.469 556.272 553.197 556.272 552.856C556.272 552.579 556.176 552.365 555.984 552.216C555.792 552.056 555.504 551.933 555.12 551.848L553.6 551.544C552.939 551.405 552.437 551.16 552.096 550.808C551.755 550.456 551.584 550.008 551.584 549.464C551.584 548.973 551.717 548.547 551.984 548.184C552.251 547.821 552.624 547.544 553.104 547.352C553.584 547.149 554.139 547.048 554.768 547.048C555.237 547.048 555.68 547.107 556.096 547.224C556.512 547.341 556.896 547.517 557.248 547.752C557.387 547.827 557.477 547.928 557.52 548.056C557.563 548.173 557.568 548.291 557.536 548.408C557.515 548.525 557.461 548.632 557.376 548.728C557.291 548.813 557.184 548.867 557.056 548.888C556.939 548.899 556.805 548.867 556.656 548.792C556.336 548.589 556.016 548.445 555.696 548.36C555.387 548.275 555.077 548.232 554.768 548.232C554.203 548.232 553.776 548.339 553.488 548.552C553.211 548.755 553.072 549.032 553.072 549.384C553.072 549.651 553.157 549.869 553.328 550.04C553.499 550.211 553.765 550.333 554.128 550.408L555.648 550.712C556.341 550.851 556.864 551.085 557.216 551.416C557.579 551.747 557.76 552.195 557.76 552.76C557.76 553.496 557.467 554.077 556.88 554.504C556.293 554.931 555.515 555.144 554.544 555.144ZM562.95 555.144C562.161 555.144 561.478 554.979 560.902 554.648C560.337 554.317 559.894 553.848 559.574 553.24C559.254 552.632 559.094 551.917 559.094 551.096C559.094 550.467 559.185 549.907 559.366 549.416C559.547 548.925 559.803 548.504 560.134 548.152C560.475 547.789 560.881 547.517 561.35 547.336C561.83 547.144 562.363 547.048 562.95 547.048C563.729 547.048 564.401 547.213 564.966 547.544C565.542 547.875 565.99 548.344 566.31 548.952C566.63 549.549 566.79 550.264 566.79 551.096C566.79 551.715 566.699 552.275 566.518 552.776C566.337 553.277 566.075 553.704 565.734 554.056C565.403 554.408 564.998 554.68 564.518 554.872C564.049 555.053 563.526 555.144 562.95 555.144ZM562.95 553.896C563.387 553.896 563.771 553.789 564.102 553.576C564.433 553.363 564.689 553.048 564.87 552.632C565.062 552.216 565.158 551.704 565.158 551.096C565.158 550.179 564.955 549.485 564.55 549.016C564.145 548.547 563.611 548.312 562.95 548.312C562.502 548.312 562.113 548.419 561.782 548.632C561.451 548.835 561.19 549.144 560.998 549.56C560.817 549.976 560.726 550.488 560.726 551.096C560.726 552.003 560.929 552.696 561.334 553.176C561.739 553.656 562.278 553.896 562.95 553.896ZM569.421 555.112C569.154 555.112 568.951 555.043 568.813 554.904C568.674 554.755 568.605 554.552 568.605 554.296V547.896C568.605 547.629 568.674 547.427 568.813 547.288C568.951 547.149 569.143 547.08 569.389 547.08C569.645 547.08 569.837 547.149 569.965 547.288C570.103 547.427 570.173 547.629 570.173 547.896V549.064H570.013C570.183 548.424 570.498 547.939 570.957 547.608C571.415 547.277 572.002 547.085 572.717 547.032C572.909 547.021 573.058 547.069 573.165 547.176C573.282 547.283 573.346 547.448 573.357 547.672C573.378 547.896 573.33 548.077 573.213 548.216C573.095 548.344 572.914 548.419 572.669 548.44L572.365 548.472C571.671 548.536 571.143 548.755 570.781 549.128C570.418 549.501 570.237 550.013 570.237 550.664V554.296C570.237 554.552 570.167 554.755 570.029 554.904C569.901 555.043 569.698 555.112 569.421 555.112ZM582.728 555.144C582.238 555.144 581.758 555.107 581.288 555.032C580.819 554.957 580.376 554.845 579.96 554.696C579.544 554.536 579.171 554.344 578.84 554.12C578.68 554.003 578.568 553.869 578.504 553.72C578.451 553.571 578.435 553.427 578.456 553.288C578.488 553.139 578.552 553.011 578.648 552.904C578.744 552.797 578.862 552.733 579 552.712C579.139 552.68 579.294 552.723 579.464 552.84C579.944 553.149 580.451 553.379 580.984 553.528C581.518 553.667 582.099 553.736 582.728 553.736C583.635 553.736 584.302 553.576 584.728 553.256C585.166 552.925 585.384 552.499 585.384 551.976C585.384 551.549 585.23 551.213 584.92 550.968C584.611 550.712 584.094 550.509 583.368 550.36L581.656 550.008C580.643 549.795 579.886 549.443 579.384 548.952C578.894 548.461 578.648 547.8 578.648 546.968C578.648 546.467 578.75 546.008 578.952 545.592C579.166 545.176 579.459 544.819 579.832 544.52C580.206 544.211 580.654 543.976 581.176 543.816C581.699 543.656 582.27 543.576 582.888 543.576C583.55 543.576 584.168 543.661 584.744 543.832C585.331 544.003 585.854 544.264 586.312 544.616C586.451 544.712 586.542 544.835 586.584 544.984C586.638 545.123 586.648 545.261 586.616 545.4C586.595 545.539 586.536 545.656 586.44 545.752C586.344 545.848 586.222 545.907 586.072 545.928C585.923 545.939 585.758 545.885 585.576 545.768C585.16 545.491 584.734 545.293 584.296 545.176C583.87 545.048 583.395 544.984 582.872 544.984C582.35 544.984 581.891 545.064 581.496 545.224C581.112 545.384 580.814 545.608 580.6 545.896C580.398 546.184 580.296 546.525 580.296 546.92C580.296 547.368 580.44 547.725 580.728 547.992C581.016 548.259 581.496 548.461 582.168 548.6L583.864 548.952C584.931 549.176 585.726 549.523 586.248 549.992C586.771 550.461 587.032 551.085 587.032 551.864C587.032 552.365 586.931 552.819 586.728 553.224C586.526 553.619 586.238 553.96 585.864 554.248C585.491 554.536 585.038 554.76 584.504 554.92C583.982 555.069 583.39 555.144 582.728 555.144ZM592.409 555.144C591.556 555.144 590.82 554.984 590.201 554.664C589.593 554.333 589.119 553.869 588.777 553.272C588.447 552.664 588.281 551.944 588.281 551.112C588.281 550.301 588.447 549.592 588.777 548.984C589.108 548.376 589.561 547.901 590.137 547.56C590.713 547.219 591.369 547.048 592.105 547.048C592.649 547.048 593.135 547.139 593.561 547.32C593.988 547.491 594.351 547.747 594.649 548.088C594.959 548.419 595.188 548.824 595.337 549.304C595.497 549.784 595.577 550.323 595.577 550.92C595.577 551.101 595.524 551.24 595.417 551.336C595.311 551.421 595.151 551.464 594.937 551.464H589.561V550.472H594.489L594.217 550.696C594.217 550.163 594.137 549.709 593.977 549.336C593.828 548.963 593.599 548.68 593.289 548.488C592.991 548.285 592.617 548.184 592.169 548.184C591.668 548.184 591.241 548.301 590.889 548.536C590.548 548.771 590.287 549.096 590.105 549.512C589.924 549.928 589.833 550.413 589.833 550.968V551.064C589.833 552.003 590.052 552.712 590.489 553.192C590.937 553.661 591.583 553.896 592.425 553.896C592.745 553.896 593.081 553.853 593.433 553.768C593.796 553.683 594.137 553.539 594.457 553.336C594.639 553.229 594.799 553.181 594.937 553.192C595.087 553.203 595.204 553.251 595.289 553.336C595.385 553.421 595.444 553.528 595.465 553.656C595.487 553.784 595.465 553.917 595.401 554.056C595.337 554.184 595.225 554.301 595.065 554.408C594.703 554.653 594.281 554.84 593.801 554.968C593.321 555.085 592.857 555.144 592.409 555.144ZM600.779 555.144C599.979 555.144 599.286 554.979 598.699 554.648C598.123 554.307 597.675 553.832 597.355 553.224C597.035 552.605 596.875 551.88 596.875 551.048C596.875 550.429 596.966 549.875 597.147 549.384C597.328 548.883 597.584 548.461 597.915 548.12C598.256 547.779 598.667 547.517 599.147 547.336C599.638 547.144 600.182 547.048 600.779 547.048C601.152 547.048 601.542 547.107 601.947 547.224C602.363 547.331 602.747 547.512 603.099 547.768C603.238 547.853 603.323 547.96 603.355 548.088C603.398 548.205 603.403 548.328 603.371 548.456C603.35 548.584 603.291 548.696 603.195 548.792C603.11 548.877 603.003 548.931 602.875 548.952C602.747 548.963 602.608 548.925 602.459 548.84C602.203 548.659 601.942 548.531 601.675 548.456C601.408 548.371 601.152 548.328 600.907 548.328C600.523 548.328 600.182 548.392 599.883 548.52C599.595 548.637 599.35 548.813 599.147 549.048C598.944 549.272 598.79 549.555 598.683 549.896C598.587 550.237 598.539 550.627 598.539 551.064C598.539 551.939 598.742 552.627 599.147 553.128C599.563 553.619 600.15 553.864 600.907 553.864C601.152 553.864 601.408 553.827 601.675 553.752C601.942 553.677 602.203 553.549 602.459 553.368C602.608 553.283 602.747 553.251 602.875 553.272C603.003 553.293 603.104 553.352 603.179 553.448C603.264 553.533 603.318 553.64 603.339 553.768C603.371 553.885 603.366 554.008 603.323 554.136C603.28 554.264 603.19 554.371 603.051 554.456C602.71 554.701 602.336 554.877 601.931 554.984C601.536 555.091 601.152 555.144 600.779 555.144ZM607.592 555.144C606.963 555.144 606.435 555.027 606.008 554.792C605.592 554.557 605.277 554.211 605.064 553.752C604.861 553.283 604.76 552.696 604.76 551.992V547.896C604.76 547.619 604.829 547.416 604.968 547.288C605.107 547.149 605.304 547.08 605.56 547.08C605.816 547.08 606.013 547.149 606.152 547.288C606.301 547.416 606.376 547.619 606.376 547.896V552.008C606.376 552.637 606.504 553.101 606.76 553.4C607.016 553.699 607.421 553.848 607.976 553.848C608.584 553.848 609.075 553.645 609.448 553.24C609.832 552.824 610.024 552.28 610.024 551.608V547.896C610.024 547.619 610.093 547.416 610.232 547.288C610.371 547.149 610.573 547.08 610.84 547.08C611.096 547.08 611.293 547.149 611.432 547.288C611.571 547.416 611.64 547.619 611.64 547.896V554.296C611.64 554.84 611.379 555.112 610.856 555.112C610.611 555.112 610.419 555.043 610.28 554.904C610.141 554.755 610.072 554.552 610.072 554.296V552.936L610.28 553.288C610.067 553.885 609.725 554.344 609.256 554.664C608.787 554.984 608.232 555.144 607.592 555.144ZM614.733 555.112C614.467 555.112 614.264 555.043 614.125 554.904C613.987 554.755 613.917 554.552 613.917 554.296V547.896C613.917 547.629 613.987 547.427 614.125 547.288C614.264 547.149 614.456 547.08 614.701 547.08C614.957 547.08 615.149 547.149 615.277 547.288C615.416 547.427 615.485 547.629 615.485 547.896V549.064H615.325C615.496 548.424 615.811 547.939 616.269 547.608C616.728 547.277 617.315 547.085 618.029 547.032C618.221 547.021 618.371 547.069 618.477 547.176C618.595 547.283 618.659 547.448 618.669 547.672C618.691 547.896 618.643 548.077 618.525 548.216C618.408 548.344 618.227 548.419 617.981 548.44L617.677 548.472C616.984 548.536 616.456 548.755 616.093 549.128C615.731 549.501 615.549 550.013 615.549 550.664V554.296C615.549 554.552 615.48 554.755 615.341 554.904C615.213 555.043 615.011 555.112 614.733 555.112ZM623.441 555.144C622.587 555.144 621.851 554.984 621.233 554.664C620.625 554.333 620.15 553.869 619.809 553.272C619.478 552.664 619.313 551.944 619.313 551.112C619.313 550.301 619.478 549.592 619.809 548.984C620.139 548.376 620.593 547.901 621.169 547.56C621.745 547.219 622.401 547.048 623.137 547.048C623.681 547.048 624.166 547.139 624.593 547.32C625.019 547.491 625.382 547.747 625.681 548.088C625.99 548.419 626.219 548.824 626.369 549.304C626.529 549.784 626.609 550.323 626.609 550.92C626.609 551.101 626.555 551.24 626.449 551.336C626.342 551.421 626.182 551.464 625.969 551.464H620.593V550.472H625.521L625.249 550.696C625.249 550.163 625.169 549.709 625.009 549.336C624.859 548.963 624.63 548.68 624.321 548.488C624.022 548.285 623.649 548.184 623.201 548.184C622.699 548.184 622.273 548.301 621.921 548.536C621.579 548.771 621.318 549.096 621.137 549.512C620.955 549.928 620.865 550.413 620.865 550.968V551.064C620.865 552.003 621.083 552.712 621.521 553.192C621.969 553.661 622.614 553.896 623.457 553.896C623.777 553.896 624.113 553.853 624.465 553.768C624.827 553.683 625.169 553.539 625.489 553.336C625.67 553.229 625.83 553.181 625.969 553.192C626.118 553.203 626.235 553.251 626.321 553.336C626.417 553.421 626.475 553.528 626.497 553.656C626.518 553.784 626.497 553.917 626.433 554.056C626.369 554.184 626.257 554.301 626.097 554.408C625.734 554.653 625.313 554.84 624.833 554.968C624.353 555.085 623.889 555.144 623.441 555.144ZM631.346 555.144C630.664 555.144 630.061 554.984 629.538 554.664C629.026 554.333 628.626 553.864 628.338 553.256C628.05 552.637 627.906 551.917 627.906 551.096C627.906 550.253 628.05 549.533 628.338 548.936C628.626 548.339 629.026 547.875 629.538 547.544C630.061 547.213 630.664 547.048 631.346 547.048C632.029 547.048 632.616 547.219 633.106 547.56C633.608 547.891 633.944 548.339 634.114 548.904H633.938V544.424C633.938 544.157 634.008 543.955 634.146 543.816C634.285 543.677 634.482 543.608 634.738 543.608C634.994 543.608 635.192 543.677 635.33 543.816C635.48 543.955 635.554 544.157 635.554 544.424V554.296C635.554 554.552 635.485 554.755 635.346 554.904C635.208 555.043 635.01 555.112 634.754 555.112C634.498 555.112 634.301 555.043 634.162 554.904C634.024 554.755 633.954 554.552 633.954 554.296V552.888L634.13 553.24C633.96 553.816 633.624 554.28 633.122 554.632C632.632 554.973 632.04 555.144 631.346 555.144ZM631.762 553.896C632.2 553.896 632.584 553.789 632.914 553.576C633.245 553.363 633.501 553.048 633.682 552.632C633.874 552.216 633.97 551.704 633.97 551.096C633.97 550.179 633.768 549.485 633.362 549.016C632.957 548.547 632.424 548.312 631.762 548.312C631.314 548.312 630.925 548.419 630.594 548.632C630.264 548.835 630.002 549.144 629.81 549.56C629.629 549.976 629.538 550.488 629.538 551.096C629.538 552.003 629.741 552.696 630.146 553.176C630.552 553.656 631.09 553.896 631.762 553.896Z" fill="white"/>
<path d="M488 560C490.652 560 493.196 558.946 495.071 557.071C496.946 555.196 498 552.652 498 550C498 547.348 496.946 544.804 495.071 542.929C493.196 541.054 490.652 540 488 540C485.348 540 482.804 541.054 480.929 542.929C479.054 544.804 478 547.348 478 550C478 552.652 479.054 555.196 480.929 557.071C482.804 558.946 485.348 560 488 560Z" stroke="#FF0000" stroke-width="1.5" stroke-linecap="round" stroke-linejoin="round"/>
<path d="M484 550.716L486.164 552.727C486.267 552.822 486.391 552.896 486.527 552.943C486.663 552.989 486.809 553.008 486.953 552.997C487.098 552.986 487.239 552.946 487.365 552.879C487.491 552.812 487.6 552.721 487.684 552.611L492 547" stroke="#FF0000" stroke-width="1.5" stroke-linecap="round" stroke-linejoin="round"/>
<defs>
<filter id="filter0_d_155_5" x="121.699" y="78" width="568.652" height="582.422" filterUnits="userSpaceOnUse" color-interpolation-filters="sRGB">
<feFlood flood-opacity="0" result="BackgroundImageFix"/>
<feColorMatrix in="SourceAlpha" type="matrix" values="0 0 0 0 0 0 0 0 0 0 0 0 0 0 0 0 0 0 127 0" result="hardAlpha"/>
<feOffset dx="5" dy="5"/>
<feGaussianBlur stdDeviation="75"/>
<feComposite in2="hardAlpha" operator="out"/>
<feColorMatrix type="matrix" values="0 0 0 0 0 0 0 0 0 0 0 0 0 0 0 0 0 0 0.7 0"/>
<feBlend mode="normal" in2="BackgroundImageFix" result="effect1_dropShadow_155_5"/>
<feBlend mode="normal" in="SourceGraphic" in2="effect1_dropShadow_155_5" result="shape"/>
</filter>
<filter id="filter1_di_155_5" x="0" y="0" width="402" height="402" filterUnits="userSpaceOnUse" color-interpolation-filters="sRGB">
<feFlood flood-opacity="0" result="BackgroundImageFix"/>
<feColorMatrix in="SourceAlpha" type="matrix" values="0 0 0 0 0 0 0 0 0 0 0 0 0 0 0 0 0 0 127 0" result="hardAlpha"/>
<feOffset dx="5" dy="5"/>
<feGaussianBlur stdDeviation="75"/>
<feComposite in2="hardAlpha" operator="out"/>
<feColorMatrix type="matrix" values="0 0 0 0 0 0 0 0 0 0 0 0 0 0 0 0 0 0 0.7 0"/>
<feBlend mode="normal" in2="BackgroundImageFix" result="effect1_dropShadow_155_5"/>
<feBlend mode="normal" in="SourceGraphic" in2="effect1_dropShadow_155_5" result="shape"/>
<feColorMatrix in="SourceAlpha" type="matrix" values="0 0 0 0 0 0 0 0 0 0 0 0 0 0 0 0 0 0 127 0" result="hardAlpha"/>
<feOffset dx="21" dy="-16"/>
<feGaussianBlur stdDeviation="7"/>
<feComposite in2="hardAlpha" operator="arithmetic" k2="-1" k3="1"/>
<feColorMatrix type="matrix" values="0 0 0 0 0 0 0 0 0 0 0 0 0 0 0 0 0 0 0.25 0"/>
<feBlend mode="normal" in2="shape" result="effect2_innerShadow_155_5"/>
</filter>
<linearGradient id="paint0_linear_155_5" x1="400" y1="190" x2="400" y2="757.296" gradientUnits="userSpaceOnUse">
<stop stop-color="#313131"/>
<stop offset="1" stop-color="#252525"/>
</linearGradient>
<linearGradient id="paint1_linear_155_5" x1="623" y1="391" x2="623" y2="173" gradientUnits="userSpaceOnUse">
<stop stop-color="#828282"/>
<stop offset="1" stop-color="#313131"/>
</linearGradient>
<linearGradient id="paint2_linear_155_5" x1="169" y1="698" x2="169" y2="480" gradientUnits="userSpaceOnUse">
<stop stop-color="#828282"/>
<stop offset="1" stop-color="#313131"/>
</linearGradient>
<linearGradient id="paint3_linear_155_5" x1="196" y1="164.318" x2="196" y2="498.136" gradientUnits="userSpaceOnUse">
<stop stop-color="#313131"/>
<stop offset="1" stop-color="#2F2F2F"/>
</linearGradient>
<linearGradient id="paint4_linear_155_5" x1="182" y1="530.5" x2="182" y2="375" gradientUnits="userSpaceOnUse">
<stop stop-color="#727272"/>
<stop offset="1" stop-color="#313131"/>
</linearGradient>
<linearGradient id="paint5_linear_155_5" x1="112" y1="382.5" x2="112" y2="498" gradientUnits="userSpaceOnUse">
<stop stop-color="#313131"/>
<stop offset="1" stop-color="#898888"/>
</linearGradient>
<linearGradient id="paint6_linear_155_5" x1="558" y1="1006.5" x2="558" y2="525" gradientUnits="userSpaceOnUse">
<stop stop-color="#828282"/>
<stop offset="1" stop-color="#313131"/>
</linearGradient>
</defs>
</svg>
