<svg width="620" height="514" viewBox="0 0 620 514" fill="none" xmlns="http://www.w3.org/2000/svg">
<g filter="url(#filter0_d_155_108)">
<path d="M213.6 358.6C199.4 358.6 186.3 356 174.3 350.8C162.5 345.4 152.8 337.8 145.2 328L172.2 295.6C178 303.2 184.1 309 190.5 313C196.9 316.8 203.8 318.7 211.2 318.7C231 318.7 240.9 307.1 240.9 283.9V184H167.1V145H289.2V281.2C289.2 307.2 282.8 326.6 270 339.4C257.2 352.2 238.4 358.6 213.6 358.6ZM388.205 357.4C374.405 357.4 361.105 355.8 348.305 352.6C335.705 349.2 325.705 345 318.305 340L333.905 306.4C341.305 311 350.005 314.8 360.005 317.8C370.205 320.6 380.205 322 390.005 322C400.805 322 408.405 320.7 412.805 318.1C417.405 315.5 419.705 311.9 419.705 307.3C419.705 303.5 417.905 300.7 414.305 298.9C410.905 296.9 406.305 295.4 400.505 294.4C394.705 293.4 388.305 292.4 381.305 291.4C374.505 290.4 367.605 289.1 360.605 287.5C353.605 285.7 347.205 283.1 341.405 279.7C335.605 276.3 330.905 271.7 327.305 265.9C323.905 260.1 322.205 252.6 322.205 243.4C322.205 233.2 325.105 224.2 330.905 216.4C336.905 208.6 345.505 202.5 356.705 198.1C367.905 193.5 381.305 191.2 396.905 191.2C407.905 191.2 419.105 192.4 430.505 194.8C441.905 197.2 451.405 200.7 459.005 205.3L443.405 238.6C435.605 234 427.705 230.9 419.705 229.3C411.905 227.5 404.305 226.6 396.905 226.6C386.505 226.6 378.905 228 374.105 230.8C369.305 233.6 366.905 237.2 366.905 241.6C366.905 245.6 368.605 248.6 372.005 250.6C375.605 252.6 380.305 254.2 386.105 255.4C391.905 256.6 398.205 257.7 405.005 258.7C412.005 259.5 419.005 260.8 426.005 262.6C433.005 264.4 439.305 267 444.905 270.4C450.705 273.6 455.405 278.1 459.005 283.9C462.605 289.5 464.405 296.9 464.405 306.1C464.405 316.1 461.405 325 455.405 332.8C449.405 340.4 440.705 346.4 429.305 350.8C418.105 355.2 404.405 357.4 388.205 357.4Z" fill="url(#paint0_linear_155_108)"/>
</g>
<rect x="414" y="38" width="150" height="115" rx="10" fill="url(#paint1_linear_155_108)"/>
<path d="M414 48C414 42.4772 418.477 38 424 38H554C559.523 38 564 42.4772 564 48V63H414V48Z" fill="black" fill-opacity="0.4"/>
<path d="M476 117L476 132" stroke="white" stroke-linecap="round"/>
<path d="M432.59 88.235L426.38 85.505C425.99 85.345 425.795 85.07 425.795 84.68C425.795 84.49 425.845 84.33 425.945 84.2C426.045 84.07 426.19 83.965 426.38 83.885L432.59 81.14C432.73 81.08 432.855 81.07 432.965 81.11C433.085 81.14 433.18 81.2 433.25 81.29C433.32 81.38 433.36 81.485 433.37 81.605C433.38 81.725 433.355 81.84 433.295 81.95C433.245 82.05 433.145 82.13 432.995 82.19L426.365 85.07V84.32L432.995 87.2C433.145 87.26 433.245 87.345 433.295 87.455C433.355 87.555 433.38 87.665 433.37 87.785C433.36 87.895 433.32 88 433.25 88.1C433.18 88.19 433.085 88.25 432.965 88.28C432.855 88.31 432.73 88.295 432.59 88.235ZM437.849 89.135C437.209 89.135 436.644 88.985 436.154 88.685C435.674 88.375 435.299 87.935 435.029 87.365C434.759 86.785 434.624 86.11 434.624 85.34C434.624 84.55 434.759 83.875 435.029 83.315C435.299 82.755 435.674 82.32 436.154 82.01C436.644 81.7 437.209 81.545 437.849 81.545C438.489 81.545 439.039 81.705 439.499 82.025C439.969 82.335 440.284 82.755 440.444 83.285H440.279V79.085C440.279 78.835 440.344 78.645 440.474 78.515C440.604 78.385 440.789 78.32 441.029 78.32C441.269 78.32 441.454 78.385 441.584 78.515C441.724 78.645 441.794 78.835 441.794 79.085V88.34C441.794 88.58 441.729 88.77 441.599 88.91C441.469 89.04 441.284 89.105 441.044 89.105C440.804 89.105 440.619 89.04 440.489 88.91C440.359 88.77 440.294 88.58 440.294 88.34V87.02L440.459 87.35C440.299 87.89 439.984 88.325 439.514 88.655C439.054 88.975 438.499 89.135 437.849 89.135ZM438.239 87.965C438.649 87.965 439.009 87.865 439.319 87.665C439.629 87.465 439.869 87.17 440.039 86.78C440.219 86.39 440.309 85.91 440.309 85.34C440.309 84.48 440.119 83.83 439.739 83.39C439.359 82.95 438.859 82.73 438.239 82.73C437.819 82.73 437.454 82.83 437.144 83.03C436.834 83.22 436.589 83.51 436.409 83.9C436.239 84.29 436.154 84.77 436.154 85.34C436.154 86.19 436.344 86.84 436.724 87.29C437.104 87.74 437.609 87.965 438.239 87.965ZM444.671 89.09C444.431 89.09 444.246 89.02 444.116 88.88C443.986 88.73 443.921 88.525 443.921 88.265V82.415C443.921 82.155 443.986 81.955 444.116 81.815C444.246 81.675 444.431 81.605 444.671 81.605C444.911 81.605 445.096 81.675 445.226 81.815C445.366 81.955 445.436 82.155 445.436 82.415V88.265C445.436 88.525 445.371 88.73 445.241 88.88C445.111 89.02 444.921 89.09 444.671 89.09ZM444.671 80.045C444.371 80.045 444.136 79.97 443.966 79.82C443.806 79.67 443.726 79.46 443.726 79.19C443.726 78.91 443.806 78.7 443.966 78.56C444.136 78.41 444.371 78.335 444.671 78.335C444.971 78.335 445.201 78.41 445.361 78.56C445.531 78.7 445.616 78.91 445.616 79.19C445.616 79.46 445.531 79.67 445.361 79.82C445.201 79.97 444.971 80.045 444.671 80.045ZM450.404 89.105C450.194 89.105 450.009 89.05 449.849 88.94C449.699 88.83 449.574 88.66 449.474 88.43L446.969 82.61C446.889 82.43 446.859 82.26 446.879 82.1C446.899 81.94 446.974 81.815 447.104 81.725C447.234 81.625 447.409 81.575 447.629 81.575C447.819 81.575 447.969 81.62 448.079 81.71C448.189 81.8 448.289 81.955 448.379 82.175L450.644 87.755H450.224L452.534 82.175C452.624 81.955 452.724 81.8 452.834 81.71C452.954 81.62 453.119 81.575 453.329 81.575C453.509 81.575 453.649 81.625 453.749 81.725C453.859 81.815 453.924 81.94 453.944 82.1C453.974 82.25 453.949 82.415 453.869 82.595L451.334 88.43C451.244 88.66 451.119 88.83 450.959 88.94C450.799 89.05 450.614 89.105 450.404 89.105Z" fill="#498DCC"/>
<path d="M426.8 109.06C426.51 109.06 426.275 108.97 426.095 108.79C425.915 108.61 425.825 108.38 425.825 108.1C425.825 107.82 425.915 107.595 426.095 107.425C426.275 107.245 426.51 107.155 426.8 107.155C427.09 107.155 427.32 107.245 427.49 107.425C427.66 107.595 427.745 107.82 427.745 108.1C427.745 108.38 427.66 108.61 427.49 108.79C427.32 108.97 427.09 109.06 426.8 109.06ZM430.36 109.06C430.07 109.06 429.835 108.97 429.655 108.79C429.475 108.61 429.385 108.38 429.385 108.1C429.385 107.82 429.475 107.595 429.655 107.425C429.835 107.245 430.07 107.155 430.36 107.155C430.65 107.155 430.88 107.245 431.05 107.425C431.22 107.595 431.305 107.82 431.305 108.1C431.305 108.38 431.22 108.61 431.05 108.79C430.88 108.97 430.65 109.06 430.36 109.06ZM433.919 109.06C433.629 109.06 433.394 108.97 433.214 108.79C433.034 108.61 432.944 108.38 432.944 108.1C432.944 107.82 433.034 107.595 433.214 107.425C433.394 107.245 433.629 107.155 433.919 107.155C434.209 107.155 434.439 107.245 434.609 107.425C434.779 107.595 434.864 107.82 434.864 108.1C434.864 108.38 434.779 108.61 434.609 108.79C434.439 108.97 434.209 109.06 433.919 109.06Z" fill="white"/>
<path d="M462.542 89.135C461.792 89.135 461.142 88.98 460.592 88.67C460.052 88.35 459.632 87.905 459.332 87.335C459.032 86.755 458.882 86.075 458.882 85.295C458.882 84.715 458.967 84.195 459.137 83.735C459.307 83.265 459.547 82.87 459.857 82.55C460.177 82.23 460.562 81.985 461.012 81.815C461.472 81.635 461.982 81.545 462.542 81.545C462.892 81.545 463.257 81.6 463.637 81.71C464.027 81.81 464.387 81.98 464.717 82.22C464.847 82.3 464.927 82.4 464.957 82.52C464.997 82.63 465.002 82.745 464.972 82.865C464.952 82.985 464.897 83.09 464.807 83.18C464.727 83.26 464.627 83.31 464.507 83.33C464.387 83.34 464.257 83.305 464.117 83.225C463.877 83.055 463.632 82.935 463.382 82.865C463.132 82.785 462.892 82.745 462.662 82.745C462.302 82.745 461.982 82.805 461.702 82.925C461.432 83.035 461.202 83.2 461.012 83.42C460.822 83.63 460.677 83.895 460.577 84.215C460.487 84.535 460.442 84.9 460.442 85.31C460.442 86.13 460.632 86.775 461.012 87.245C461.402 87.705 461.952 87.935 462.662 87.935C462.892 87.935 463.132 87.9 463.382 87.83C463.632 87.76 463.877 87.64 464.117 87.47C464.257 87.39 464.387 87.36 464.507 87.38C464.627 87.4 464.722 87.455 464.792 87.545C464.872 87.625 464.922 87.725 464.942 87.845C464.972 87.955 464.967 88.07 464.927 88.19C464.887 88.31 464.802 88.41 464.672 88.49C464.352 88.72 464.002 88.885 463.622 88.985C463.252 89.085 462.892 89.135 462.542 89.135ZM468.674 89.135C467.894 89.135 467.304 88.91 466.904 88.46C466.514 88 466.319 87.34 466.319 86.48V79.085C466.319 78.835 466.384 78.645 466.514 78.515C466.644 78.385 466.829 78.32 467.069 78.32C467.309 78.32 467.494 78.385 467.624 78.515C467.764 78.645 467.834 78.835 467.834 79.085V86.39C467.834 86.89 467.934 87.265 468.134 87.515C468.344 87.755 468.644 87.875 469.034 87.875C469.124 87.875 469.204 87.875 469.274 87.875C469.344 87.865 469.414 87.855 469.484 87.845C469.604 87.835 469.689 87.87 469.739 87.95C469.789 88.02 469.814 88.17 469.814 88.4C469.814 88.61 469.769 88.775 469.679 88.895C469.589 89.005 469.444 89.075 469.244 89.105C469.154 89.115 469.059 89.12 468.959 89.12C468.859 89.13 468.764 89.135 468.674 89.135ZM473.244 89.135C472.734 89.135 472.274 89.035 471.864 88.835C471.464 88.635 471.149 88.365 470.919 88.025C470.689 87.685 470.574 87.3 470.574 86.87C470.574 86.33 470.709 85.905 470.979 85.595C471.259 85.275 471.714 85.05 472.344 84.92C472.984 84.78 473.844 84.71 474.924 84.71H475.629V85.64H474.939C474.219 85.64 473.649 85.675 473.229 85.745C472.809 85.815 472.509 85.935 472.329 86.105C472.159 86.265 472.074 86.49 472.074 86.78C472.074 87.16 472.204 87.47 472.464 87.71C472.724 87.94 473.084 88.055 473.544 88.055C473.914 88.055 474.239 87.97 474.519 87.8C474.799 87.62 475.019 87.38 475.179 87.08C475.349 86.78 475.434 86.435 475.434 86.045V84.32C475.434 83.75 475.314 83.34 475.074 83.09C474.834 82.84 474.439 82.715 473.889 82.715C473.569 82.715 473.234 82.755 472.884 82.835C472.544 82.915 472.189 83.05 471.819 83.24C471.649 83.32 471.504 83.345 471.384 83.315C471.264 83.285 471.169 83.22 471.099 83.12C471.029 83.01 470.989 82.895 470.979 82.775C470.979 82.645 471.009 82.52 471.069 82.4C471.139 82.28 471.254 82.19 471.414 82.13C471.854 81.92 472.289 81.77 472.719 81.68C473.149 81.59 473.554 81.545 473.934 81.545C474.604 81.545 475.154 81.65 475.584 81.86C476.024 82.07 476.349 82.39 476.559 82.82C476.769 83.25 476.874 83.805 476.874 84.485V88.34C476.874 88.58 476.814 88.77 476.694 88.91C476.574 89.04 476.399 89.105 476.169 89.105C475.949 89.105 475.774 89.04 475.644 88.91C475.514 88.77 475.449 88.58 475.449 88.34V87.365H475.584C475.504 87.735 475.354 88.055 475.134 88.325C474.924 88.585 474.659 88.785 474.339 88.925C474.019 89.065 473.654 89.135 473.244 89.135ZM481.526 89.135C481.086 89.135 480.631 89.085 480.161 88.985C479.701 88.885 479.276 88.715 478.886 88.475C478.756 88.385 478.666 88.285 478.616 88.175C478.566 88.065 478.546 87.955 478.556 87.845C478.576 87.725 478.621 87.625 478.691 87.545C478.771 87.455 478.866 87.4 478.976 87.38C479.096 87.36 479.221 87.385 479.351 87.455C479.741 87.675 480.116 87.83 480.476 87.92C480.836 88 481.191 88.04 481.541 88.04C482.071 88.04 482.471 87.945 482.741 87.755C483.011 87.565 483.146 87.31 483.146 86.99C483.146 86.73 483.056 86.53 482.876 86.39C482.696 86.24 482.426 86.125 482.066 86.045L480.641 85.76C480.021 85.63 479.551 85.4 479.231 85.07C478.911 84.74 478.751 84.32 478.751 83.81C478.751 83.35 478.876 82.95 479.126 82.61C479.376 82.27 479.726 82.01 480.176 81.83C480.626 81.64 481.146 81.545 481.736 81.545C482.176 81.545 482.591 81.6 482.981 81.71C483.371 81.82 483.731 81.985 484.061 82.205C484.191 82.275 484.276 82.37 484.316 82.49C484.356 82.6 484.361 82.71 484.331 82.82C484.311 82.93 484.261 83.03 484.181 83.12C484.101 83.2 484.001 83.25 483.881 83.27C483.771 83.28 483.646 83.25 483.506 83.18C483.206 82.99 482.906 82.855 482.606 82.775C482.316 82.695 482.026 82.655 481.736 82.655C481.206 82.655 480.806 82.755 480.536 82.955C480.276 83.145 480.146 83.405 480.146 83.735C480.146 83.985 480.226 84.19 480.386 84.35C480.546 84.51 480.796 84.625 481.136 84.695L482.561 84.98C483.211 85.11 483.701 85.33 484.031 85.64C484.371 85.95 484.541 86.37 484.541 86.9C484.541 87.59 484.266 88.135 483.716 88.535C483.166 88.935 482.436 89.135 481.526 89.135ZM488.791 89.135C488.351 89.135 487.896 89.085 487.426 88.985C486.966 88.885 486.541 88.715 486.151 88.475C486.021 88.385 485.931 88.285 485.881 88.175C485.831 88.065 485.811 87.955 485.821 87.845C485.841 87.725 485.886 87.625 485.956 87.545C486.036 87.455 486.131 87.4 486.241 87.38C486.361 87.36 486.486 87.385 486.616 87.455C487.006 87.675 487.381 87.83 487.741 87.92C488.101 88 488.456 88.04 488.806 88.04C489.336 88.04 489.736 87.945 490.006 87.755C490.276 87.565 490.411 87.31 490.411 86.99C490.411 86.73 490.321 86.53 490.141 86.39C489.961 86.24 489.691 86.125 489.331 86.045L487.906 85.76C487.286 85.63 486.816 85.4 486.496 85.07C486.176 84.74 486.016 84.32 486.016 83.81C486.016 83.35 486.141 82.95 486.391 82.61C486.641 82.27 486.991 82.01 487.441 81.83C487.891 81.64 488.411 81.545 489.001 81.545C489.441 81.545 489.856 81.6 490.246 81.71C490.636 81.82 490.996 81.985 491.326 82.205C491.456 82.275 491.541 82.37 491.581 82.49C491.621 82.6 491.626 82.71 491.596 82.82C491.576 82.93 491.526 83.03 491.446 83.12C491.366 83.2 491.266 83.25 491.146 83.27C491.036 83.28 490.911 83.25 490.771 83.18C490.471 82.99 490.171 82.855 489.871 82.775C489.581 82.695 489.291 82.655 489.001 82.655C488.471 82.655 488.071 82.755 487.801 82.955C487.541 83.145 487.411 83.405 487.411 83.735C487.411 83.985 487.491 84.19 487.651 84.35C487.811 84.51 488.061 84.625 488.401 84.695L489.826 84.98C490.476 85.11 490.966 85.33 491.296 85.64C491.636 85.95 491.806 86.37 491.806 86.9C491.806 87.59 491.531 88.135 490.981 88.535C490.431 88.935 489.701 89.135 488.791 89.135Z" fill="#E26760"/>
<path d="M493.732 83.75C493.552 83.75 493.412 83.705 493.312 83.615C493.212 83.515 493.162 83.375 493.162 83.195C493.162 83.015 493.212 82.88 493.312 82.79C493.412 82.69 493.552 82.64 493.732 82.64H500.122C500.312 82.64 500.452 82.69 500.542 82.79C500.642 82.88 500.692 83.015 500.692 83.195C500.692 83.375 500.642 83.515 500.542 83.615C500.452 83.705 500.312 83.75 500.122 83.75H493.732ZM493.732 86.735C493.552 86.735 493.412 86.69 493.312 86.6C493.212 86.5 493.162 86.36 493.162 86.18C493.162 86 493.212 85.865 493.312 85.775C493.412 85.685 493.552 85.64 493.732 85.64H500.122C500.312 85.64 500.452 85.685 500.542 85.775C500.642 85.865 500.692 86 500.692 86.18C500.692 86.37 500.642 86.51 500.542 86.6C500.452 86.69 500.312 86.735 500.122 86.735H493.732Z" fill="#E26760"/>
<path d="M503.386 81.71C503.276 81.85 503.156 81.93 503.026 81.95C502.906 81.97 502.801 81.95 502.711 81.89C502.621 81.82 502.571 81.725 502.561 81.605C502.551 81.475 502.606 81.335 502.726 81.185C502.906 80.955 503.026 80.725 503.086 80.495C503.156 80.265 503.191 80.06 503.191 79.88L503.251 80.27C502.951 80.27 502.706 80.185 502.516 80.015C502.336 79.835 502.246 79.6 502.246 79.31C502.246 79.03 502.331 78.805 502.501 78.635C502.671 78.455 502.901 78.365 503.191 78.365C503.491 78.365 503.726 78.465 503.896 78.665C504.076 78.865 504.166 79.155 504.166 79.535C504.166 79.755 504.141 79.985 504.091 80.225C504.051 80.465 503.976 80.71 503.866 80.96C503.756 81.21 503.596 81.46 503.386 81.71ZM506.071 81.71C505.961 81.85 505.841 81.93 505.711 81.95C505.591 81.97 505.486 81.95 505.396 81.89C505.306 81.82 505.256 81.725 505.246 81.605C505.236 81.475 505.291 81.335 505.411 81.185C505.591 80.955 505.711 80.725 505.771 80.495C505.841 80.265 505.876 80.06 505.876 79.88L505.936 80.27C505.636 80.27 505.391 80.185 505.201 80.015C505.021 79.835 504.931 79.6 504.931 79.31C504.931 79.03 505.016 78.805 505.186 78.635C505.356 78.455 505.586 78.365 505.876 78.365C506.176 78.365 506.411 78.465 506.581 78.665C506.761 78.865 506.851 79.155 506.851 79.535C506.851 79.755 506.826 79.985 506.776 80.225C506.736 80.465 506.661 80.71 506.551 80.96C506.441 81.21 506.281 81.46 506.071 81.71ZM508.655 89.06C508.365 89.06 508.13 88.97 507.95 88.79C507.77 88.61 507.68 88.38 507.68 88.1C507.68 87.82 507.77 87.595 507.95 87.425C508.13 87.245 508.365 87.155 508.655 87.155C508.945 87.155 509.175 87.245 509.345 87.425C509.515 87.595 509.6 87.82 509.6 88.1C509.6 88.38 509.515 88.61 509.345 88.79C509.175 88.97 508.945 89.06 508.655 89.06ZM512.215 89.06C511.925 89.06 511.69 88.97 511.51 88.79C511.33 88.61 511.24 88.38 511.24 88.1C511.24 87.82 511.33 87.595 511.51 87.425C511.69 87.245 511.925 87.155 512.215 87.155C512.505 87.155 512.735 87.245 512.905 87.425C513.075 87.595 513.16 87.82 513.16 88.1C513.16 88.38 513.075 88.61 512.905 88.79C512.735 88.97 512.505 89.06 512.215 89.06ZM515.775 89.06C515.485 89.06 515.25 88.97 515.07 88.79C514.89 88.61 514.8 88.38 514.8 88.1C514.8 87.82 514.89 87.595 515.07 87.425C515.25 87.245 515.485 87.155 515.775 87.155C516.065 87.155 516.295 87.245 516.465 87.425C516.635 87.595 516.72 87.82 516.72 88.1C516.72 88.38 516.635 88.61 516.465 88.79C516.295 88.97 516.065 89.06 515.775 89.06ZM518.694 81.71C518.584 81.85 518.464 81.93 518.334 81.95C518.214 81.97 518.109 81.95 518.019 81.89C517.929 81.82 517.879 81.725 517.869 81.605C517.859 81.475 517.914 81.335 518.034 81.185C518.214 80.955 518.334 80.725 518.394 80.495C518.464 80.265 518.499 80.06 518.499 79.88L518.559 80.27C518.259 80.27 518.014 80.185 517.824 80.015C517.644 79.835 517.554 79.6 517.554 79.31C517.554 79.03 517.639 78.805 517.809 78.635C517.979 78.455 518.209 78.365 518.499 78.365C518.799 78.365 519.034 78.465 519.204 78.665C519.384 78.865 519.474 79.155 519.474 79.535C519.474 79.755 519.449 79.985 519.399 80.225C519.359 80.465 519.284 80.71 519.174 80.96C519.064 81.21 518.904 81.46 518.694 81.71ZM521.379 81.71C521.269 81.85 521.149 81.93 521.019 81.95C520.899 81.97 520.794 81.95 520.704 81.89C520.614 81.82 520.564 81.725 520.554 81.605C520.544 81.475 520.599 81.335 520.719 81.185C520.899 80.955 521.019 80.725 521.079 80.495C521.149 80.265 521.184 80.06 521.184 79.88L521.244 80.27C520.944 80.27 520.699 80.185 520.509 80.015C520.329 79.835 520.239 79.6 520.239 79.31C520.239 79.03 520.324 78.805 520.494 78.635C520.664 78.455 520.894 78.365 521.184 78.365C521.484 78.365 521.719 78.465 521.889 78.665C522.069 78.865 522.159 79.155 522.159 79.535C522.159 79.755 522.134 79.985 522.084 80.225C522.044 80.465 521.969 80.71 521.859 80.96C521.749 81.21 521.589 81.46 521.379 81.71ZM524.394 88.235C524.254 88.295 524.124 88.31 524.004 88.28C523.894 88.25 523.804 88.19 523.734 88.1C523.664 88 523.624 87.895 523.614 87.785C523.604 87.665 523.629 87.555 523.689 87.455C523.749 87.345 523.844 87.26 523.974 87.2L530.619 84.32V85.07L523.974 82.19C523.844 82.13 523.749 82.05 523.689 81.95C523.629 81.84 523.604 81.725 523.614 81.605C523.624 81.485 523.664 81.38 523.734 81.29C523.804 81.2 523.894 81.14 524.004 81.11C524.124 81.07 524.254 81.08 524.394 81.14L530.604 83.885C530.994 84.045 531.189 84.31 531.189 84.68C531.189 84.87 531.139 85.035 531.039 85.175C530.939 85.315 530.794 85.425 530.604 85.505L524.394 88.235Z" fill="#2FB457"/>
<path d="M432.59 128.235L426.38 125.505C425.99 125.345 425.795 125.07 425.795 124.68C425.795 124.49 425.845 124.33 425.945 124.2C426.045 124.07 426.19 123.965 426.38 123.885L432.59 121.14C432.73 121.08 432.855 121.07 432.965 121.11C433.085 121.14 433.18 121.2 433.25 121.29C433.32 121.38 433.36 121.485 433.37 121.605C433.38 121.725 433.355 121.84 433.295 121.95C433.245 122.05 433.145 122.13 432.995 122.19L426.365 125.07V124.32L432.995 127.2C433.145 127.26 433.245 127.345 433.295 127.455C433.355 127.555 433.38 127.665 433.37 127.785C433.36 127.895 433.32 128 433.25 128.1C433.18 128.19 433.085 128.25 432.965 128.28C432.855 128.31 432.73 128.295 432.59 128.235ZM435.044 129.48C434.994 129.64 434.914 129.755 434.804 129.825C434.694 129.895 434.574 129.93 434.444 129.93C434.314 129.93 434.194 129.895 434.084 129.825C433.984 129.765 433.914 129.675 433.874 129.555C433.824 129.435 433.824 129.29 433.874 129.12L437.399 118.2C437.449 118.04 437.529 117.925 437.639 117.855C437.749 117.775 437.864 117.74 437.984 117.75C438.114 117.75 438.229 117.785 438.329 117.855C438.439 117.915 438.514 118.005 438.554 118.125C438.604 118.235 438.609 118.375 438.569 118.545L435.044 129.48ZM441.409 129.135C440.769 129.135 440.204 128.985 439.714 128.685C439.234 128.375 438.859 127.935 438.589 127.365C438.319 126.785 438.184 126.11 438.184 125.34C438.184 124.55 438.319 123.875 438.589 123.315C438.859 122.755 439.234 122.32 439.714 122.01C440.204 121.7 440.769 121.545 441.409 121.545C442.049 121.545 442.599 121.705 443.059 122.025C443.529 122.335 443.844 122.755 444.004 123.285H443.839V119.085C443.839 118.835 443.904 118.645 444.034 118.515C444.164 118.385 444.349 118.32 444.589 118.32C444.829 118.32 445.014 118.385 445.144 118.515C445.284 118.645 445.354 118.835 445.354 119.085V128.34C445.354 128.58 445.289 128.77 445.159 128.91C445.029 129.04 444.844 129.105 444.604 129.105C444.364 129.105 444.179 129.04 444.049 128.91C443.919 128.77 443.854 128.58 443.854 128.34V127.02L444.019 127.35C443.859 127.89 443.544 128.325 443.074 128.655C442.614 128.975 442.059 129.135 441.409 129.135ZM441.799 127.965C442.209 127.965 442.569 127.865 442.879 127.665C443.189 127.465 443.429 127.17 443.599 126.78C443.779 126.39 443.869 125.91 443.869 125.34C443.869 124.48 443.679 123.83 443.299 123.39C442.919 122.95 442.419 122.73 441.799 122.73C441.379 122.73 441.014 122.83 440.704 123.03C440.394 123.22 440.149 123.51 439.969 123.9C439.799 124.29 439.714 124.77 439.714 125.34C439.714 126.19 439.904 126.84 440.284 127.29C440.664 127.74 441.169 127.965 441.799 127.965ZM448.231 129.09C447.991 129.09 447.806 129.02 447.676 128.88C447.546 128.73 447.481 128.525 447.481 128.265V122.415C447.481 122.155 447.546 121.955 447.676 121.815C447.806 121.675 447.991 121.605 448.231 121.605C448.471 121.605 448.656 121.675 448.786 121.815C448.926 121.955 448.996 122.155 448.996 122.415V128.265C448.996 128.525 448.931 128.73 448.801 128.88C448.671 129.02 448.481 129.09 448.231 129.09ZM448.231 120.045C447.931 120.045 447.696 119.97 447.526 119.82C447.366 119.67 447.286 119.46 447.286 119.19C447.286 118.91 447.366 118.7 447.526 118.56C447.696 118.41 447.931 118.335 448.231 118.335C448.531 118.335 448.761 118.41 448.921 118.56C449.091 118.7 449.176 118.91 449.176 119.19C449.176 119.46 449.091 119.67 448.921 119.82C448.761 119.97 448.531 120.045 448.231 120.045ZM453.963 129.105C453.753 129.105 453.568 129.05 453.408 128.94C453.258 128.83 453.133 128.66 453.033 128.43L450.528 122.61C450.448 122.43 450.418 122.26 450.438 122.1C450.458 121.94 450.533 121.815 450.663 121.725C450.793 121.625 450.968 121.575 451.188 121.575C451.378 121.575 451.528 121.62 451.638 121.71C451.748 121.8 451.848 121.955 451.938 122.175L454.203 127.755H453.783L456.093 122.175C456.183 121.955 456.283 121.8 456.393 121.71C456.513 121.62 456.678 121.575 456.888 121.575C457.068 121.575 457.208 121.625 457.308 121.725C457.418 121.815 457.483 121.94 457.503 122.1C457.533 122.25 457.508 122.415 457.428 122.595L454.893 128.43C454.803 128.66 454.678 128.83 454.518 128.94C454.358 129.05 454.173 129.105 453.963 129.105ZM459.281 128.235C459.141 128.295 459.011 128.31 458.891 128.28C458.781 128.25 458.691 128.19 458.621 128.1C458.551 128 458.511 127.895 458.501 127.785C458.491 127.665 458.516 127.555 458.576 127.455C458.636 127.345 458.731 127.26 458.861 127.2L465.506 124.32V125.07L458.861 122.19C458.731 122.13 458.636 122.05 458.576 121.95C458.516 121.84 458.491 121.725 458.501 121.605C458.511 121.485 458.551 121.38 458.621 121.29C458.691 121.2 458.781 121.14 458.891 121.11C459.011 121.07 459.141 121.08 459.281 121.14L465.491 123.885C465.881 124.045 466.076 124.31 466.076 124.68C466.076 124.87 466.026 125.035 465.926 125.175C465.826 125.315 465.681 125.425 465.491 125.505L459.281 128.235Z" fill="#498DCC"/>
<path d="M535 53.5V39.616C535 39.1553 535 38.0003 535 38.0003C535 38.0003 536.156 38.0007 536.616 38H545.385C545.845 38 546.5 38 547 38.0001C547 38.5001 547.001 39.156 547 39.616V53.5L541 50.923L535 53.5Z" fill="#FF0000"/>
<rect x="311" y="414" width="280" height="50" rx="10" fill="url(#paint2_linear_155_108)"/>
<path d="M347.109 445.938C345.641 447.073 344.719 447.729 344.344 447.906C343.781 448.167 343.182 448.297 342.547 448.297C341.557 448.297 340.74 447.958 340.094 447.281C339.458 446.604 339.141 445.714 339.141 444.609C339.141 443.911 339.297 443.307 339.609 442.797C340.036 442.089 340.776 441.422 341.828 440.797C342.891 440.172 344.651 439.411 347.109 438.516V437.953C347.109 436.526 346.88 435.547 346.422 435.016C345.974 434.484 345.318 434.219 344.453 434.219C343.797 434.219 343.276 434.396 342.891 434.75C342.495 435.104 342.297 435.51 342.297 435.969L342.328 436.875C342.328 437.354 342.203 437.724 341.953 437.984C341.714 438.245 341.396 438.375 341 438.375C340.615 438.375 340.297 438.24 340.047 437.969C339.807 437.698 339.688 437.328 339.688 436.859C339.688 435.964 340.146 435.141 341.062 434.391C341.979 433.641 343.266 433.266 344.922 433.266C346.193 433.266 347.234 433.479 348.047 433.906C348.661 434.229 349.115 434.734 349.406 435.422C349.594 435.87 349.688 436.786 349.688 438.172V443.031C349.688 444.396 349.714 445.234 349.766 445.547C349.818 445.849 349.901 446.052 350.016 446.156C350.141 446.26 350.281 446.312 350.438 446.312C350.604 446.312 350.75 446.276 350.875 446.203C351.094 446.068 351.516 445.688 352.141 445.062V445.938C350.974 447.5 349.859 448.281 348.797 448.281C348.286 448.281 347.88 448.104 347.578 447.75C347.276 447.396 347.12 446.792 347.109 445.938ZM347.109 444.922V439.469C345.536 440.094 344.521 440.536 344.062 440.797C343.24 441.255 342.651 441.734 342.297 442.234C341.943 442.734 341.766 443.281 341.766 443.875C341.766 444.625 341.99 445.25 342.438 445.75C342.885 446.24 343.401 446.484 343.984 446.484C344.776 446.484 345.818 445.964 347.109 444.922Z" fill="white"/>
<path d="M473.96 448V447.488L475.592 446.624L482.696 429.92H484.36L491.4 446.56L493.288 447.488V448H485.864V447.488L488.104 446.56L486.12 441.824H479.528L477.576 446.592L479.912 447.488V448H473.96ZM480.2 440.224H485.448L482.792 433.856L480.2 440.224Z" fill="white"/>
<path d="M412.094 432.062C412.99 432.062 413.896 432.281 414.812 432.719C415.75 433.135 416.552 433.719 417.219 434.469V432.375H419.781V448H417.219V445.344C416.677 446.177 415.938 446.906 415 447.531C414.083 448.156 413.031 448.469 411.844 448.469C410.51 448.469 409.292 448.135 408.188 447.469C407.083 446.781 406.198 445.833 405.531 444.625C404.885 443.417 404.562 442.021 404.562 440.438C404.562 438.708 404.885 437.219 405.531 435.969C406.198 434.719 407.104 433.76 408.25 433.094C409.396 432.406 410.677 432.062 412.094 432.062ZM412.562 434.562C411.438 434.562 410.479 434.844 409.688 435.406C408.896 435.969 408.281 436.698 407.844 437.594C407.427 438.469 407.219 439.417 407.219 440.438C407.219 441.438 407.427 442.365 407.844 443.219C408.26 444.052 408.844 444.719 409.594 445.219C410.365 445.719 411.25 445.969 412.25 445.969C413.208 445.969 414.062 445.719 414.812 445.219C415.562 444.719 416.156 444.031 416.594 443.156C417.031 442.26 417.24 441.26 417.219 440.156L417.188 437.156C416.542 436.344 415.844 435.708 415.094 435.25C414.365 434.792 413.521 434.562 412.562 434.562Z" fill="white"/>
<path d="M547.028 448.182C546.681 448.182 546.404 448.104 546.196 447.948C545.988 447.792 545.867 447.584 545.832 447.324C545.797 447.064 545.849 446.769 545.988 446.44L553.034 430.632C553.207 430.216 553.424 429.921 553.684 429.748C553.961 429.575 554.265 429.488 554.594 429.488C554.906 429.488 555.192 429.575 555.452 429.748C555.729 429.921 555.955 430.216 556.128 430.632L563.174 446.44C563.33 446.769 563.391 447.073 563.356 447.35C563.321 447.61 563.209 447.818 563.018 447.974C562.827 448.113 562.559 448.182 562.212 448.182C561.831 448.182 561.527 448.087 561.302 447.896C561.077 447.705 560.877 447.411 560.704 447.012L558.884 442.8L560.106 443.528H549.03L550.226 442.8L548.432 447.012C548.259 447.428 548.068 447.731 547.86 447.922C547.652 448.095 547.375 448.182 547.028 448.182ZM554.542 432.66L550.616 441.968L549.966 441.344H559.144L558.546 441.968L554.594 432.66H554.542Z" fill="white"/>
<path d="M338 453H353" stroke="#2FB457" stroke-width="2" stroke-linecap="round"/>
<defs>
<filter id="filter0_d_155_108" x="0.200195" y="0" width="619.204" height="513.6" filterUnits="userSpaceOnUse" color-interpolation-filters="sRGB">
<feFlood flood-opacity="0" result="BackgroundImageFix"/>
<feColorMatrix in="SourceAlpha" type="matrix" values="0 0 0 0 0 0 0 0 0 0 0 0 0 0 0 0 0 0 127 0" result="hardAlpha"/>
<feOffset dx="5" dy="5"/>
<feGaussianBlur stdDeviation="75"/>
<feComposite in2="hardAlpha" operator="out"/>
<feColorMatrix type="matrix" values="0 0 0 0 0 0 0 0 0 0 0 0 0 0 0 0 0 0 0.5 0"/>
<feBlend mode="normal" in2="BackgroundImageFix" result="effect1_dropShadow_155_108"/>
<feBlend mode="normal" in="SourceGraphic" in2="effect1_dropShadow_155_108" result="shape"/>
</filter>
<linearGradient id="paint0_linear_155_108" x1="311" y1="64" x2="311" y2="430" gradientUnits="userSpaceOnUse">
<stop stop-color="#313131"/>
<stop offset="1" stop-color="#252525"/>
</linearGradient>
<linearGradient id="paint1_linear_155_108" x1="489" y1="739.5" x2="489" y2="59.5" gradientUnits="userSpaceOnUse">
<stop offset="0.0564532" stop-color="#928B8F"/>
<stop offset="1" stop-color="#2C2A2B"/>
</linearGradient>
<linearGradient id="paint2_linear_155_108" x1="451" y1="602.75" x2="451" y2="434" gradientUnits="userSpaceOnUse">
<stop stop-color="#656565"/>
<stop offset="1" stop-color="#313131"/>
</linearGradient>
</defs>
</svg>
