<svg width="705" height="715" viewBox="0 0 705 715" fill="none" xmlns="http://www.w3.org/2000/svg">
<g filter="url(#filter0_d_155_55)">
<path d="M439.938 237.192C431.541 243.784 421.904 248.621 411.599 251.414C410.464 251.826 409.484 252.577 408.791 253.565C408.098 254.554 407.726 255.731 407.726 256.938C407.726 258.145 408.098 259.323 408.791 260.311C409.484 261.3 410.464 262.051 411.599 262.463C492.97 295.843 544.709 244.244 536.83 187.004L550 159.735H534.714C515.664 136.345 465.102 137.52 473.45 187.356C473.45 187.356 446.405 192.175 411.835 158.207C411.035 157.418 410.026 156.874 408.926 156.64C407.827 156.407 406.684 156.493 405.632 156.889C404.581 157.285 403.664 157.973 402.992 158.874C402.32 159.774 401.92 160.848 401.84 161.968C398.184 176.988 400.013 192.818 406.998 206.609C413.983 220.4 425.664 231.246 439.938 237.192Z" fill="url(#paint0_linear_155_55)"/>
</g>
<g filter="url(#filter1_d_155_55)">
<path d="M265.4 528V308C265.4 283.733 272.6 264.4 287 250C301.4 235.333 321.933 228 348.6 228C357.667 228 366.333 228.933 374.6 230.8C383.133 232.667 390.333 235.6 396.2 239.6L379.8 284.8C376.333 282.4 372.467 280.533 368.2 279.2C363.933 277.867 359.4 277.2 354.6 277.2C345.533 277.2 338.467 279.867 333.4 285.2C328.6 290.267 326.2 298 326.2 308.4V328.4L327.8 355.2V528H265.4ZM232.2 365.6V317.6H381.4V365.6H232.2Z" fill="url(#paint1_linear_155_55)"/>
</g>
<g filter="url(#filter2_di_155_55)">
<circle cx="209" cy="209" r="25" fill="url(#paint2_linear_155_55)"/>
</g>
<path d="M203.08 216L207.9 209.68L207.84 211.4L203.22 205.24H206.72L209.64 209.26L208.32 209.3L211.34 205.24H214.66L210.02 211.34V209.66L214.82 216H211.28L208.22 211.72L209.52 211.9L206.48 216H203.08Z" fill="#498DCC"/>
<g filter="url(#filter3_di_155_55)">
<circle cx="170" cy="475" r="25" fill="url(#paint3_linear_155_55)"/>
</g>
<path d="M161.82 482L168.06 468H171.26L177.52 482H174.12L169 469.64H170.28L165.14 482H161.82ZM164.94 479L165.8 476.54H173L173.88 479H164.94Z" fill="#2FB457"/>
<g filter="url(#filter4_di_155_55)">
<circle cx="437" cy="350" r="25" fill="url(#paint4_linear_155_55)"/>
</g>
<path d="M435.14 357V351.28L435.88 353.24L429.72 343H433.16L437.88 350.86H435.9L440.64 343H443.82L437.66 353.24L438.38 351.28V357H435.14Z" fill="#EACD35"/>
<g filter="url(#filter5_di_155_55)">
<circle cx="331" cy="535" r="25" fill="url(#paint5_linear_155_55)"/>
</g>
<path d="M324.66 542V528H331.5C333.26 528 334.58 528.333 335.46 529C336.353 529.667 336.8 530.547 336.8 531.64C336.8 532.373 336.62 533.013 336.26 533.56C335.9 534.093 335.407 534.507 334.78 534.8C334.153 535.093 333.433 535.24 332.62 535.24L333 534.42C333.88 534.42 334.66 534.567 335.34 534.86C336.02 535.14 336.547 535.56 336.92 536.12C337.307 536.68 337.5 537.367 337.5 538.18C337.5 539.38 337.027 540.32 336.08 541C335.133 541.667 333.74 542 331.9 542H324.66ZM327.88 539.56H331.66C332.5 539.56 333.133 539.427 333.56 539.16C334 538.88 334.22 538.44 334.22 537.84C334.22 537.253 334 536.82 333.56 536.54C333.133 536.247 332.5 536.1 331.66 536.1H327.64V533.74H331.1C331.887 533.74 332.487 533.607 332.9 533.34C333.327 533.06 333.54 532.64 333.54 532.08C333.54 531.533 333.327 531.127 332.9 530.86C332.487 530.58 331.887 530.44 331.1 530.44H327.88V539.56Z" fill="#E26760"/>
<rect x="54" y="264" width="130" height="37" rx="10" fill="url(#paint6_linear_155_55)"/>
<path d="M85.538 288.144C85.166 288.144 84.878 288.042 84.674 287.838C84.482 287.622 84.386 287.328 84.386 286.956V276.354C84.386 275.97 84.482 275.676 84.674 275.472C84.878 275.268 85.166 275.166 85.538 275.166C85.91 275.166 86.192 275.268 86.384 275.472C86.588 275.676 86.69 275.97 86.69 276.354V286.956C86.69 287.328 86.594 287.622 86.402 287.838C86.21 288.042 85.922 288.144 85.538 288.144ZM92.6341 288.18C91.8661 288.18 91.1881 287.994 90.6001 287.622C90.0241 287.25 89.5741 286.722 89.2501 286.038C88.9261 285.342 88.7641 284.526 88.7641 283.59C88.7641 282.642 88.9261 281.832 89.2501 281.16C89.5741 280.476 90.0241 279.948 90.6001 279.576C91.1881 279.204 91.8661 279.018 92.6341 279.018C93.3661 279.018 94.0021 279.198 94.5421 279.558C95.0941 279.918 95.4661 280.392 95.6581 280.98H95.4601V276.3C95.4601 275.928 95.5561 275.646 95.7481 275.454C95.9401 275.262 96.2161 275.166 96.5761 275.166C96.9361 275.166 97.2121 275.262 97.4041 275.454C97.6081 275.646 97.7101 275.928 97.7101 276.3V286.992C97.7101 287.364 97.6141 287.652 97.4221 287.856C97.2301 288.048 96.9541 288.144 96.5941 288.144C96.2341 288.144 95.9581 288.048 95.7661 287.856C95.5741 287.652 95.4781 287.364 95.4781 286.992V285.588L95.6761 286.128C95.4961 286.752 95.1301 287.25 94.5781 287.622C94.0261 287.994 93.3781 288.18 92.6341 288.18ZM93.2641 286.47C93.7081 286.47 94.0981 286.362 94.4341 286.146C94.7701 285.93 95.0281 285.612 95.2081 285.192C95.4001 284.76 95.4961 284.226 95.4961 283.59C95.4961 282.63 95.2921 281.916 94.8841 281.448C94.4761 280.968 93.9361 280.728 93.2641 280.728C92.8201 280.728 92.4301 280.836 92.0941 281.052C91.7581 281.256 91.4941 281.574 91.3021 282.006C91.1221 282.426 91.0321 282.954 91.0321 283.59C91.0321 284.538 91.2361 285.258 91.6441 285.75C92.0521 286.23 92.5921 286.47 93.2641 286.47ZM104.381 288.18C103.385 288.18 102.527 287.994 101.807 287.622C101.087 287.25 100.529 286.722 100.133 286.038C99.749 285.354 99.557 284.544 99.557 283.608C99.557 282.696 99.743 281.898 100.115 281.214C100.499 280.53 101.021 279.996 101.681 279.612C102.353 279.216 103.115 279.018 103.967 279.018C104.591 279.018 105.149 279.12 105.641 279.324C106.145 279.528 106.571 279.822 106.919 280.206C107.279 280.59 107.549 281.058 107.729 281.61C107.921 282.15 108.017 282.762 108.017 283.446C108.017 283.662 107.939 283.83 107.783 283.95C107.639 284.058 107.429 284.112 107.153 284.112H101.375V282.816H106.433L106.145 283.086C106.145 282.534 106.061 282.072 105.893 281.7C105.737 281.328 105.503 281.046 105.191 280.854C104.891 280.65 104.513 280.548 104.057 280.548C103.553 280.548 103.121 280.668 102.761 280.908C102.413 281.136 102.143 281.466 101.951 281.898C101.771 282.318 101.681 282.822 101.681 283.41V283.536C101.681 284.52 101.909 285.258 102.365 285.75C102.833 286.23 103.517 286.47 104.417 286.47C104.729 286.47 105.077 286.434 105.461 286.362C105.857 286.278 106.229 286.14 106.577 285.948C106.829 285.804 107.051 285.744 107.243 285.768C107.435 285.78 107.585 285.846 107.693 285.966C107.813 286.086 107.885 286.236 107.909 286.416C107.933 286.584 107.897 286.758 107.801 286.938C107.717 287.118 107.567 287.274 107.351 287.406C106.931 287.67 106.445 287.868 105.893 288C105.353 288.12 104.849 288.18 104.381 288.18ZM112.697 288.18C112.061 288.18 111.491 288.06 110.987 287.82C110.495 287.568 110.105 287.232 109.817 286.812C109.541 286.392 109.403 285.918 109.403 285.39C109.403 284.742 109.571 284.232 109.907 283.86C110.243 283.476 110.789 283.2 111.545 283.032C112.301 282.864 113.315 282.78 114.587 282.78H115.487V284.076H114.605C113.861 284.076 113.267 284.112 112.823 284.184C112.379 284.256 112.061 284.382 111.869 284.562C111.689 284.73 111.599 284.97 111.599 285.282C111.599 285.678 111.737 286.002 112.013 286.254C112.289 286.506 112.673 286.632 113.165 286.632C113.561 286.632 113.909 286.542 114.209 286.362C114.521 286.17 114.767 285.912 114.947 285.588C115.127 285.264 115.217 284.892 115.217 284.472V282.402C115.217 281.802 115.085 281.37 114.821 281.106C114.557 280.842 114.113 280.71 113.489 280.71C113.141 280.71 112.763 280.752 112.355 280.836C111.959 280.92 111.539 281.064 111.095 281.268C110.867 281.376 110.663 281.406 110.483 281.358C110.315 281.31 110.183 281.214 110.087 281.07C109.991 280.914 109.943 280.746 109.943 280.566C109.943 280.386 109.991 280.212 110.087 280.044C110.183 279.864 110.345 279.732 110.573 279.648C111.125 279.42 111.653 279.258 112.157 279.162C112.673 279.066 113.141 279.018 113.561 279.018C114.425 279.018 115.133 279.15 115.685 279.414C116.249 279.678 116.669 280.08 116.945 280.62C117.221 281.148 117.359 281.832 117.359 282.672V286.992C117.359 287.364 117.269 287.652 117.089 287.856C116.909 288.048 116.651 288.144 116.315 288.144C115.979 288.144 115.715 288.048 115.523 287.856C115.343 287.652 115.253 287.364 115.253 286.992V286.128H115.397C115.313 286.548 115.145 286.914 114.893 287.226C114.653 287.526 114.347 287.76 113.975 287.928C113.603 288.096 113.177 288.18 112.697 288.18ZM123.675 288.18C122.895 288.18 122.241 288.048 121.713 287.784C121.197 287.52 120.813 287.136 120.561 286.632C120.309 286.116 120.183 285.48 120.183 284.724V280.89H119.247C118.959 280.89 118.737 280.818 118.581 280.674C118.425 280.518 118.347 280.308 118.347 280.044C118.347 279.768 118.425 279.558 118.581 279.414C118.737 279.27 118.959 279.198 119.247 279.198H120.183V277.56C120.183 277.188 120.279 276.906 120.471 276.714C120.675 276.522 120.957 276.426 121.317 276.426C121.677 276.426 121.953 276.522 122.145 276.714C122.337 276.906 122.433 277.188 122.433 277.56V279.198H124.341C124.629 279.198 124.851 279.27 125.007 279.414C125.163 279.558 125.241 279.768 125.241 280.044C125.241 280.308 125.163 280.518 125.007 280.674C124.851 280.818 124.629 280.89 124.341 280.89H122.433V284.598C122.433 285.174 122.559 285.606 122.811 285.894C123.063 286.182 123.471 286.326 124.035 286.326C124.239 286.326 124.419 286.308 124.575 286.272C124.731 286.236 124.869 286.212 124.989 286.2C125.133 286.188 125.253 286.236 125.349 286.344C125.445 286.44 125.493 286.644 125.493 286.956C125.493 287.196 125.451 287.412 125.367 287.604C125.295 287.784 125.157 287.91 124.953 287.982C124.797 288.03 124.593 288.072 124.341 288.108C124.089 288.156 123.867 288.18 123.675 288.18ZM127.895 288.126C127.535 288.126 127.259 288.018 127.067 287.802C126.875 287.586 126.779 287.286 126.779 286.902V280.296C126.779 279.9 126.875 279.6 127.067 279.396C127.259 279.18 127.535 279.072 127.895 279.072C128.255 279.072 128.531 279.18 128.723 279.396C128.927 279.6 129.029 279.9 129.029 280.296V286.902C129.029 287.286 128.933 287.586 128.741 287.802C128.549 288.018 128.267 288.126 127.895 288.126ZM127.895 277.398C127.475 277.398 127.145 277.296 126.905 277.092C126.677 276.876 126.563 276.582 126.563 276.21C126.563 275.826 126.677 275.532 126.905 275.328C127.145 275.124 127.475 275.022 127.895 275.022C128.327 275.022 128.657 275.124 128.885 275.328C129.113 275.532 129.227 275.826 129.227 276.21C129.227 276.582 129.113 276.876 128.885 277.092C128.657 277.296 128.327 277.398 127.895 277.398ZM135.381 288.18C134.469 288.18 133.677 287.994 133.005 287.622C132.333 287.25 131.811 286.722 131.439 286.038C131.067 285.342 130.881 284.526 130.881 283.59C130.881 282.882 130.983 282.252 131.187 281.7C131.403 281.136 131.709 280.656 132.105 280.26C132.501 279.852 132.975 279.546 133.527 279.342C134.079 279.126 134.697 279.018 135.381 279.018C136.293 279.018 137.085 279.204 137.757 279.576C138.429 279.948 138.951 280.476 139.323 281.16C139.695 281.844 139.881 282.654 139.881 283.59C139.881 284.298 139.773 284.934 139.557 285.498C139.353 286.062 139.053 286.548 138.657 286.956C138.261 287.352 137.787 287.658 137.235 287.874C136.683 288.078 136.065 288.18 135.381 288.18ZM135.381 286.47C135.825 286.47 136.215 286.362 136.551 286.146C136.887 285.93 137.145 285.612 137.325 285.192C137.517 284.76 137.613 284.226 137.613 283.59C137.613 282.63 137.409 281.916 137.001 281.448C136.593 280.968 136.053 280.728 135.381 280.728C134.937 280.728 134.547 280.836 134.211 281.052C133.875 281.256 133.611 281.574 133.419 282.006C133.239 282.426 133.149 282.954 133.149 283.59C133.149 284.538 133.353 285.258 133.761 285.75C134.169 286.23 134.709 286.47 135.381 286.47ZM142.854 288.144C142.494 288.144 142.218 288.048 142.026 287.856C141.834 287.652 141.738 287.364 141.738 286.992V280.188C141.738 279.816 141.834 279.534 142.026 279.342C142.218 279.15 142.488 279.054 142.836 279.054C143.184 279.054 143.454 279.15 143.646 279.342C143.838 279.534 143.934 279.816 143.934 280.188V281.412L143.736 280.962C144 280.326 144.408 279.846 144.96 279.522C145.524 279.186 146.16 279.018 146.868 279.018C147.576 279.018 148.158 279.15 148.614 279.414C149.07 279.678 149.412 280.08 149.64 280.62C149.868 281.148 149.982 281.82 149.982 282.636V286.992C149.982 287.364 149.886 287.652 149.694 287.856C149.502 288.048 149.226 288.144 148.866 288.144C148.506 288.144 148.224 288.048 148.02 287.856C147.828 287.652 147.732 287.364 147.732 286.992V282.744C147.732 282.06 147.6 281.562 147.336 281.25C147.084 280.938 146.688 280.782 146.148 280.782C145.488 280.782 144.96 280.992 144.564 281.412C144.18 281.82 143.988 282.366 143.988 283.05V286.992C143.988 287.76 143.61 288.144 142.854 288.144ZM153.348 288.09C152.94 288.09 152.61 287.964 152.358 287.712C152.118 287.46 151.998 287.136 151.998 286.74C151.998 286.356 152.118 286.044 152.358 285.804C152.61 285.552 152.94 285.426 153.348 285.426C153.768 285.426 154.092 285.552 154.32 285.804C154.56 286.044 154.68 286.356 154.68 286.74C154.68 287.136 154.56 287.46 154.32 287.712C154.092 287.964 153.768 288.09 153.348 288.09Z" fill="white"/>
<rect x="424" y="468" width="130" height="37" rx="10" fill="url(#paint7_linear_155_55)"/>
<path d="M448.61 492C448.214 492 447.908 491.898 447.692 491.694C447.488 491.478 447.386 491.172 447.386 490.776V480.534C447.386 480.138 447.488 479.838 447.692 479.634C447.908 479.418 448.214 479.31 448.61 479.31H455.036C455.336 479.31 455.564 479.388 455.72 479.544C455.888 479.7 455.972 479.922 455.972 480.21C455.972 480.51 455.888 480.744 455.72 480.912C455.564 481.068 455.336 481.146 455.036 481.146H449.6V484.638H454.64C454.952 484.638 455.186 484.716 455.342 484.872C455.498 485.028 455.576 485.256 455.576 485.556C455.576 485.856 455.498 486.084 455.342 486.24C455.186 486.396 454.952 486.474 454.64 486.474H449.6V490.164H455.036C455.336 490.164 455.564 490.242 455.72 490.398C455.888 490.554 455.972 490.782 455.972 491.082C455.972 491.382 455.888 491.61 455.72 491.766C455.564 491.922 455.336 492 455.036 492H448.61ZM458.522 492.09C458.258 492.09 458.036 492.018 457.856 491.874C457.688 491.718 457.598 491.52 457.586 491.28C457.586 491.04 457.688 490.788 457.892 490.524L460.808 486.924V487.986L458.072 484.62C457.856 484.356 457.754 484.104 457.766 483.864C457.778 483.624 457.868 483.432 458.036 483.288C458.216 483.132 458.438 483.054 458.702 483.054C458.978 483.054 459.206 483.102 459.386 483.198C459.578 483.294 459.752 483.444 459.908 483.648L462.068 486.42H461.276L463.454 483.648C463.622 483.444 463.796 483.294 463.976 483.198C464.156 483.102 464.378 483.054 464.642 483.054C464.918 483.054 465.14 483.132 465.308 483.288C465.476 483.444 465.56 483.642 465.56 483.882C465.572 484.122 465.47 484.374 465.254 484.638L462.536 487.968V486.96L465.452 490.524C465.668 490.776 465.77 491.022 465.758 491.262C465.746 491.502 465.65 491.7 465.47 491.856C465.302 492.012 465.08 492.09 464.804 492.09C464.54 492.09 464.318 492.042 464.138 491.946C463.958 491.85 463.784 491.7 463.616 491.496L461.276 488.544H462.032L459.71 491.496C459.554 491.688 459.386 491.838 459.206 491.946C459.026 492.042 458.798 492.09 458.522 492.09ZM471.846 492.18C470.85 492.18 469.992 491.994 469.272 491.622C468.552 491.25 467.994 490.722 467.598 490.038C467.214 489.354 467.022 488.544 467.022 487.608C467.022 486.696 467.208 485.898 467.58 485.214C467.964 484.53 468.486 483.996 469.146 483.612C469.818 483.216 470.58 483.018 471.432 483.018C472.056 483.018 472.614 483.12 473.106 483.324C473.61 483.528 474.036 483.822 474.384 484.206C474.744 484.59 475.014 485.058 475.194 485.61C475.386 486.15 475.482 486.762 475.482 487.446C475.482 487.662 475.404 487.83 475.248 487.95C475.104 488.058 474.894 488.112 474.618 488.112H468.84V486.816H473.898L473.61 487.086C473.61 486.534 473.526 486.072 473.358 485.7C473.202 485.328 472.968 485.046 472.656 484.854C472.356 484.65 471.978 484.548 471.522 484.548C471.018 484.548 470.586 484.668 470.226 484.908C469.878 485.136 469.608 485.466 469.416 485.898C469.236 486.318 469.146 486.822 469.146 487.41V487.536C469.146 488.52 469.374 489.258 469.83 489.75C470.298 490.23 470.982 490.47 471.882 490.47C472.194 490.47 472.542 490.434 472.926 490.362C473.322 490.278 473.694 490.14 474.042 489.948C474.294 489.804 474.516 489.744 474.708 489.768C474.9 489.78 475.05 489.846 475.158 489.966C475.278 490.086 475.35 490.236 475.374 490.416C475.398 490.584 475.362 490.758 475.266 490.938C475.182 491.118 475.032 491.274 474.816 491.406C474.396 491.67 473.91 491.868 473.358 492C472.818 492.12 472.314 492.18 471.846 492.18ZM481.332 492.18C480.408 492.18 479.604 491.994 478.92 491.622C478.236 491.238 477.708 490.698 477.336 490.002C476.964 489.306 476.778 488.49 476.778 487.554C476.778 486.846 476.88 486.216 477.084 485.664C477.3 485.1 477.606 484.626 478.002 484.242C478.398 483.846 478.878 483.546 479.442 483.342C480.006 483.126 480.636 483.018 481.332 483.018C481.728 483.018 482.154 483.072 482.61 483.18C483.078 483.288 483.516 483.468 483.924 483.72C484.116 483.84 484.242 483.984 484.302 484.152C484.362 484.32 484.374 484.494 484.338 484.674C484.302 484.842 484.224 484.992 484.104 485.124C483.996 485.244 483.858 485.322 483.69 485.358C483.522 485.382 483.336 485.34 483.132 485.232C482.868 485.076 482.598 484.962 482.322 484.89C482.046 484.806 481.782 484.764 481.53 484.764C481.134 484.764 480.786 484.83 480.486 484.962C480.186 485.082 479.928 485.262 479.712 485.502C479.508 485.73 479.352 486.018 479.244 486.366C479.136 486.714 479.082 487.116 479.082 487.572C479.082 488.46 479.292 489.162 479.712 489.678C480.144 490.182 480.75 490.434 481.53 490.434C481.782 490.434 482.04 490.398 482.304 490.326C482.58 490.254 482.856 490.14 483.132 489.984C483.336 489.876 483.516 489.84 483.672 489.876C483.84 489.912 483.978 489.996 484.086 490.128C484.194 490.248 484.26 490.398 484.284 490.578C484.308 490.746 484.284 490.914 484.212 491.082C484.152 491.25 484.032 491.388 483.852 491.496C483.456 491.736 483.036 491.91 482.592 492.018C482.148 492.126 481.728 492.18 481.332 492.18ZM488.94 492.18C488.208 492.18 487.602 492.048 487.122 491.784C486.642 491.508 486.282 491.1 486.042 490.56C485.814 490.02 485.7 489.348 485.7 488.544V484.188C485.7 483.804 485.796 483.522 485.988 483.342C486.18 483.15 486.456 483.054 486.816 483.054C487.176 483.054 487.452 483.15 487.644 483.342C487.848 483.522 487.95 483.804 487.95 484.188V488.58C487.95 489.204 488.076 489.666 488.328 489.966C488.58 490.266 488.982 490.416 489.534 490.416C490.134 490.416 490.626 490.212 491.01 489.804C491.394 489.384 491.586 488.832 491.586 488.148V484.188C491.586 483.804 491.682 483.522 491.874 483.342C492.066 483.15 492.342 483.054 492.702 483.054C493.062 483.054 493.338 483.15 493.53 483.342C493.734 483.522 493.836 483.804 493.836 484.188V490.992C493.836 491.76 493.47 492.144 492.738 492.144C492.39 492.144 492.12 492.048 491.928 491.856C491.736 491.652 491.64 491.364 491.64 490.992V489.624L491.892 490.164C491.64 490.812 491.256 491.31 490.74 491.658C490.236 492.006 489.636 492.18 488.94 492.18ZM500.21 492.18C499.43 492.18 498.776 492.048 498.248 491.784C497.732 491.52 497.348 491.136 497.096 490.632C496.844 490.116 496.718 489.48 496.718 488.724V484.89H495.782C495.494 484.89 495.272 484.818 495.116 484.674C494.96 484.518 494.882 484.308 494.882 484.044C494.882 483.768 494.96 483.558 495.116 483.414C495.272 483.27 495.494 483.198 495.782 483.198H496.718V481.56C496.718 481.188 496.814 480.906 497.006 480.714C497.21 480.522 497.492 480.426 497.852 480.426C498.212 480.426 498.488 480.522 498.68 480.714C498.872 480.906 498.968 481.188 498.968 481.56V483.198H500.876C501.164 483.198 501.386 483.27 501.542 483.414C501.698 483.558 501.776 483.768 501.776 484.044C501.776 484.308 501.698 484.518 501.542 484.674C501.386 484.818 501.164 484.89 500.876 484.89H498.968V488.598C498.968 489.174 499.094 489.606 499.346 489.894C499.598 490.182 500.006 490.326 500.57 490.326C500.774 490.326 500.954 490.308 501.11 490.272C501.266 490.236 501.404 490.212 501.524 490.2C501.668 490.188 501.788 490.236 501.884 490.344C501.98 490.44 502.028 490.644 502.028 490.956C502.028 491.196 501.986 491.412 501.902 491.604C501.83 491.784 501.692 491.91 501.488 491.982C501.332 492.03 501.128 492.072 500.876 492.108C500.624 492.156 500.402 492.18 500.21 492.18ZM504.431 492.126C504.071 492.126 503.795 492.018 503.603 491.802C503.411 491.586 503.315 491.286 503.315 490.902V484.296C503.315 483.9 503.411 483.6 503.603 483.396C503.795 483.18 504.071 483.072 504.431 483.072C504.791 483.072 505.067 483.18 505.259 483.396C505.463 483.6 505.565 483.9 505.565 484.296V490.902C505.565 491.286 505.469 491.586 505.277 491.802C505.085 492.018 504.803 492.126 504.431 492.126ZM504.431 481.398C504.011 481.398 503.681 481.296 503.441 481.092C503.213 480.876 503.099 480.582 503.099 480.21C503.099 479.826 503.213 479.532 503.441 479.328C503.681 479.124 504.011 479.022 504.431 479.022C504.863 479.022 505.193 479.124 505.421 479.328C505.649 479.532 505.763 479.826 505.763 480.21C505.763 480.582 505.649 480.876 505.421 481.092C505.193 481.296 504.863 481.398 504.431 481.398ZM511.916 492.18C511.004 492.18 510.212 491.994 509.54 491.622C508.868 491.25 508.346 490.722 507.974 490.038C507.602 489.342 507.416 488.526 507.416 487.59C507.416 486.882 507.518 486.252 507.722 485.7C507.938 485.136 508.244 484.656 508.64 484.26C509.036 483.852 509.51 483.546 510.062 483.342C510.614 483.126 511.232 483.018 511.916 483.018C512.828 483.018 513.62 483.204 514.292 483.576C514.964 483.948 515.486 484.476 515.858 485.16C516.23 485.844 516.416 486.654 516.416 487.59C516.416 488.298 516.308 488.934 516.092 489.498C515.888 490.062 515.588 490.548 515.192 490.956C514.796 491.352 514.322 491.658 513.77 491.874C513.218 492.078 512.6 492.18 511.916 492.18ZM511.916 490.47C512.36 490.47 512.75 490.362 513.086 490.146C513.422 489.93 513.68 489.612 513.86 489.192C514.052 488.76 514.148 488.226 514.148 487.59C514.148 486.63 513.944 485.916 513.536 485.448C513.128 484.968 512.588 484.728 511.916 484.728C511.472 484.728 511.082 484.836 510.746 485.052C510.41 485.256 510.146 485.574 509.954 486.006C509.774 486.426 509.684 486.954 509.684 487.59C509.684 488.538 509.888 489.258 510.296 489.75C510.704 490.23 511.244 490.47 511.916 490.47ZM519.39 492.144C519.03 492.144 518.754 492.048 518.562 491.856C518.37 491.652 518.274 491.364 518.274 490.992V484.188C518.274 483.816 518.37 483.534 518.562 483.342C518.754 483.15 519.024 483.054 519.372 483.054C519.72 483.054 519.99 483.15 520.182 483.342C520.374 483.534 520.47 483.816 520.47 484.188V485.412L520.272 484.962C520.536 484.326 520.944 483.846 521.496 483.522C522.06 483.186 522.696 483.018 523.404 483.018C524.112 483.018 524.694 483.15 525.15 483.414C525.606 483.678 525.948 484.08 526.176 484.62C526.404 485.148 526.518 485.82 526.518 486.636V490.992C526.518 491.364 526.422 491.652 526.23 491.856C526.038 492.048 525.762 492.144 525.402 492.144C525.042 492.144 524.76 492.048 524.556 491.856C524.364 491.652 524.268 491.364 524.268 490.992V486.744C524.268 486.06 524.136 485.562 523.872 485.25C523.62 484.938 523.224 484.782 522.684 484.782C522.024 484.782 521.496 484.992 521.1 485.412C520.716 485.82 520.524 486.366 520.524 487.05V490.992C520.524 491.76 520.146 492.144 519.39 492.144ZM529.883 492.09C529.475 492.09 529.145 491.964 528.893 491.712C528.653 491.46 528.533 491.136 528.533 490.74C528.533 490.356 528.653 490.044 528.893 489.804C529.145 489.552 529.475 489.426 529.883 489.426C530.303 489.426 530.627 489.552 530.855 489.804C531.095 490.044 531.215 490.356 531.215 490.74C531.215 491.136 531.095 491.46 530.855 491.712C530.627 491.964 530.303 492.09 529.883 492.09Z" fill="white"/>
<path d="M184 281.5L286.5 281.5C291 281.5 302.5 281.5 302.5 300.5C302.5 327.5 302.5 419.5 302.5 458.5C302.5 486 312 486 351 486C393.5 486 424 486 424 486" stroke="black" stroke-width="2"/>
<circle cx="187" cy="281" r="3" fill="#498DCC"/>
<circle cx="421" cy="486" r="3" fill="#498DCC"/>
<defs>
<filter id="filter0_d_155_55" x="255" y="0" width="450" height="428" filterUnits="userSpaceOnUse" color-interpolation-filters="sRGB">
<feFlood flood-opacity="0" result="BackgroundImageFix"/>
<feColorMatrix in="SourceAlpha" type="matrix" values="0 0 0 0 0 0 0 0 0 0 0 0 0 0 0 0 0 0 127 0" result="hardAlpha"/>
<feOffset dx="5" dy="5"/>
<feGaussianBlur stdDeviation="75"/>
<feComposite in2="hardAlpha" operator="out"/>
<feColorMatrix type="matrix" values="0 0 0 0 0 0 0 0 0 0 0 0 0 0 0 0 0 0 0.7 0"/>
<feBlend mode="normal" in2="BackgroundImageFix" result="effect1_dropShadow_155_55"/>
<feBlend mode="normal" in="SourceGraphic" in2="effect1_dropShadow_155_55" result="shape"/>
</filter>
<filter id="filter1_d_155_55" x="87.1992" y="83" width="464" height="600" filterUnits="userSpaceOnUse" color-interpolation-filters="sRGB">
<feFlood flood-opacity="0" result="BackgroundImageFix"/>
<feColorMatrix in="SourceAlpha" type="matrix" values="0 0 0 0 0 0 0 0 0 0 0 0 0 0 0 0 0 0 127 0" result="hardAlpha"/>
<feOffset dx="5" dy="5"/>
<feGaussianBlur stdDeviation="75"/>
<feComposite in2="hardAlpha" operator="out"/>
<feColorMatrix type="matrix" values="0 0 0 0 0 0 0 0 0 0 0 0 0 0 0 0 0 0 0.7 0"/>
<feBlend mode="normal" in2="BackgroundImageFix" result="effect1_dropShadow_155_55"/>
<feBlend mode="normal" in="SourceGraphic" in2="effect1_dropShadow_155_55" result="shape"/>
</filter>
<filter id="filter2_di_155_55" x="39" y="39" width="350" height="350" filterUnits="userSpaceOnUse" color-interpolation-filters="sRGB">
<feFlood flood-opacity="0" result="BackgroundImageFix"/>
<feColorMatrix in="SourceAlpha" type="matrix" values="0 0 0 0 0 0 0 0 0 0 0 0 0 0 0 0 0 0 127 0" result="hardAlpha"/>
<feOffset dx="5" dy="5"/>
<feGaussianBlur stdDeviation="75"/>
<feComposite in2="hardAlpha" operator="out"/>
<feColorMatrix type="matrix" values="0 0 0 0 0 0 0 0 0 0 0 0 0 0 0 0 0 0 0.7 0"/>
<feBlend mode="normal" in2="BackgroundImageFix" result="effect1_dropShadow_155_55"/>
<feBlend mode="normal" in="SourceGraphic" in2="effect1_dropShadow_155_55" result="shape"/>
<feColorMatrix in="SourceAlpha" type="matrix" values="0 0 0 0 0 0 0 0 0 0 0 0 0 0 0 0 0 0 127 0" result="hardAlpha"/>
<feOffset dx="22" dy="-16"/>
<feGaussianBlur stdDeviation="7"/>
<feComposite in2="hardAlpha" operator="arithmetic" k2="-1" k3="1"/>
<feColorMatrix type="matrix" values="0 0 0 0 0 0 0 0 0 0 0 0 0 0 0 0 0 0 0.25 0"/>
<feBlend mode="normal" in2="shape" result="effect2_innerShadow_155_55"/>
</filter>
<filter id="filter3_di_155_55" x="0" y="305" width="350" height="350" filterUnits="userSpaceOnUse" color-interpolation-filters="sRGB">
<feFlood flood-opacity="0" result="BackgroundImageFix"/>
<feColorMatrix in="SourceAlpha" type="matrix" values="0 0 0 0 0 0 0 0 0 0 0 0 0 0 0 0 0 0 127 0" result="hardAlpha"/>
<feOffset dx="5" dy="5"/>
<feGaussianBlur stdDeviation="75"/>
<feComposite in2="hardAlpha" operator="out"/>
<feColorMatrix type="matrix" values="0 0 0 0 0 0 0 0 0 0 0 0 0 0 0 0 0 0 0.7 0"/>
<feBlend mode="normal" in2="BackgroundImageFix" result="effect1_dropShadow_155_55"/>
<feBlend mode="normal" in="SourceGraphic" in2="effect1_dropShadow_155_55" result="shape"/>
<feColorMatrix in="SourceAlpha" type="matrix" values="0 0 0 0 0 0 0 0 0 0 0 0 0 0 0 0 0 0 127 0" result="hardAlpha"/>
<feOffset dx="22" dy="-16"/>
<feGaussianBlur stdDeviation="7"/>
<feComposite in2="hardAlpha" operator="arithmetic" k2="-1" k3="1"/>
<feColorMatrix type="matrix" values="0 0 0 0 0 0 0 0 0 0 0 0 0 0 0 0 0 0 0.25 0"/>
<feBlend mode="normal" in2="shape" result="effect2_innerShadow_155_55"/>
</filter>
<filter id="filter4_di_155_55" x="267" y="180" width="350" height="350" filterUnits="userSpaceOnUse" color-interpolation-filters="sRGB">
<feFlood flood-opacity="0" result="BackgroundImageFix"/>
<feColorMatrix in="SourceAlpha" type="matrix" values="0 0 0 0 0 0 0 0 0 0 0 0 0 0 0 0 0 0 127 0" result="hardAlpha"/>
<feOffset dx="5" dy="5"/>
<feGaussianBlur stdDeviation="75"/>
<feComposite in2="hardAlpha" operator="out"/>
<feColorMatrix type="matrix" values="0 0 0 0 0 0 0 0 0 0 0 0 0 0 0 0 0 0 0.7 0"/>
<feBlend mode="normal" in2="BackgroundImageFix" result="effect1_dropShadow_155_55"/>
<feBlend mode="normal" in="SourceGraphic" in2="effect1_dropShadow_155_55" result="shape"/>
<feColorMatrix in="SourceAlpha" type="matrix" values="0 0 0 0 0 0 0 0 0 0 0 0 0 0 0 0 0 0 127 0" result="hardAlpha"/>
<feOffset dx="22" dy="-16"/>
<feGaussianBlur stdDeviation="7"/>
<feComposite in2="hardAlpha" operator="arithmetic" k2="-1" k3="1"/>
<feColorMatrix type="matrix" values="0 0 0 0 0 0 0 0 0 0 0 0 0 0 0 0 0 0 0.25 0"/>
<feBlend mode="normal" in2="shape" result="effect2_innerShadow_155_55"/>
</filter>
<filter id="filter5_di_155_55" x="161" y="365" width="350" height="350" filterUnits="userSpaceOnUse" color-interpolation-filters="sRGB">
<feFlood flood-opacity="0" result="BackgroundImageFix"/>
<feColorMatrix in="SourceAlpha" type="matrix" values="0 0 0 0 0 0 0 0 0 0 0 0 0 0 0 0 0 0 127 0" result="hardAlpha"/>
<feOffset dx="5" dy="5"/>
<feGaussianBlur stdDeviation="75"/>
<feComposite in2="hardAlpha" operator="out"/>
<feColorMatrix type="matrix" values="0 0 0 0 0 0 0 0 0 0 0 0 0 0 0 0 0 0 0.7 0"/>
<feBlend mode="normal" in2="BackgroundImageFix" result="effect1_dropShadow_155_55"/>
<feBlend mode="normal" in="SourceGraphic" in2="effect1_dropShadow_155_55" result="shape"/>
<feColorMatrix in="SourceAlpha" type="matrix" values="0 0 0 0 0 0 0 0 0 0 0 0 0 0 0 0 0 0 127 0" result="hardAlpha"/>
<feOffset dx="22" dy="-16"/>
<feGaussianBlur stdDeviation="7"/>
<feComposite in2="hardAlpha" operator="arithmetic" k2="-1" k3="1"/>
<feColorMatrix type="matrix" values="0 0 0 0 0 0 0 0 0 0 0 0 0 0 0 0 0 0 0.25 0"/>
<feBlend mode="normal" in2="shape" result="effect2_innerShadow_155_55"/>
</filter>
<linearGradient id="paint0_linear_155_55" x1="475" y1="145" x2="475" y2="293" gradientUnits="userSpaceOnUse">
<stop stop-color="#313131"/>
<stop offset="1" stop-color="#252525"/>
</linearGradient>
<linearGradient id="paint1_linear_155_55" x1="306.5" y1="248" x2="306.5" y2="553.6" gradientUnits="userSpaceOnUse">
<stop stop-color="#313131"/>
<stop offset="1" stop-color="#252525"/>
</linearGradient>
<linearGradient id="paint2_linear_155_55" x1="209" y1="193.47" x2="209" y2="357.106" gradientUnits="userSpaceOnUse">
<stop stop-color="#313131"/>
<stop offset="1" stop-color="#5B5B5B"/>
</linearGradient>
<linearGradient id="paint3_linear_155_55" x1="170" y1="459.47" x2="170" y2="623.106" gradientUnits="userSpaceOnUse">
<stop stop-color="#313131"/>
<stop offset="1" stop-color="#5B5B5B"/>
</linearGradient>
<linearGradient id="paint4_linear_155_55" x1="437" y1="334.47" x2="437" y2="498.106" gradientUnits="userSpaceOnUse">
<stop stop-color="#313131"/>
<stop offset="1" stop-color="#5B5B5B"/>
</linearGradient>
<linearGradient id="paint5_linear_155_55" x1="331" y1="519.47" x2="331" y2="683.106" gradientUnits="userSpaceOnUse">
<stop stop-color="#313131"/>
<stop offset="1" stop-color="#5B5B5B"/>
</linearGradient>
<linearGradient id="paint6_linear_155_55" x1="119" y1="366.212" x2="119" y2="273.25" gradientUnits="userSpaceOnUse">
<stop stop-color="#565656"/>
<stop offset="1" stop-color="#313131"/>
</linearGradient>
<linearGradient id="paint7_linear_155_55" x1="489" y1="570.212" x2="489" y2="477.25" gradientUnits="userSpaceOnUse">
<stop stop-color="#565656"/>
<stop offset="1" stop-color="#313131"/>
</linearGradient>
</defs>
</svg>
