<svg width="639" height="602" viewBox="0 0 639 602" fill="none" xmlns="http://www.w3.org/2000/svg">
<g filter="url(#filter0_d_155_80)">
<mask id="path-1-outside-1_155_80" maskUnits="userSpaceOnUse" x="286" y="141" width="194" height="183" fill="black">
<rect fill="white" x="286" y="141" width="194" height="183"/>
<path d="M294.75 320L370 216.25V245.75L298 145H344L393.75 215.25L374.5 215.5L423.5 145H467.5L396 244V215L471.75 320H425L373.5 245.75H392L341.25 320H294.75Z"/>
</mask>
<path d="M294.75 320L291.512 317.651L286.907 324H294.75V320ZM370 216.25H374V203.922L366.762 213.901L370 216.25ZM370 245.75L366.746 248.076L374 258.227V245.75H370ZM298 145V141H290.225L294.746 147.326L298 145ZM344 145L347.264 142.688L346.069 141H344V145ZM393.75 215.25L393.802 219.25L401.414 219.151L397.014 212.938L393.75 215.25ZM374.5 215.5L371.215 213.217L366.779 219.601L374.552 219.5L374.5 215.5ZM423.5 145V141H421.409L420.215 142.717L423.5 145ZM467.5 145L470.743 147.342L475.323 141H467.5V145ZM396 244H392V256.37L399.243 246.342L396 244ZM396 215L399.244 212.66L392 202.619V215H396ZM471.75 320V324H479.568L474.994 317.66L471.75 320ZM425 320L421.713 322.28L422.906 324H425V320ZM373.5 245.75V241.75H365.858L370.213 248.03L373.5 245.75ZM392 245.75L395.302 248.007L399.579 241.75H392V245.75ZM341.25 320V324H343.361L344.552 322.257L341.25 320ZM297.988 322.349L373.238 218.599L366.762 213.901L291.512 317.651L297.988 322.349ZM366 216.25V245.75H374V216.25H366ZM373.254 243.424L301.254 142.674L294.746 147.326L366.746 248.076L373.254 243.424ZM298 149H344V141H298V149ZM340.736 147.312L390.486 217.562L397.014 212.938L347.264 142.688L340.736 147.312ZM393.698 211.25L374.448 211.5L374.552 219.5L393.802 219.25L393.698 211.25ZM377.785 217.783L426.785 147.283L420.215 142.717L371.215 213.217L377.785 217.783ZM423.5 149H467.5V141H423.5V149ZM464.257 142.658L392.757 241.658L399.243 246.342L470.743 147.342L464.257 142.658ZM400 244V215H392V244H400ZM392.756 217.34L468.506 322.34L474.994 317.66L399.244 212.66L392.756 217.34ZM471.75 316H425V324H471.75V316ZM428.287 317.72L376.787 243.47L370.213 248.03L421.713 322.28L428.287 317.72ZM373.5 249.75H392V241.75H373.5V249.75ZM388.698 243.493L337.948 317.743L344.552 322.257L395.302 248.007L388.698 243.493ZM341.25 316H294.75V324H341.25V316Z" fill="url(#paint0_linear_155_80)" mask="url(#path-1-outside-1_155_80)"/>
</g>
<g filter="url(#filter1_d_155_80)">
<path d="M240.2 446.6C210.4 446.6 187.1 438.3 170.3 421.7C153.5 405.1 145.1 381.4 145.1 350.6V233H193.7V348.8C193.7 368.8 197.8 383.2 206 392C214.2 400.8 225.7 405.2 240.5 405.2C255.3 405.2 266.8 400.8 275 392C283.2 383.2 287.3 368.8 287.3 348.8V233H335.3V350.6C335.3 381.4 326.9 405.1 310.1 421.7C293.3 438.3 270 446.6 240.2 446.6Z" fill="url(#paint1_linear_155_80)"/>
</g>
<rect x="62" y="377" width="40" height="40" rx="5" fill="url(#paint2_linear_155_80)"/>
<path d="M73.82 404L80.06 390H83.26L89.52 404H86.12L81 391.64H82.28L77.14 404H73.82ZM76.94 401L77.8 398.54H85L85.88 401H76.94Z" fill="#E26760"/>
<rect x="200" y="145" width="40" height="40" rx="5" fill="url(#paint3_linear_155_80)"/>
<path d="M213.66 172V158H220.5C222.26 158 223.58 158.333 224.46 159C225.353 159.667 225.8 160.547 225.8 161.64C225.8 162.373 225.62 163.013 225.26 163.56C224.9 164.093 224.407 164.507 223.78 164.8C223.153 165.093 222.433 165.24 221.62 165.24L222 164.42C222.88 164.42 223.66 164.567 224.34 164.86C225.02 165.14 225.547 165.56 225.92 166.12C226.307 166.68 226.5 167.367 226.5 168.18C226.5 169.38 226.027 170.32 225.08 171C224.133 171.667 222.74 172 220.9 172H213.66ZM216.88 169.56H220.66C221.5 169.56 222.133 169.427 222.56 169.16C223 168.88 223.22 168.44 223.22 167.84C223.22 167.253 223 166.82 222.56 166.54C222.133 166.247 221.5 166.1 220.66 166.1H216.64V163.74H220.1C220.887 163.74 221.487 163.607 221.9 163.34C222.327 163.06 222.54 162.64 222.54 162.08C222.54 161.533 222.327 161.127 221.9 160.86C221.487 160.58 220.887 160.44 220.1 160.44H216.88V169.56Z" fill="#E26760"/>
<path d="M101 397.968C107.333 397.968 121.4 397.968 127 397.968C134 397.968 163.5 399.771 163.5 376.384C163.5 358.725 164.833 240.178 163.5 183.603C163.5 170.849 172 163 181 163C192.607 163 198.5 163 200 163" stroke="black" stroke-width="2"/>
<circle cx="105" cy="398" r="3" fill="#498DCC"/>
<circle cx="197" cy="163" r="3" fill="#498DCC"/>
<rect x="359" y="71" width="280" height="50" rx="10" fill="url(#paint4_linear_155_80)"/>
<path d="M393.54 103.16C393.14 103.16 392.833 103.053 392.62 102.84C392.407 102.613 392.3 102.293 392.3 101.88V90C392.3 89.5867 392.407 89.2733 392.62 89.06C392.833 88.8467 393.14 88.74 393.54 88.74C393.94 88.74 394.247 88.8467 394.46 89.06C394.687 89.2733 394.8 89.5867 394.8 90V95.18H394.52C394.813 94.4733 395.267 93.94 395.88 93.58C396.507 93.2067 397.213 93.02 398 93.02C398.787 93.02 399.433 93.1667 399.94 93.46C400.447 93.7533 400.827 94.2 401.08 94.8C401.333 95.3867 401.46 96.1333 401.46 97.04V101.88C401.46 102.293 401.353 102.613 401.14 102.84C400.927 103.053 400.62 103.16 400.22 103.16C399.82 103.16 399.507 103.053 399.28 102.84C399.067 102.613 398.96 102.293 398.96 101.88V97.16C398.96 96.4 398.813 95.8467 398.52 95.5C398.24 95.1533 397.8 94.98 397.2 94.98C396.467 94.98 395.88 95.2133 395.44 95.68C395.013 96.1333 394.8 96.74 394.8 97.5V101.88C394.8 102.733 394.38 103.16 393.54 103.16ZM405.819 103C405.473 103 405.199 102.907 404.999 102.72C404.813 102.52 404.719 102.253 404.719 101.92C404.719 101.573 404.813 101.313 404.999 101.14C405.199 100.967 405.473 100.88 405.819 100.88H408.059V91.06H409.299L406.359 92.84C406.106 92.9867 405.866 93.0467 405.639 93.02C405.426 92.98 405.239 92.8867 405.079 92.74C404.933 92.58 404.833 92.3933 404.779 92.18C404.726 91.9667 404.739 91.7533 404.819 91.54C404.913 91.3133 405.086 91.1267 405.339 90.98L408.099 89.32C408.366 89.16 408.633 89.0267 408.899 88.92C409.166 88.8 409.413 88.74 409.639 88.74C409.919 88.74 410.153 88.82 410.339 88.98C410.526 89.1267 410.619 89.3733 410.619 89.72V100.88H412.659C413.006 100.88 413.273 100.967 413.459 101.14C413.659 101.313 413.759 101.573 413.759 101.92C413.759 102.267 413.659 102.533 413.459 102.72C413.273 102.907 413.006 103 412.659 103H405.819Z" fill="#2FB457"/>
<path d="M457.54 103.16C457.14 103.16 456.833 103.053 456.62 102.84C456.407 102.613 456.3 102.293 456.3 101.88V90C456.3 89.5867 456.407 89.2733 456.62 89.06C456.833 88.8467 457.14 88.74 457.54 88.74C457.94 88.74 458.247 88.8467 458.46 89.06C458.687 89.2733 458.8 89.5867 458.8 90V95.18H458.52C458.813 94.4733 459.267 93.94 459.88 93.58C460.507 93.2067 461.213 93.02 462 93.02C462.787 93.02 463.433 93.1667 463.94 93.46C464.447 93.7533 464.827 94.2 465.08 94.8C465.333 95.3867 465.46 96.1333 465.46 97.04V101.88C465.46 102.293 465.353 102.613 465.14 102.84C464.927 103.053 464.62 103.16 464.22 103.16C463.82 103.16 463.507 103.053 463.28 102.84C463.067 102.613 462.96 102.293 462.96 101.88V97.16C462.96 96.4 462.813 95.8467 462.52 95.5C462.24 95.1533 461.8 94.98 461.2 94.98C460.467 94.98 459.88 95.2133 459.44 95.68C459.013 96.1333 458.8 96.74 458.8 97.5V101.88C458.8 102.733 458.38 103.16 457.54 103.16ZM469.359 103C468.933 103 468.619 102.907 468.419 102.72C468.233 102.52 468.139 102.233 468.139 101.86C468.139 101.633 468.199 101.413 468.319 101.2C468.439 100.987 468.613 100.76 468.839 100.52L472.859 96.24C473.473 95.6 473.913 95.02 474.179 94.5C474.446 93.9667 474.579 93.4333 474.579 92.9C474.579 92.2333 474.366 91.7267 473.939 91.38C473.526 91.0333 472.919 90.86 472.119 90.86C471.666 90.86 471.213 90.9267 470.759 91.06C470.306 91.18 469.846 91.3933 469.379 91.7C469.139 91.86 468.913 91.9267 468.699 91.9C468.499 91.8733 468.319 91.7867 468.159 91.64C468.013 91.4933 467.913 91.3133 467.859 91.1C467.806 90.8867 467.813 90.6733 467.879 90.46C467.959 90.2333 468.119 90.04 468.359 89.88C468.933 89.4933 469.573 89.2 470.279 89C470.999 88.8 471.719 88.7 472.439 88.7C473.453 88.7 474.306 88.8533 474.999 89.16C475.693 89.4667 476.219 89.9133 476.579 90.5C476.939 91.0867 477.119 91.8 477.119 92.64C477.119 93.2 477.026 93.7467 476.839 94.28C476.666 94.8133 476.393 95.3533 476.019 95.9C475.659 96.4467 475.186 97.0267 474.599 97.64L470.839 101.56V100.88H476.719C477.079 100.88 477.353 100.967 477.539 101.14C477.726 101.313 477.819 101.573 477.819 101.92C477.819 102.267 477.726 102.533 477.539 102.72C477.353 102.907 477.079 103 476.719 103H469.359Z" fill="white"/>
<path d="M521.54 103.16C521.14 103.16 520.833 103.053 520.62 102.84C520.407 102.613 520.3 102.293 520.3 101.88V90C520.3 89.5867 520.407 89.2733 520.62 89.06C520.833 88.8467 521.14 88.74 521.54 88.74C521.94 88.74 522.247 88.8467 522.46 89.06C522.687 89.2733 522.8 89.5867 522.8 90V95.18H522.52C522.813 94.4733 523.267 93.94 523.88 93.58C524.507 93.2067 525.213 93.02 526 93.02C526.787 93.02 527.433 93.1667 527.94 93.46C528.447 93.7533 528.827 94.2 529.08 94.8C529.333 95.3867 529.46 96.1333 529.46 97.04V101.88C529.46 102.293 529.353 102.613 529.14 102.84C528.927 103.053 528.62 103.16 528.22 103.16C527.82 103.16 527.507 103.053 527.28 102.84C527.067 102.613 526.96 102.293 526.96 101.88V97.16C526.96 96.4 526.813 95.8467 526.52 95.5C526.24 95.1533 525.8 94.98 525.2 94.98C524.467 94.98 523.88 95.2133 523.44 95.68C523.013 96.1333 522.8 96.74 522.8 97.5V101.88C522.8 102.733 522.38 103.16 521.54 103.16ZM536.419 103.2C535.699 103.2 534.953 103.107 534.179 102.92C533.406 102.733 532.733 102.453 532.159 102.08C531.893 101.907 531.713 101.707 531.619 101.48C531.526 101.253 531.499 101.04 531.539 100.84C531.593 100.627 531.693 100.447 531.839 100.3C531.999 100.153 532.193 100.067 532.419 100.04C532.659 100.013 532.919 100.073 533.199 100.22C533.746 100.513 534.273 100.727 534.779 100.86C535.286 100.98 535.806 101.04 536.339 101.04C536.926 101.04 537.419 100.96 537.819 100.8C538.219 100.64 538.519 100.4 538.719 100.08C538.933 99.76 539.039 99.3733 539.039 98.92C539.039 98.2533 538.813 97.76 538.359 97.44C537.919 97.1067 537.273 96.94 536.419 96.94H535.139C534.766 96.94 534.479 96.8467 534.279 96.66C534.093 96.4733 533.999 96.2133 533.999 95.88C533.999 95.5467 534.093 95.2867 534.279 95.1C534.479 94.9133 534.766 94.82 535.139 94.82H536.179C536.686 94.82 537.119 94.74 537.479 94.58C537.839 94.4067 538.119 94.1667 538.319 93.86C538.519 93.5533 538.619 93.18 538.619 92.74C538.619 92.1267 538.413 91.66 537.999 91.34C537.599 91.02 537.013 90.86 536.239 90.86C535.746 90.86 535.279 90.92 534.839 91.04C534.413 91.1467 533.939 91.3533 533.419 91.66C533.179 91.8067 532.946 91.8667 532.719 91.84C532.506 91.8133 532.326 91.7267 532.179 91.58C532.033 91.4333 531.933 91.26 531.879 91.06C531.826 90.8467 531.839 90.6333 531.919 90.42C531.999 90.1933 532.166 90 532.419 89.84C532.993 89.4667 533.626 89.1867 534.319 89C535.013 88.8 535.726 88.7 536.459 88.7C537.433 88.7 538.266 88.8533 538.959 89.16C539.653 89.4533 540.179 89.88 540.539 90.44C540.913 90.9867 541.099 91.6533 541.099 92.44C541.099 93 540.993 93.5133 540.779 93.98C540.566 94.4333 540.266 94.82 539.879 95.14C539.493 95.46 539.026 95.6867 538.479 95.82V95.58C539.439 95.74 540.186 96.14 540.719 96.78C541.253 97.4067 541.519 98.1933 541.519 99.14C541.519 99.9667 541.313 100.687 540.899 101.3C540.486 101.913 539.899 102.387 539.139 102.72C538.379 103.04 537.473 103.2 536.419 103.2Z" fill="white"/>
<path d="M585.54 103.16C585.14 103.16 584.833 103.053 584.62 102.84C584.407 102.613 584.3 102.293 584.3 101.88V90C584.3 89.5867 584.407 89.2733 584.62 89.06C584.833 88.8467 585.14 88.74 585.54 88.74C585.94 88.74 586.247 88.8467 586.46 89.06C586.687 89.2733 586.8 89.5867 586.8 90V95.18H586.52C586.813 94.4733 587.267 93.94 587.88 93.58C588.507 93.2067 589.213 93.02 590 93.02C590.787 93.02 591.433 93.1667 591.94 93.46C592.447 93.7533 592.827 94.2 593.08 94.8C593.333 95.3867 593.46 96.1333 593.46 97.04V101.88C593.46 102.293 593.353 102.613 593.14 102.84C592.927 103.053 592.62 103.16 592.22 103.16C591.82 103.16 591.507 103.053 591.28 102.84C591.067 102.613 590.96 102.293 590.96 101.88V97.16C590.96 96.4 590.813 95.8467 590.52 95.5C590.24 95.1533 589.8 94.98 589.2 94.98C588.467 94.98 587.88 95.2133 587.44 95.68C587.013 96.1333 586.8 96.74 586.8 97.5V101.88C586.8 102.733 586.38 103.16 585.54 103.16ZM602.959 103.16C602.559 103.16 602.246 103.053 602.019 102.84C601.793 102.613 601.679 102.293 601.679 101.88V100.32H596.739C596.326 100.32 595.993 100.233 595.739 100.06C595.499 99.8867 595.379 99.6133 595.379 99.24C595.379 99.0267 595.433 98.7933 595.539 98.54C595.659 98.2867 595.866 97.9533 596.159 97.54L601.639 89.6C601.826 89.32 602.033 89.1067 602.259 88.96C602.486 88.8133 602.746 88.74 603.039 88.74C603.386 88.74 603.673 88.8467 603.899 89.06C604.126 89.26 604.239 89.58 604.239 90.02V98.2H605.219C605.606 98.2 605.893 98.2933 606.079 98.48C606.279 98.6533 606.379 98.9133 606.379 99.26C606.379 99.6067 606.279 99.8733 606.079 100.06C605.893 100.233 605.606 100.32 605.219 100.32H604.239V101.88C604.239 102.293 604.126 102.613 603.899 102.84C603.673 103.053 603.359 103.16 602.959 103.16ZM601.679 98.2V91.96H602.259L597.539 98.88V98.2H601.679Z" fill="white"/>
<rect x="294" y="468" width="250" height="50" rx="8" fill="url(#paint5_linear_155_80)"/>
<rect x="319" y="483" width="20" height="20" rx="2" fill="white"/>
<rect x="364" y="483" width="20" height="20" rx="2" fill="#CBCBCB"/>
<rect x="409" y="483" width="20" height="20" rx="2" fill="#848484"/>
<rect x="453" y="482" width="22" height="22" rx="3" fill="#3F3F3F" stroke="#2FB457" stroke-width="2"/>
<rect x="499" y="483" width="20" height="20" rx="2" fill="black"/>
<defs>
<filter id="filter0_d_155_80" x="149.75" y="0" width="477" height="475" filterUnits="userSpaceOnUse" color-interpolation-filters="sRGB">
<feFlood flood-opacity="0" result="BackgroundImageFix"/>
<feColorMatrix in="SourceAlpha" type="matrix" values="0 0 0 0 0 0 0 0 0 0 0 0 0 0 0 0 0 0 127 0" result="hardAlpha"/>
<feOffset dx="5" dy="5"/>
<feGaussianBlur stdDeviation="75"/>
<feComposite in2="hardAlpha" operator="out"/>
<feColorMatrix type="matrix" values="0 0 0 0 0 0 0 0 0 0 0 0 0 0 0 0 0 0 0.7 0"/>
<feBlend mode="normal" in2="BackgroundImageFix" result="effect1_dropShadow_155_80"/>
<feBlend mode="normal" in="SourceGraphic" in2="effect1_dropShadow_155_80" result="shape"/>
</filter>
<filter id="filter1_d_155_80" x="0.0996094" y="88" width="490.201" height="513.6" filterUnits="userSpaceOnUse" color-interpolation-filters="sRGB">
<feFlood flood-opacity="0" result="BackgroundImageFix"/>
<feColorMatrix in="SourceAlpha" type="matrix" values="0 0 0 0 0 0 0 0 0 0 0 0 0 0 0 0 0 0 127 0" result="hardAlpha"/>
<feOffset dx="5" dy="5"/>
<feGaussianBlur stdDeviation="75"/>
<feComposite in2="hardAlpha" operator="out"/>
<feColorMatrix type="matrix" values="0 0 0 0 0 0 0 0 0 0 0 0 0 0 0 0 0 0 0.7 0"/>
<feBlend mode="normal" in2="BackgroundImageFix" result="effect1_dropShadow_155_80"/>
<feBlend mode="normal" in="SourceGraphic" in2="effect1_dropShadow_155_80" result="shape"/>
</filter>
<linearGradient id="paint0_linear_155_80" x1="383.5" y1="145" x2="383.5" y2="465.5" gradientUnits="userSpaceOnUse">
<stop stop-color="#313131"/>
<stop offset="1" stop-color="#252525"/>
</linearGradient>
<linearGradient id="paint1_linear_155_80" x1="240.5" y1="233" x2="240.5" y2="462.2" gradientUnits="userSpaceOnUse">
<stop stop-color="#313131"/>
<stop offset="1" stop-color="#252525"/>
</linearGradient>
<linearGradient id="paint2_linear_155_80" x1="82" y1="391.5" x2="82" y2="457" gradientUnits="userSpaceOnUse">
<stop stop-color="#313131"/>
<stop offset="1" stop-color="#505050"/>
</linearGradient>
<linearGradient id="paint3_linear_155_80" x1="220" y1="159.5" x2="220" y2="225" gradientUnits="userSpaceOnUse">
<stop stop-color="#313131"/>
<stop offset="1" stop-color="#505050"/>
</linearGradient>
<linearGradient id="paint4_linear_155_80" x1="499" y1="259.75" x2="499" y2="91" gradientUnits="userSpaceOnUse">
<stop stop-color="#656565"/>
<stop offset="1" stop-color="#313131"/>
</linearGradient>
<linearGradient id="paint5_linear_155_80" x1="419" y1="706.125" x2="419" y2="488" gradientUnits="userSpaceOnUse">
<stop stop-color="#656565"/>
<stop offset="1" stop-color="#313131"/>
</linearGradient>
</defs>
</svg>
