<svg width="282" height="282" viewBox="0 0 282 282" fill="none" xmlns="http://www.w3.org/2000/svg">
<path fill-rule="evenodd" clip-rule="evenodd" d="M141.797 0C64.038 0 0.724069 63.0333 0.383669 140.794C0.0711584 212.183 52.9551 271.162 121.799 280.341L121.923 251.971C121.958 243.974 116.947 236.78 109.372 234.238C69.6848 220.884 41.4171 182.898 42.6612 138.421C44.1731 84.272 88.472 41.696 142.626 42.2451C196.59 42.7942 239.975 86.7078 239.738 140.801C239.716 145.869 239.299 150.938 238.517 155.943C226.103 235.428 122.378 280.102 121.813 280.348C127.944 281.158 134.204 281.587 140.564 281.587C218.323 281.587 281.637 218.554 281.977 140.794C282.318 63.0333 219.555 0 141.797 0Z" fill="url(#paint0_linear_275_41882)"/>
<path fill-rule="evenodd" clip-rule="evenodd" d="M141.797 0C64.038 0 0.724069 63.0333 0.383669 140.794C0.0711584 212.183 52.9551 271.162 121.799 280.341L121.923 251.971C121.958 243.974 116.947 236.78 109.372 234.238C69.6848 220.884 41.4171 182.898 42.6612 138.421C44.1731 84.272 88.472 41.696 142.626 42.2451C196.59 42.7942 239.975 86.7078 239.738 140.801C239.716 145.869 239.299 150.938 238.517 155.943C226.103 235.428 122.378 280.102 121.813 280.348C127.944 281.158 134.204 281.587 140.564 281.587C218.323 281.587 281.637 218.554 281.977 140.794C282.318 63.0333 219.555 0 141.797 0Z" fill="url(#paint1_linear_275_41882)" fill-opacity="0.87" style="mix-blend-mode:color-burn"/>
<defs>
<linearGradient id="paint0_linear_275_41882" x1="37.9054" y1="93.4238" x2="228.92" y2="185.12" gradientUnits="userSpaceOnUse">
<stop stop-color="#C833DC"/>
<stop offset="1" stop-color="#79BCFF"/>
</linearGradient>
<linearGradient id="paint1_linear_275_41882" x1="258.073" y1="90.5334" x2="282.234" y2="68.8076" gradientUnits="userSpaceOnUse">
<stop stop-color="#FF2C2C" stop-opacity="0.74"/>
<stop offset="1" stop-color="#FF0091" stop-opacity="0.81"/>
</linearGradient>
</defs>
</svg>
