<svg width="39" height="38" viewBox="0 0 39 38" fill="none" xmlns="http://www.w3.org/2000/svg">
<g filter="url(#filter0_d_247_71163)">
<path d="M19.2752 7.30355C14.9369 7.30355 11.4356 10.7409 11.4356 15C11.4356 19.2591 14.9369 22.6964 19.2752 22.6964C23.6136 22.6964 27.1148 19.2591 27.1148 15C27.1148 10.7409 23.6136 7.30355 19.2752 7.30355ZM19.2752 20.0021C16.4696 20.0021 14.18 17.7544 14.18 15C14.18 12.2456 16.4696 9.99787 19.2752 9.99787C22.0808 9.99787 24.3704 12.2456 24.3704 15C24.3704 17.7544 22.0808 20.0021 19.2752 20.0021ZM27.4359 5.19462C26.423 5.19462 25.605 5.99767 25.605 6.99209C25.605 7.98651 26.423 8.78955 27.4359 8.78955C28.4488 8.78955 29.2668 7.99026 29.2668 6.99209C29.2671 6.75596 29.22 6.52209 29.1281 6.30388C29.0362 6.08567 28.9013 5.8874 28.7312 5.72043C28.5612 5.55346 28.3592 5.42107 28.1369 5.33085C27.9147 5.24062 27.6764 5.19433 27.4359 5.19462ZM34.5569 15C34.5569 12.9286 34.5761 10.876 34.4576 8.80832C34.3391 6.40669 33.781 4.27525 31.9922 2.51907C30.1995 0.759128 28.0322 0.215011 25.5859 0.098682C23.476 -0.0176466 21.3851 0.00111617 19.279 0.00111617C17.1691 0.00111617 15.0783 -0.0176466 12.9722 0.098682C10.5259 0.215011 8.35479 0.762881 6.56593 2.51907C4.77325 4.27901 4.21901 6.40669 4.10052 8.80832C3.98203 10.8797 4.00114 12.9324 4.00114 15C4.00114 17.0676 3.98203 19.124 4.10052 21.1917C4.21901 23.5933 4.77707 25.7247 6.56593 27.4809C8.35861 29.2409 10.5259 29.785 12.9722 29.9013C15.0821 30.0176 17.1729 29.9989 19.279 29.9989C21.389 29.9989 23.4798 30.0176 25.5859 29.9013C28.0322 29.785 30.2033 29.2371 31.9922 27.4809C33.7848 25.721 34.3391 23.5933 34.4576 21.1917C34.5799 19.124 34.5569 17.0714 34.5569 15ZM31.1933 23.8485C30.9143 24.5314 30.5779 25.0418 30.0389 25.5671C29.5 26.0962 28.984 26.4265 28.2883 26.7004C26.2778 27.4847 21.5036 27.3083 19.2752 27.3083C17.0468 27.3083 12.2689 27.4847 10.2583 26.7042C9.56265 26.4302 9.04281 26.1 8.50768 25.5709C7.96873 25.0418 7.63236 24.5352 7.35333 23.8522C6.55828 21.8746 6.73793 17.1877 6.73793 15C6.73793 12.8123 6.55828 8.1216 7.35333 6.14777C7.63236 5.46481 7.96873 4.95446 8.50768 4.42911C9.04663 3.90375 9.56265 3.56978 10.2583 3.29584C12.2689 2.51532 17.0468 2.69168 19.2752 2.69168C21.5036 2.69168 26.2816 2.51532 28.2921 3.29584C28.9878 3.56978 29.5076 3.9 30.0428 4.42911C30.5817 4.95822 30.9181 5.46481 31.1971 6.14777C31.9922 8.1216 31.8125 12.8123 31.8125 15C31.8125 17.1877 31.9922 21.8746 31.1933 23.8485Z" fill="white"/>
</g>
<defs>
<filter id="filter0_d_247_71163" x="0" y="0" width="38.5587" height="38" filterUnits="userSpaceOnUse" color-interpolation-filters="sRGB">
<feFlood flood-opacity="0" result="BackgroundImageFix"/>
<feColorMatrix in="SourceAlpha" type="matrix" values="0 0 0 0 0 0 0 0 0 0 0 0 0 0 0 0 0 0 127 0" result="hardAlpha"/>
<feOffset dy="4"/>
<feGaussianBlur stdDeviation="2"/>
<feComposite in2="hardAlpha" operator="out"/>
<feColorMatrix type="matrix" values="0 0 0 0 0 0 0 0 0 0 0 0 0 0 0 0 0 0 0.25 0"/>
<feBlend mode="normal" in2="BackgroundImageFix" result="effect1_dropShadow_247_71163"/>
<feBlend mode="normal" in="SourceGraphic" in2="effect1_dropShadow_247_71163" result="shape"/>
</filter>
</defs>
</svg>
