<svg width="38" height="38" viewBox="0 0 38 38" fill="none" xmlns="http://www.w3.org/2000/svg">
<g filter="url(#filter0_d_247_71178)">
<path d="M4.57296 30H10.3026V9.1875H4.57296V30ZM7.43778 0C5.5279 0 4 1.5 4 3.375C4 5.25 5.5279 6.75 7.43778 6.75C9.34766 6.75 10.8756 5.25 10.8756 3.375C10.8756 1.5 9.34766 0 7.43778 0ZM20.043 12.375V9.1875H14.3134V30H20.043V19.3125C20.043 13.3125 27.8735 12.9375 27.8735 19.3125V30H33.6031V17.25C33.6031 7.125 22.7168 7.5 20.043 12.375Z" fill="white"/>
</g>
<defs>
<filter id="filter0_d_247_71178" x="0" y="0" width="37.6031" height="38" filterUnits="userSpaceOnUse" color-interpolation-filters="sRGB">
<feFlood flood-opacity="0" result="BackgroundImageFix"/>
<feColorMatrix in="SourceAlpha" type="matrix" values="0 0 0 0 0 0 0 0 0 0 0 0 0 0 0 0 0 0 127 0" result="hardAlpha"/>
<feOffset dy="4"/>
<feGaussianBlur stdDeviation="2"/>
<feComposite in2="hardAlpha" operator="out"/>
<feColorMatrix type="matrix" values="0 0 0 0 0 0 0 0 0 0 0 0 0 0 0 0 0 0 0.25 0"/>
<feBlend mode="normal" in2="BackgroundImageFix" result="effect1_dropShadow_247_71178"/>
<feBlend mode="normal" in="SourceGraphic" in2="effect1_dropShadow_247_71178" result="shape"/>
</filter>
</defs>
</svg>
