<svg width="36" height="38" viewBox="0 0 36 38" fill="none" xmlns="http://www.w3.org/2000/svg">
<g filter="url(#filter0_d_247_71169)">
<path d="M31.8054 28.062L21.8484 12.6998L31.6734 2.08931C31.8956 1.84341 32.0101 1.52143 31.9921 1.19319C31.9741 0.864946 31.8251 0.556892 31.5773 0.335813C31.3295 0.114735 31.0029 -0.00154877 30.6684 0.0121733C30.3338 0.0258953 30.0183 0.168517 29.7901 0.409117L20.4313 10.5152L13.9911 0.579322C13.8762 0.401863 13.7176 0.25573 13.5299 0.154462C13.3423 0.0531933 13.1316 6.51624e-05 12.9174 1.47774e-07H5.28271C5.05456 -0.000108781 4.83058 0.0600049 4.63422 0.174046C4.43786 0.288088 4.27634 0.451862 4.16658 0.64822C4.05682 0.844577 4.00285 1.0663 4.01033 1.29016C4.0178 1.51402 4.08645 1.73179 4.20908 1.92066L14.166 17.2813L4.3411 27.8996C4.22637 28.0206 4.13724 28.1628 4.07887 28.3178C4.02051 28.4729 3.99408 28.6378 4.00111 28.8029C4.00814 28.9681 4.04849 29.1303 4.11982 29.28C4.19116 29.4297 4.29205 29.5641 4.41667 29.6753C4.54128 29.7865 4.68713 29.8722 4.84577 29.9277C5.0044 29.9831 5.17267 30.0071 5.34081 29.9982C5.50895 29.9893 5.67362 29.9478 5.82529 29.8759C5.97695 29.8041 6.11258 29.7035 6.22433 29.5798L15.5832 19.4737L22.0234 29.4096C22.1392 29.5856 22.2982 29.7302 22.4858 29.8301C22.6734 29.9299 22.8836 29.9819 23.097 29.9811H30.7317C30.9596 29.981 31.1833 29.9209 31.3795 29.8069C31.5756 29.693 31.7369 29.5294 31.8467 29.3333C31.9564 29.1372 32.0104 28.9157 32.0032 28.6921C31.9959 28.4685 31.9276 28.2509 31.8054 28.062ZM23.7953 27.4827L7.60016 2.49843H12.2128L28.4143 27.4827H23.7953Z" fill="white"/>
</g>
<defs>
<filter id="filter0_d_247_71169" x="0" y="0" width="36.0038" height="38" filterUnits="userSpaceOnUse" color-interpolation-filters="sRGB">
<feFlood flood-opacity="0" result="BackgroundImageFix"/>
<feColorMatrix in="SourceAlpha" type="matrix" values="0 0 0 0 0 0 0 0 0 0 0 0 0 0 0 0 0 0 127 0" result="hardAlpha"/>
<feOffset dy="4"/>
<feGaussianBlur stdDeviation="2"/>
<feComposite in2="hardAlpha" operator="out"/>
<feColorMatrix type="matrix" values="0 0 0 0 0 0 0 0 0 0 0 0 0 0 0 0 0 0 0.25 0"/>
<feBlend mode="normal" in2="BackgroundImageFix" result="effect1_dropShadow_247_71169"/>
<feBlend mode="normal" in="SourceGraphic" in2="effect1_dropShadow_247_71169" result="shape"/>
</filter>
</defs>
</svg>
