<svg width="38" height="32" viewBox="0 0 38 32" fill="none" xmlns="http://www.w3.org/2000/svg">
<g filter="url(#filter0_d_247_71172)">
<path fill-rule="evenodd" clip-rule="evenodd" d="M19 0C20.2825 0 21.598 0.0323975 22.873 0.0854112L24.379 0.156096L25.8205 0.240035L27.1705 0.329864L28.4035 0.424111C29.7416 0.524657 31.0007 1.08523 31.9593 2.00722C32.9179 2.92921 33.5146 4.15354 33.6445 5.46484L33.7045 6.0907L33.817 7.43077C33.922 8.81943 34 10.3333 34 11.7808C34 13.2284 33.922 14.7423 33.817 16.1309L33.7045 17.471C33.685 17.686 33.6655 17.8936 33.6445 18.0968C33.5146 19.4084 32.9176 20.6329 31.9587 21.5549C30.9998 22.4769 29.7403 23.0374 28.402 23.1376L27.172 23.2304L25.822 23.3217L24.379 23.4056L22.873 23.4763C21.5828 23.5313 20.2915 23.5598 19 23.5617C17.7085 23.5598 16.4173 23.5313 15.127 23.4763L13.621 23.4056L12.1795 23.3217L10.8295 23.2304L9.5965 23.1376C8.25843 23.037 6.99933 22.4765 6.04071 21.5545C5.08209 20.6325 4.48536 19.4081 4.3555 18.0968L4.2955 17.471L4.183 16.1309C4.06831 14.6836 4.00727 13.2326 4 11.7808C4 10.3333 4.078 8.81943 4.183 7.43077L4.2955 6.0907C4.315 5.8757 4.3345 5.66806 4.3555 5.46484C4.48531 4.15377 5.08183 2.92962 6.04014 2.00767C6.99845 1.08571 8.25719 0.524988 9.595 0.424111L10.8265 0.329864L12.1765 0.240035L13.6195 0.156096L15.1255 0.0854112C16.4163 0.0303842 17.708 0.00190744 19 0ZM16 8.20977V15.3519C16 16.0323 16.75 16.4564 17.35 16.1177L23.65 12.5466C23.7871 12.4691 23.901 12.3576 23.9801 12.2231C24.0593 12.0887 24.101 11.9361 24.101 11.7808C24.101 11.6256 24.0593 11.473 23.9801 11.3386C23.901 11.2041 23.7871 11.0926 23.65 11.0151L17.35 7.44549C17.2131 7.36792 17.0579 7.32709 16.8999 7.32712C16.7418 7.32714 16.5866 7.36802 16.4497 7.44563C16.3129 7.52325 16.1993 7.63487 16.1204 7.76927C16.0414 7.90367 15.9999 8.0561 16 8.21125V8.20977Z" fill="white"/>
</g>
<defs>
<filter id="filter0_d_247_71172" x="0" y="0" width="38" height="31.5615" filterUnits="userSpaceOnUse" color-interpolation-filters="sRGB">
<feFlood flood-opacity="0" result="BackgroundImageFix"/>
<feColorMatrix in="SourceAlpha" type="matrix" values="0 0 0 0 0 0 0 0 0 0 0 0 0 0 0 0 0 0 127 0" result="hardAlpha"/>
<feOffset dy="4"/>
<feGaussianBlur stdDeviation="2"/>
<feComposite in2="hardAlpha" operator="out"/>
<feColorMatrix type="matrix" values="0 0 0 0 0 0 0 0 0 0 0 0 0 0 0 0 0 0 0.25 0"/>
<feBlend mode="normal" in2="BackgroundImageFix" result="effect1_dropShadow_247_71172"/>
<feBlend mode="normal" in="SourceGraphic" in2="effect1_dropShadow_247_71172" result="shape"/>
</filter>
</defs>
</svg>
