<svg width="376" height="43" viewBox="0 0 376 43" fill="none" xmlns="http://www.w3.org/2000/svg">
<path fill-rule="evenodd" clip-rule="evenodd" d="M21.1496 0C9.46917 0 0 9.46867 0 21.1496C0 31.8735 7.98267 40.733 18.33 42.112V37.8503C18.33 36.649 17.5725 35.5683 16.433 35.1866C10.4626 33.1805 6.19146 27.4744 6.3491 20.7932C6.5406 12.6591 13.1669 6.26345 21.3019 6.34593C29.4084 6.42841 35.9543 13.025 35.9543 21.1506C35.9543 21.912 35.895 22.6734 35.7808 23.4253C33.9684 35.3653 18.4167 42.076 18.3321 42.113C19.2536 42.2346 20.1942 42.2992 21.1496 42.2992C32.83 42.2992 42.2992 32.8305 42.2992 21.1496C42.2992 9.46867 32.83 0 21.1496 0Z" fill="url(#paint0_linear_98_2248)"/>
<path d="M56.3707 31.1496L65.3099 11.41H68.1016L77.0691 31.1496H74.1081L66.1277 12.9891H67.2557L59.2752 31.1496H56.3707ZM60.1776 26.2147L60.939 23.9587H72.0496L72.8673 26.2147H60.1776ZM79.6189 31.1496V10.2256H82.3261V31.1496H79.6189ZM94.15 31.3188C92.552 31.3188 91.1421 30.9898 89.9201 30.3318C88.7169 29.6738 87.7769 28.7714 87.1001 27.6247C86.4421 26.4779 86.1132 25.1619 86.1132 23.6767C86.1132 22.1916 86.4327 20.8756 87.0719 19.7288C87.7299 18.582 88.6229 17.689 89.7509 17.0499C90.8977 16.3919 92.1854 16.0629 93.6142 16.0629C95.0618 16.0629 96.3401 16.3825 97.4493 17.0217C98.5585 17.6609 99.4233 18.5632 100.044 19.7288C100.683 20.8756 101.002 22.2198 101.002 23.7613C101.002 23.8741 100.993 24.0057 100.974 24.1561C100.974 24.3065 100.965 24.4475 100.946 24.5791H88.2281V22.6334H99.5361L98.4363 23.3101C98.4551 22.3514 98.2577 21.496 97.8441 20.744C97.4305 19.992 96.8571 19.4092 96.124 18.9956C95.4096 18.5632 94.573 18.347 93.6142 18.347C92.6742 18.347 91.8376 18.5632 91.1045 18.9956C90.3713 19.4092 89.7979 20.0014 89.3843 20.7722C88.9707 21.5242 88.7639 22.389 88.7639 23.3665V23.8177C88.7639 24.8141 88.9895 25.7071 89.4407 26.4967C89.9107 27.2675 90.5593 27.869 91.3864 28.3014C92.2136 28.7338 93.163 28.95 94.2346 28.95C95.1182 28.95 95.9172 28.7996 96.6315 28.4988C97.3647 28.198 98.0039 27.7468 98.5491 27.1453L100.044 28.8936C99.3669 29.6832 98.5209 30.2848 97.5057 30.6984C96.5093 31.112 95.3908 31.3188 94.15 31.3188ZM102.177 31.1496L108.607 22.8025L108.578 24.1843L102.459 16.2039H105.476L110.158 22.3514H109.001L113.683 16.2039H116.643L110.44 24.2407L110.468 22.8025L116.954 31.1496H113.88L108.945 24.6073L110.045 24.7765L105.194 31.1496H102.177ZM128.91 31.1496V27.9912L128.769 27.3991V22.013C128.769 20.8662 128.431 19.9826 127.754 19.3622C127.096 18.723 126.099 18.4034 124.765 18.4034C123.881 18.4034 123.016 18.5538 122.17 18.8546C121.324 19.1366 120.61 19.522 120.027 20.0108L118.899 17.9804C119.67 17.3601 120.591 16.8901 121.663 16.5705C122.753 16.2321 123.89 16.0629 125.075 16.0629C127.124 16.0629 128.703 16.5611 129.812 17.5575C130.922 18.5538 131.476 20.0766 131.476 22.1258V31.1496H128.91ZM124.003 31.3188C122.894 31.3188 121.917 31.1308 121.071 30.7548C120.243 30.3788 119.604 29.8618 119.153 29.2038C118.702 28.527 118.476 27.7656 118.476 26.9197C118.476 26.1113 118.664 25.3781 119.04 24.7201C119.435 24.0621 120.065 23.5357 120.93 23.1409C121.813 22.7461 122.998 22.5488 124.483 22.5488H129.22V24.4945H124.595C123.242 24.4945 122.33 24.7201 121.86 25.1713C121.39 25.6225 121.155 26.1677 121.155 26.8069C121.155 27.5401 121.447 28.1322 122.029 28.5834C122.612 29.0158 123.42 29.232 124.454 29.232C125.47 29.232 126.353 29.0064 127.105 28.5552C127.876 28.104 128.431 27.4461 128.769 26.5813L129.305 28.4424C128.948 29.326 128.318 30.031 127.415 30.5574C126.513 31.065 125.376 31.3188 124.003 31.3188ZM144.454 31.1496V11.41H152.773C154.878 11.41 156.73 11.8236 158.328 12.6508C159.945 13.4779 161.195 14.6341 162.078 16.1193C162.981 17.6045 163.432 19.3246 163.432 21.2798C163.432 23.2349 162.981 24.9551 162.078 26.4403C161.195 27.9254 159.945 29.0816 158.328 29.9088C156.73 30.736 154.878 31.1496 152.773 31.1496H144.454ZM147.274 28.6962H152.603C154.239 28.6962 155.649 28.386 156.833 27.7656C158.037 27.1453 158.967 26.2805 159.625 25.1713C160.283 24.0433 160.612 22.7461 160.612 21.2798C160.612 19.7946 160.283 18.4974 159.625 17.3883C158.967 16.2791 158.037 15.4143 156.833 14.7939C155.649 14.1735 154.239 13.8633 152.603 13.8633H147.274V28.6962ZM174.012 31.3188C172.414 31.3188 171.004 30.9898 169.782 30.3318C168.579 29.6738 167.639 28.7714 166.962 27.6247C166.304 26.4779 165.975 25.1619 165.975 23.6767C165.975 22.1916 166.294 20.8756 166.934 19.7288C167.592 18.582 168.485 17.689 169.613 17.0499C170.759 16.3919 172.047 16.0629 173.476 16.0629C174.923 16.0629 176.202 16.3825 177.311 17.0217C178.42 17.6609 179.285 18.5632 179.905 19.7288C180.545 20.8756 180.864 22.2198 180.864 23.7613C180.864 23.8741 180.855 24.0057 180.836 24.1561C180.836 24.3065 180.827 24.4475 180.808 24.5791H168.09V22.6334H179.398L178.298 23.3101C178.317 22.3514 178.119 21.496 177.706 20.744C177.292 19.992 176.719 19.4092 175.986 18.9956C175.271 18.5632 174.435 18.347 173.476 18.347C172.536 18.347 171.699 18.5632 170.966 18.9956C170.233 19.4092 169.66 20.0014 169.246 20.7722C168.832 21.5242 168.626 22.389 168.626 23.3665V23.8177C168.626 24.8141 168.851 25.7071 169.302 26.4967C169.772 27.2675 170.421 27.869 171.248 28.3014C172.075 28.7338 173.025 28.95 174.096 28.95C174.98 28.95 175.779 28.7996 176.493 28.4988C177.226 28.198 177.866 27.7468 178.411 27.1453L179.905 28.8936C179.229 29.6832 178.383 30.2848 177.367 30.6984C176.371 31.112 175.252 31.3188 174.012 31.3188ZM188.268 31.1496L181.725 16.2039H184.545L190.354 29.7396H189.001L194.923 16.2039H197.573L191.031 31.1496H188.268ZM206.342 31.3188C204.744 31.3188 203.334 30.9898 202.112 30.3318C200.909 29.6738 199.969 28.7714 199.292 27.6247C198.634 26.4779 198.305 25.1619 198.305 23.6767C198.305 22.1916 198.625 20.8756 199.264 19.7288C199.922 18.582 200.815 17.689 201.943 17.0499C203.09 16.3919 204.377 16.0629 205.806 16.0629C207.254 16.0629 208.532 16.3825 209.641 17.0217C210.75 17.6609 211.615 18.5632 212.236 19.7288C212.875 20.8756 213.194 22.2198 213.194 23.7613C213.194 23.8741 213.185 24.0057 213.166 24.1561C213.166 24.3065 213.157 24.4475 213.138 24.5791H200.42V22.6334H211.728L210.628 23.3101C210.647 22.3514 210.45 21.496 210.036 20.744C209.622 19.992 209.049 19.4092 208.316 18.9956C207.601 18.5632 206.765 18.347 205.806 18.347C204.866 18.347 204.03 18.5632 203.296 18.9956C202.563 19.4092 201.99 20.0014 201.576 20.7722C201.163 21.5242 200.956 22.389 200.956 23.3665V23.8177C200.956 24.8141 201.181 25.7071 201.633 26.4967C202.103 27.2675 202.751 27.869 203.578 28.3014C204.406 28.7338 205.355 28.95 206.426 28.95C207.31 28.95 208.109 28.7996 208.823 28.4988C209.557 28.198 210.196 27.7468 210.741 27.1453L212.236 28.8936C211.559 29.6832 210.713 30.2848 209.698 30.6984C208.701 31.112 207.583 31.3188 206.342 31.3188ZM216.953 31.1496V10.2256H219.661V31.1496H216.953ZM231.231 31.3188C229.727 31.3188 228.392 30.9898 227.226 30.3318C226.061 29.6738 225.14 28.7714 224.463 27.6247C223.786 26.4591 223.448 25.1431 223.448 23.6767C223.448 22.1916 223.786 20.8756 224.463 19.7288C225.14 18.582 226.061 17.689 227.226 17.0499C228.392 16.3919 229.727 16.0629 231.231 16.0629C232.716 16.0629 234.041 16.3919 235.207 17.0499C236.391 17.689 237.312 18.582 237.97 19.7288C238.647 20.8568 238.986 22.1728 238.986 23.6767C238.986 25.1619 238.647 26.4779 237.97 27.6247C237.312 28.7714 236.391 29.6738 235.207 30.3318C234.041 30.9898 232.716 31.3188 231.231 31.3188ZM231.231 28.95C232.19 28.95 233.045 28.7338 233.797 28.3014C234.568 27.869 235.169 27.2581 235.602 26.4685C236.034 25.6601 236.25 24.7295 236.25 23.6767C236.25 22.6052 236.034 21.684 235.602 20.9132C235.169 20.1236 234.568 19.5126 233.797 19.0802C233.045 18.6478 232.19 18.4316 231.231 18.4316C230.272 18.4316 229.417 18.6478 228.665 19.0802C227.913 19.5126 227.311 20.1236 226.86 20.9132C226.409 21.684 226.183 22.6052 226.183 23.6767C226.183 24.7295 226.409 25.6601 226.86 26.4685C227.311 27.2581 227.913 27.869 228.665 28.3014C229.417 28.7338 230.272 28.95 231.231 28.95ZM250.654 31.3188C249.413 31.3188 248.275 31.0368 247.241 30.4728C246.226 29.89 245.408 29.0346 244.788 27.9066C244.186 26.7787 243.886 25.3687 243.886 23.6767C243.886 21.9848 244.177 20.5748 244.76 19.4468C245.361 18.3188 246.17 17.4729 247.185 16.9089C248.219 16.3449 249.375 16.0629 250.654 16.0629C252.12 16.0629 253.417 16.3825 254.545 17.0217C255.673 17.6609 256.566 18.5538 257.224 19.7006C257.882 20.8286 258.211 22.154 258.211 23.6767C258.211 25.1995 257.882 26.5343 257.224 27.6811C256.566 28.8278 255.673 29.7208 254.545 30.36C253.417 30.9992 252.12 31.3188 250.654 31.3188ZM242.73 36.6203V16.2039H245.324V20.2364L245.155 23.7049L245.437 27.1735V36.6203H242.73ZM250.428 28.95C251.387 28.95 252.242 28.7338 252.994 28.3014C253.765 27.869 254.366 27.2581 254.799 26.4685C255.25 25.6601 255.476 24.7295 255.476 23.6767C255.476 22.6052 255.25 21.684 254.799 20.9132C254.366 20.1236 253.765 19.5126 252.994 19.0802C252.242 18.6478 251.387 18.4316 250.428 18.4316C249.488 18.4316 248.633 18.6478 247.862 19.0802C247.11 19.5126 246.508 20.1236 246.057 20.9132C245.625 21.684 245.408 22.6052 245.408 23.6767C245.408 24.7295 245.625 25.6601 246.057 26.4685C246.508 27.2581 247.11 27.869 247.862 28.3014C248.633 28.7338 249.488 28.95 250.428 28.95ZM268.606 31.3188C267.009 31.3188 265.599 30.9898 264.377 30.3318C263.173 29.6738 262.233 28.7714 261.557 27.6247C260.899 26.4779 260.57 25.1619 260.57 23.6767C260.57 22.1916 260.889 20.8756 261.528 19.7288C262.186 18.582 263.079 17.689 264.207 17.0499C265.354 16.3919 266.642 16.0629 268.071 16.0629C269.518 16.0629 270.797 16.3825 271.906 17.0217C273.015 17.6609 273.88 18.5632 274.5 19.7288C275.139 20.8756 275.459 22.2198 275.459 23.7613C275.459 23.8741 275.45 24.0057 275.431 24.1561C275.431 24.3065 275.421 24.4475 275.403 24.5791H262.685V22.6334H273.993L272.893 23.3101C272.912 22.3514 272.714 21.496 272.301 20.744C271.887 19.992 271.314 19.4092 270.58 18.9956C269.866 18.5632 269.029 18.347 268.071 18.347C267.131 18.347 266.294 18.5632 265.561 18.9956C264.828 19.4092 264.254 20.0014 263.841 20.7722C263.427 21.5242 263.22 22.389 263.22 23.3665V23.8177C263.22 24.8141 263.446 25.7071 263.897 26.4967C264.367 27.2675 265.016 27.869 265.843 28.3014C266.67 28.7338 267.62 28.95 268.691 28.95C269.575 28.95 270.374 28.7996 271.088 28.4988C271.821 28.198 272.46 27.7468 273.006 27.1453L274.5 28.8936C273.823 29.6832 272.977 30.2848 271.962 30.6984C270.966 31.112 269.847 31.3188 268.606 31.3188ZM279.218 31.1496V16.2039H281.812V20.2646L281.559 19.2494C281.972 18.2154 282.668 17.4259 283.645 16.8807C284.623 16.3355 285.826 16.0629 287.255 16.0629V18.6854C287.142 18.6666 287.029 18.6572 286.917 18.6572C286.823 18.6572 286.729 18.6572 286.635 18.6572C285.187 18.6572 284.04 19.0896 283.194 19.9544C282.348 20.8192 281.925 22.0694 281.925 23.7049V31.1496H279.218ZM295.043 31.3188C293.802 31.3188 292.618 31.1496 291.49 30.8112C290.381 30.4728 289.507 30.0592 288.867 29.5704L289.995 27.4273C290.634 27.8596 291.424 28.2262 292.364 28.527C293.304 28.8278 294.263 28.9782 295.24 28.9782C296.5 28.9782 297.402 28.7996 297.948 28.4424C298.512 28.0852 298.794 27.5871 298.794 26.9479C298.794 26.4779 298.624 26.1113 298.286 25.8481C297.948 25.5849 297.496 25.3875 296.932 25.2559C296.387 25.1243 295.776 25.0115 295.099 24.9175C294.423 24.8047 293.746 24.6731 293.069 24.5227C292.392 24.3535 291.772 24.1279 291.208 23.8459C290.644 23.5451 290.193 23.1409 289.854 22.6334C289.516 22.107 289.347 21.4114 289.347 20.5466C289.347 19.6442 289.601 18.8546 290.108 18.1778C290.616 17.5011 291.33 16.9841 292.251 16.6269C293.191 16.2509 294.3 16.0629 295.579 16.0629C296.556 16.0629 297.543 16.1851 298.54 16.4295C299.555 16.6551 300.382 16.9841 301.021 17.4165L299.865 19.5596C299.188 19.1084 298.483 18.7982 297.75 18.629C297.017 18.4598 296.284 18.3752 295.551 18.3752C294.366 18.3752 293.483 18.5726 292.9 18.9674C292.317 19.3434 292.026 19.8322 292.026 20.4338C292.026 20.9414 292.195 21.3362 292.533 21.6182C292.89 21.8814 293.342 22.0882 293.887 22.2386C294.451 22.389 295.071 22.5206 295.748 22.6334C296.425 22.7273 297.102 22.8589 297.778 23.0281C298.455 23.1785 299.066 23.3947 299.611 23.6767C300.175 23.9587 300.627 24.3535 300.965 24.8611C301.322 25.3687 301.501 26.0455 301.501 26.8915C301.501 27.7938 301.237 28.574 300.711 29.232C300.185 29.89 299.442 30.407 298.483 30.783C297.525 31.1402 296.378 31.3188 295.043 31.3188ZM318.605 31.3752C317.101 31.3752 315.662 31.1496 314.29 30.6984C312.918 30.2284 311.837 29.6268 311.047 28.8936L312.09 26.6941C312.842 27.3521 313.801 27.8972 314.967 28.3296C316.132 28.762 317.345 28.9782 318.605 28.9782C319.751 28.9782 320.682 28.8466 321.396 28.5834C322.111 28.3202 322.637 27.963 322.975 27.5119C323.314 27.0419 323.483 26.5155 323.483 25.9327C323.483 25.2559 323.257 24.7107 322.806 24.2971C322.374 23.8835 321.8 23.5545 321.086 23.3101C320.39 23.0469 319.62 22.8213 318.774 22.6334C317.928 22.4454 317.072 22.2292 316.208 21.9848C315.362 21.7216 314.581 21.3926 313.867 20.9978C313.171 20.603 312.607 20.0766 312.175 19.4186C311.743 18.7418 311.526 17.877 311.526 16.8243C311.526 15.8091 311.79 14.8785 312.316 14.0325C312.861 13.1677 313.688 12.4816 314.798 11.974C315.926 11.4476 317.354 11.1844 319.084 11.1844C320.231 11.1844 321.368 11.3348 322.496 11.6356C323.624 11.9364 324.602 12.3688 325.429 12.9327L324.498 15.1887C323.652 14.6247 322.759 14.2205 321.819 13.9761C320.879 13.7129 319.967 13.5813 319.084 13.5813C317.975 13.5813 317.063 13.7223 316.349 14.0043C315.634 14.2863 315.108 14.6623 314.769 15.1323C314.45 15.6023 314.29 16.1287 314.29 16.7115C314.29 17.4071 314.506 17.9616 314.939 18.3752C315.39 18.7888 315.963 19.1178 316.659 19.3622C317.373 19.6066 318.153 19.8322 318.999 20.039C319.845 20.227 320.691 20.4432 321.537 20.6876C322.402 20.932 323.182 21.2516 323.878 21.6464C324.592 22.0412 325.166 22.5676 325.598 23.2255C326.03 23.8835 326.247 24.7295 326.247 25.7635C326.247 26.7599 325.974 27.6905 325.429 28.5552C324.884 29.4012 324.038 30.0874 322.891 30.6138C321.763 31.1214 320.334 31.3752 318.605 31.3752ZM330.366 31.1496V11.41H338.065C339.794 11.41 341.27 11.6826 342.492 12.2278C343.714 12.7729 344.654 13.5625 345.312 14.5965C345.97 15.6305 346.299 16.8619 346.299 18.2906C346.299 19.7194 345.97 20.9508 345.312 21.9848C344.654 22.9999 343.714 23.7801 342.492 24.3253C341.27 24.8705 339.794 25.1431 338.065 25.1431H331.917L333.186 23.8459V31.1496H330.366ZM343.564 31.1496L338.544 23.9869H341.561L346.637 31.1496H343.564ZM333.186 24.1279L331.917 22.7461H337.98C339.785 22.7461 341.148 22.3608 342.069 21.59C343.009 20.8004 343.479 19.7006 343.479 18.2906C343.479 16.8807 343.009 15.7903 342.069 15.0195C341.148 14.2487 339.785 13.8633 337.98 13.8633H331.917L333.186 12.4534V24.1279ZM350.855 31.1496V11.41H353.167L362.022 26.3275H360.781L369.523 11.41H371.835L371.864 31.1496H369.156L369.128 15.6681H369.777L361.994 28.7526H360.697L352.857 15.6681H353.562V31.1496H350.855Z" fill="white"/>
<defs>
<linearGradient id="paint0_linear_98_2248" x1="21.1496" y1="0" x2="21.1496" y2="42.2992" gradientUnits="userSpaceOnUse">
<stop stop-color="#269FD5"/>
<stop offset="1" stop-color="#14536F"/>
</linearGradient>
</defs>
</svg>
