<svg width="211" height="211" viewBox="0 0 211 211" fill="none" xmlns="http://www.w3.org/2000/svg">
<rect x="-0.000244141" width="210.51" height="210.51" rx="60.1457" fill="url(#paint0_radial_98_2117)" fill-opacity="0.5"/>
<rect x="14.8972" y="14.8975" width="180.437" height="180.437" rx="60.1457" fill="url(#paint1_linear_98_2117)" fill-opacity="0.1"/>
<rect x="16.4009" y="16.4011" width="177.43" height="177.43" rx="58.6421" stroke="url(#paint2_linear_98_2117)" stroke-opacity="0.2" stroke-width="3.00729"/>
<path fill-rule="evenodd" clip-rule="evenodd" d="M78.8828 64.9587C78.8828 54.9935 86.7541 46.915 96.4639 46.915H114.045C123.755 46.915 131.626 54.9935 131.626 64.9587V66.1916C137.091 66.705 142.511 67.3764 147.883 68.2013C156.404 69.5099 162.393 77.118 162.393 85.7432V103.987C162.393 111.271 158.093 118.135 151.046 120.54C136.646 125.453 121.248 128.112 105.255 128.112C89.2607 128.112 73.863 125.453 59.4632 120.54C52.4154 118.135 48.116 111.271 48.116 103.986V85.7432C48.116 77.118 54.1047 69.5099 62.6259 68.2013C67.9978 67.3764 73.4182 66.705 78.8828 66.1916V64.9587ZM122.835 64.9587V65.505C117.02 65.1426 111.158 64.9587 105.254 64.9587C99.351 64.9587 93.4889 65.1426 87.6733 65.505V64.9587C87.6733 59.9761 91.609 55.9369 96.4639 55.9369H114.045C118.9 55.9369 122.835 59.9761 122.835 64.9587ZM105.254 114.579C107.682 114.579 109.65 112.559 109.65 110.068C109.65 107.577 107.682 105.557 105.254 105.557C102.827 105.557 100.859 107.577 100.859 110.068C100.859 112.559 102.827 114.579 105.254 114.579Z" fill="white"/>
<path d="M52.5112 144.05V127.233C53.8183 127.969 55.2127 128.597 56.6899 129.101C71.9727 134.316 88.3063 137.134 105.255 137.134C122.203 137.134 138.536 134.316 153.819 129.101C155.296 128.597 156.69 127.969 157.998 127.233V144.05C157.998 152.783 151.86 160.455 143.211 161.634C130.791 163.326 118.121 164.199 105.254 164.199C92.3878 164.199 79.7177 163.326 67.2977 161.634C58.6484 160.455 52.5112 152.783 52.5112 144.05Z" fill="white"/>
<defs>
<radialGradient id="paint0_radial_98_2117" cx="0" cy="0" r="1" gradientUnits="userSpaceOnUse" gradientTransform="translate(74.7154 1.74916e-06) rotate(66.5508) scale(213.34)">
<stop stop-color="white"/>
<stop offset="0.552885" stop-opacity="0.5"/>
<stop offset="0.9999" stop-color="#00B6FE"/>
</radialGradient>
<linearGradient id="paint1_linear_98_2117" x1="105.116" y1="-104.581" x2="105.116" y2="480.62" gradientUnits="userSpaceOnUse">
<stop stop-color="#00B5FF"/>
<stop offset="0.467671" stop-color="#00B5FF"/>
</linearGradient>
<linearGradient id="paint2_linear_98_2117" x1="105.116" y1="-298.429" x2="105.116" y2="358.703" gradientUnits="userSpaceOnUse">
<stop stop-color="#00B5FF"/>
<stop offset="0.716291" stop-color="#00CDC1"/>
</linearGradient>
</defs>
</svg>
