<svg width="211" height="211" viewBox="0 0 211 211" fill="none" xmlns="http://www.w3.org/2000/svg">
<rect x="-0.000244141" y="-0.000244141" width="210.51" height="210.51" rx="60.1457" fill="url(#paint0_radial_98_2099)" fill-opacity="0.5"/>
<rect x="15.0361" y="15.0365" width="180.437" height="180.437" rx="60.1457" fill="url(#paint1_linear_98_2099)" fill-opacity="0.1"/>
<rect x="16.5398" y="16.5401" width="177.43" height="177.43" rx="58.6421" stroke="url(#paint2_linear_98_2099)" stroke-opacity="0.2" stroke-width="3.00729"/>
<path d="M68.5432 48.5405C69.2707 48.8902 69.8845 49.4382 70.3142 50.1213C70.7438 50.8045 70.9717 51.5951 70.9716 52.402C70.9716 57.1433 72.7543 59.8738 74.9884 63.1983L75.1541 63.4383C77.0511 66.2601 79.5424 69.956 79.5424 75.2513C79.5424 80.6552 76.8168 85.4193 72.6629 88.2469C73.7542 89.1608 74.7199 90.2862 75.5541 91.6343C78.2739 96.0328 79.5424 102.756 79.5424 112.41C79.5424 122.189 78.2282 133.934 76.0855 143.314C75.0227 147.975 73.7028 152.276 72.1315 155.504C71.3897 157.11 70.407 158.593 69.2174 159.902C68.0404 161.108 66.2291 162.393 63.8293 162.393C61.4295 162.393 59.6182 161.108 58.4468 159.902C57.2538 158.596 56.2708 157.112 55.5328 155.504C53.9558 152.271 52.6359 147.975 51.5731 143.308C49.3444 133.156 48.1858 122.798 48.1162 112.404C48.1162 102.75 49.3847 96.0328 52.1045 91.6343C52.8804 90.3575 53.8566 89.2138 54.9957 88.2469C52.8746 86.8072 51.1385 84.8699 49.9392 82.6045C48.74 80.3391 48.1141 77.8145 48.1162 75.2513C48.1162 73.1492 48.1162 69.5333 50.3046 64.8663C52.4473 60.2965 56.5213 55.0469 64.0064 49.0546C64.6373 48.5501 65.3979 48.2342 66.2006 48.1432C67.0033 48.0523 67.8154 48.19 68.5432 48.5405ZM56.687 75.2456V75.2513C56.687 77.1451 57.4395 78.9613 58.7789 80.3004C60.1184 81.6395 61.935 82.3917 63.8293 82.3917C65.7235 82.3917 67.5402 81.6395 68.8797 80.3004C70.2191 78.9613 70.9716 77.1451 70.9716 75.2513C70.9716 72.7436 69.9145 71.0071 67.8747 67.9738L67.8061 67.871C66.4976 65.9288 64.9492 63.6268 63.8521 60.6735C60.7495 63.8267 59.0354 66.4429 58.0697 68.4994C56.687 71.4469 56.687 73.5434 56.687 75.2399V75.2456ZM59.3953 96.1356C57.9783 98.4319 56.687 103.139 56.687 112.41C56.687 121.555 57.9326 132.66 59.9267 141.406C60.9324 145.804 62.0751 149.374 63.235 151.751C63.4465 152.191 63.6464 152.556 63.8293 152.865C64.0121 152.556 64.2121 152.191 64.4235 151.751C65.5834 149.374 66.7262 145.799 67.7318 141.406C69.7317 132.666 70.9716 121.561 70.9716 112.41C70.9716 103.139 69.6803 98.4319 68.2632 96.1356C67.8359 95.3625 67.1899 94.7326 66.4062 94.3248C65.5948 93.9715 64.7136 93.8074 63.8293 93.845C62.6865 93.845 61.8694 94.022 61.2523 94.3248C60.4687 94.7326 59.8227 95.3625 59.3953 96.1356ZM93.827 121.91C90.7998 121.402 87.8552 120.487 85.0734 119.191C85.2406 115.951 85.2882 112.706 85.2162 109.462C87.7931 111.193 90.7015 112.467 93.827 113.175V96.6726C93.827 94.4 94.7299 92.2206 96.3373 90.6137C97.9446 89.0068 100.125 88.1041 102.398 88.1041H125.253C125.253 83.3097 123.911 78.6109 121.38 74.5387C118.849 70.4664 115.229 67.1829 110.93 65.0593C106.63 62.9356 101.822 62.0564 97.0494 62.521C92.2763 62.9855 87.7282 64.7754 83.9192 67.6882C82.7764 64.5293 81.1479 62.113 80.0166 60.4336L79.788 60.0908C84.9217 56.4729 90.9508 54.3345 97.2174 53.9089C103.484 53.4833 109.747 54.787 115.323 57.6777C120.899 60.5683 125.573 64.9348 128.836 70.3005C132.098 75.6661 133.824 81.8248 133.824 88.1041H153.822C156.095 88.1041 158.275 89.0068 159.883 90.6137C161.49 92.2206 162.393 94.4 162.393 96.6726V148.083C162.393 150.356 161.49 152.535 159.883 154.142C158.275 155.749 156.095 156.652 153.822 156.652H102.398C100.125 156.652 97.9446 155.749 96.3373 154.142C94.7299 152.535 93.827 150.356 93.827 148.083V121.904V121.91ZM102.398 122.269V148.089H153.822V96.6783H132.738C130.958 103.562 127.082 109.722 121.646 114.307C116.211 118.891 109.484 121.674 102.398 122.269ZM123.79 96.6783H102.398V113.661C107.198 113.123 111.751 111.245 115.534 108.241C119.317 105.238 122.178 101.231 123.79 96.6783Z" fill="white"/>
<defs>
<radialGradient id="paint0_radial_98_2099" cx="0" cy="0" r="1" gradientUnits="userSpaceOnUse" gradientTransform="translate(74.7154 -0.000242391) rotate(66.5508) scale(213.34)">
<stop stop-color="white"/>
<stop offset="0.552885" stop-opacity="0.5"/>
<stop offset="0.9999" stop-color="#00B6FE"/>
</radialGradient>
<linearGradient id="paint1_linear_98_2099" x1="105.255" y1="-104.442" x2="105.255" y2="480.759" gradientUnits="userSpaceOnUse">
<stop stop-color="#00B5FF"/>
<stop offset="0.467671" stop-color="#00B5FF"/>
</linearGradient>
<linearGradient id="paint2_linear_98_2099" x1="105.255" y1="-298.29" x2="105.255" y2="358.842" gradientUnits="userSpaceOnUse">
<stop stop-color="#00B5FF"/>
<stop offset="0.716291" stop-color="#00CDC1"/>
</linearGradient>
</defs>
</svg>
