<svg width="211" height="211" viewBox="0 0 211 211" fill="none" xmlns="http://www.w3.org/2000/svg">
<rect width="210.51" height="210.51" rx="60.6028" fill="url(#paint0_radial_98_2108)" fill-opacity="0.5"/>
<rect x="15.0364" y="15.0366" width="180.437" height="180.437" rx="60.6028" fill="url(#paint1_linear_98_2108)" fill-opacity="0.1"/>
<rect x="16.5514" y="16.5517" width="177.407" height="177.407" rx="59.0877" stroke="url(#paint2_linear_98_2108)" stroke-opacity="0.2" stroke-width="3.03014"/>
<path d="M60.8139 168.407C57.3221 168.407 54.3319 167.164 51.8432 164.676C49.3545 162.189 48.1122 159.202 48.1165 155.716V66.8812C48.1165 63.3913 49.3608 60.4026 51.8495 57.9152C54.3382 55.4278 57.3263 54.1863 60.8139 54.1905H67.1626V41.4998H79.86V54.1905H130.65V41.4998H143.347V54.1905H149.696C153.188 54.1905 156.178 55.4342 158.667 57.9216C161.155 60.409 162.398 63.3955 162.393 66.8812V155.716C162.393 159.206 161.149 162.195 158.66 164.682C156.172 167.17 153.183 168.411 149.696 168.407H60.8139ZM60.8139 155.716H149.696V92.2627H60.8139V155.716ZM60.8139 79.572H149.696V66.8812H60.8139V79.572ZM73.5113 117.644V104.953H136.998V117.644H73.5113ZM73.5113 143.026V130.335H117.952V143.026H73.5113Z" fill="white"/>
<path d="M79.6077 41.7527V54.4431H130.903V41.7527H143.095V54.4431H149.696C153.12 54.4431 156.047 55.6599 158.489 58.1003C160.93 60.5407 162.145 63.463 162.141 66.8806V155.717C162.141 159.139 160.923 162.063 158.482 164.504C156.04 166.944 153.116 168.159 149.697 168.155H60.8137C57.3896 168.155 54.4634 166.938 52.0217 164.498C49.58 162.057 48.3652 159.134 48.3694 155.717V66.8816C48.3694 63.4593 49.5859 60.534 52.0276 58.0935C54.3167 55.8056 57.03 54.5958 60.178 54.4568L60.8137 54.4431H67.4153V41.7527H79.6077ZM60.5618 155.969H149.948V92.0105H60.5618V155.969ZM117.699 130.588V142.773H73.7639V130.588H117.699ZM136.746 105.206V117.391H73.7639V105.206H136.746ZM60.5618 79.825H149.948V66.6287H60.5618V79.825Z" stroke="#212324" stroke-opacity="0.2" stroke-width="0.505023"/>
<defs>
<radialGradient id="paint0_radial_98_2108" cx="0" cy="0" r="1" gradientUnits="userSpaceOnUse" gradientTransform="translate(74.7157 1.74916e-06) rotate(66.5508) scale(213.34)">
<stop stop-color="white"/>
<stop offset="0.552885" stop-opacity="0.5"/>
<stop offset="0.9999" stop-color="#00B6FE"/>
</radialGradient>
<linearGradient id="paint1_linear_98_2108" x1="105.255" y1="-104.442" x2="105.255" y2="480.759" gradientUnits="userSpaceOnUse">
<stop stop-color="#00B5FF"/>
<stop offset="0.467671" stop-color="#00B5FF"/>
</linearGradient>
<linearGradient id="paint2_linear_98_2108" x1="105.255" y1="-298.29" x2="105.255" y2="358.843" gradientUnits="userSpaceOnUse">
<stop stop-color="#00B5FF"/>
<stop offset="0.716291" stop-color="#00CDC1"/>
</linearGradient>
</defs>
</svg>
