<svg width="67" height="579" viewBox="0 0 67 579" fill="none" xmlns="http://www.w3.org/2000/svg">
<line x1="6.99927" y1="40.7677" x2="66.9286" y2="40.7677" stroke="white" stroke-opacity="0.8" stroke-width="0.91188"/>
<line x1="6" y1="165.13" x2="66.927" y2="165.13" stroke="white" stroke-opacity="0.8" stroke-width="0.91188"/>
<line x1="6" y1="289.158" x2="66.9269" y2="289.158" stroke="white" stroke-opacity="0.8" stroke-width="0.91188"/>
<line x1="6" y1="413.187" x2="66.9268" y2="413.187" stroke="white" stroke-opacity="0.8" stroke-width="0.91188"/>
<line x1="6" y1="537.214" x2="67" y2="537.214" stroke="white" stroke-opacity="0.8" stroke-width="0.91188"/>
<circle cx="6.78737" cy="165.458" r="5.03934" stroke="white" stroke-width="0.503934"/>
<circle cx="6.78704" cy="165.459" r="3.27557" fill="#D9D9D9"/>
<circle cx="5.78737" cy="289.458" r="5.03934" stroke="white" stroke-width="0.503934"/>
<circle cx="5.78704" cy="289.458" r="3.27557" fill="#D9D9D9"/>
<circle cx="4.78737" cy="4.78737" r="5.03934" transform="matrix(1 0 0 -1 1 418.246)" stroke="white" stroke-width="0.503934"/>
<circle cx="3.27557" cy="3.27557" r="3.27557" transform="matrix(1 0 0 -1 2.51147 416.733)" fill="#D9D9D9"/>
<circle cx="4.78737" cy="4.78737" r="5.03934" transform="matrix(1 0 0 -1 1 542.245)" stroke="white" stroke-width="0.503934"/>
<circle cx="3.27557" cy="3.27557" r="3.27557" transform="matrix(1 0 0 -1 2.51147 540.732)" fill="#D9D9D9"/>
<circle cx="6.78737" cy="40.7874" r="5.03934" stroke="white" stroke-width="0.503934"/>
<circle cx="6.78704" cy="40.787" r="3.27557" fill="#D9D9D9"/>
<line x1="5.5" y1="578.669" x2="6.72266" y2="-0.00100095" stroke="url(#paint0_linear_98_2126)" stroke-opacity="0.8"/>
<defs>
<linearGradient id="paint0_linear_98_2126" x1="7.72266" y1="0.00111192" x2="6.5" y2="578.671" gradientUnits="userSpaceOnUse">
<stop stop-color="white" stop-opacity="0"/>
<stop offset="0.0780092" stop-color="white"/>
<stop offset="0.920711" stop-color="white"/>
<stop offset="1" stop-color="white" stop-opacity="0"/>
</linearGradient>
</defs>
</svg>
