<svg width="211" height="211" viewBox="0 0 211 211" fill="none" xmlns="http://www.w3.org/2000/svg">
<rect y="0.00183105" width="210.507" height="210.507" rx="60.1449" fill="url(#paint0_radial_98_2088)" fill-opacity="0.5"/>
<rect x="15.0364" y="15.037" width="180.435" height="180.435" rx="60.1449" fill="url(#paint1_linear_98_2088)" fill-opacity="0.1"/>
<rect x="16.54" y="16.5407" width="177.428" height="177.428" rx="58.6413" stroke="url(#paint2_linear_98_2088)" stroke-opacity="0.2" stroke-width="3.00725"/>
<path d="M42.4269 146.001C38.2539 146.001 35.0993 144.958 32.9631 142.871C30.8269 140.785 29.7588 137.779 29.7588 133.855V118.504C29.7588 117.262 29.4607 116.368 28.8646 115.821C28.2684 115.225 27.4487 114.927 26.4055 114.927H23.9464V107.326H26.4055C27.4487 107.326 28.2684 107.028 28.8646 106.432C29.4607 105.836 29.7588 104.942 29.7588 103.75V88.3988C29.7588 84.4245 30.8269 81.4189 32.9631 79.3821C35.0993 77.2956 38.2539 76.2524 42.4269 76.2524H46.1528V83.7042H44.5879C42.7498 83.7042 41.3588 84.2009 40.4149 85.1945C39.5207 86.1881 39.0736 87.5791 39.0736 89.3675V103.526C39.0736 105.513 38.8252 107.053 38.3284 108.146C37.8316 109.239 37.0367 110.059 35.9438 110.605C34.9005 111.102 33.5344 111.475 31.8453 111.723V110.531C33.5344 110.729 34.9005 111.102 35.9438 111.648C37.0367 112.195 37.8316 113.015 38.3284 114.108C38.8252 115.2 39.0736 116.74 39.0736 118.728V132.886C39.0736 134.674 39.5207 136.065 40.4149 137.059C41.3588 138.053 42.7498 138.549 44.5879 138.549H46.1528V146.001H42.4269ZM86.6248 122.826L52.272 109.487V101.439L86.6248 88.1007V95.8506L55.1782 107.624V103.302L86.6248 115.076V122.826ZM89.1468 138.997L113.738 68.8006H122.084L97.4928 138.997H89.1468ZM123.879 122.826V115.076L155.326 103.302V107.624L123.879 95.8506V88.1007L158.232 101.439V109.487L123.879 122.826ZM167.982 146.001H164.256V138.549H165.821C167.709 138.549 169.1 138.053 169.994 137.059C170.938 136.065 171.41 134.674 171.41 132.886V118.728C171.41 116.74 171.658 115.2 172.155 114.108C172.702 113.015 173.497 112.195 174.54 111.648C175.583 111.102 176.924 110.729 178.564 110.531V111.723C176.924 111.475 175.583 111.102 174.54 110.605C173.497 110.059 172.702 109.239 172.155 108.146C171.658 107.053 171.41 105.513 171.41 103.526V89.3675C171.41 87.5791 170.938 86.1881 169.994 85.1945C169.1 84.2009 167.709 83.7042 165.821 83.7042H164.256V76.2524H167.982C172.205 76.2524 175.384 77.2956 177.52 79.3821C179.657 81.4189 180.725 84.4245 180.725 88.3988V103.75C180.725 104.942 181.023 105.836 181.619 106.432C182.215 107.028 183.01 107.326 184.004 107.326H186.537V114.927H184.004C183.01 114.927 182.215 115.225 181.619 115.821C181.023 116.368 180.725 117.262 180.725 118.504V133.855C180.725 137.779 179.657 140.785 177.52 142.871C175.384 144.958 172.205 146.001 167.982 146.001Z" fill="white"/>
<defs>
<radialGradient id="paint0_radial_98_2088" cx="0" cy="0" r="1" gradientUnits="userSpaceOnUse" gradientTransform="translate(74.7147 0.0018328) rotate(66.5508) scale(213.337)">
<stop stop-color="white"/>
<stop offset="0.552885" stop-opacity="0.5"/>
<stop offset="0.9999" stop-color="#00B6FE"/>
</radialGradient>
<linearGradient id="paint1_linear_98_2088" x1="105.254" y1="-104.44" x2="105.254" y2="480.754" gradientUnits="userSpaceOnUse">
<stop stop-color="#00B5FF"/>
<stop offset="0.467671" stop-color="#00B5FF"/>
</linearGradient>
<linearGradient id="paint2_linear_98_2088" x1="105.254" y1="-298.285" x2="105.254" y2="358.838" gradientUnits="userSpaceOnUse">
<stop stop-color="#00B5FF"/>
<stop offset="0.716291" stop-color="#00CDC1"/>
</linearGradient>
</defs>
</svg>
