<svg width="427" height="88" viewBox="0 0 427 88" fill="none" xmlns="http://www.w3.org/2000/svg">
<path fill-rule="evenodd" clip-rule="evenodd" d="M44.7537 -3.05176e-05C20.0379 -3.05176e-05 0.00109863 19.5223 0.00109863 43.6059C0.00109863 65.7163 16.8925 83.9828 38.7874 86.8259V78.0393C38.7874 75.5625 37.1845 73.3342 34.7733 72.5471C22.1401 68.4111 13.1023 56.6463 13.4358 42.8711C13.841 26.1003 27.8623 12.9139 45.0761 13.0839C62.2294 13.254 76.0805 26.8547 76.0805 43.6081C76.0805 45.1779 75.9551 46.7477 75.7133 48.2979C71.8784 72.9156 38.971 86.7518 38.7919 86.8281C40.7418 87.0788 42.7321 87.2118 44.7537 87.2118C69.4695 87.2118 89.5063 67.6895 89.5063 43.6059C89.5063 19.5223 69.4695 -3.05176e-05 44.7537 -3.05176e-05Z" fill="url(#paint0_linear_621_198)"/>
<path d="M102.906 52.0356L111.097 33.9472H113.655L121.872 52.0356H119.159L111.846 35.3943H112.88L105.567 52.0356H102.906ZM106.394 47.5135L107.092 45.4463H117.273L118.022 47.5135H106.394ZM124.209 52.0356V32.8619H126.69V52.0356H124.209ZM137.525 52.1907C136.06 52.1907 134.768 51.8892 133.649 51.2862C132.546 50.6833 131.685 49.8564 131.064 48.8055C130.462 47.7547 130.16 46.5488 130.16 45.1879C130.16 43.8269 130.453 42.621 131.039 41.5702C131.642 40.5193 132.46 39.7011 133.493 39.1153C134.544 38.5124 135.724 38.2109 137.034 38.2109C138.36 38.2109 139.532 38.5038 140.548 39.0895C141.564 39.6752 142.357 40.5021 142.925 41.5702C143.511 42.621 143.804 43.8528 143.804 45.2654C143.804 45.3688 143.795 45.4893 143.778 45.6272C143.778 45.765 143.769 45.8942 143.752 46.0148H132.098V44.2318H142.46L141.452 44.8519C141.47 43.9734 141.289 43.1895 140.91 42.5004C140.531 41.8114 140.005 41.2773 139.333 40.8983C138.679 40.5021 137.912 40.304 137.034 40.304C136.172 40.304 135.406 40.5021 134.734 40.8983C134.062 41.2773 133.537 41.82 133.158 42.5263C132.779 43.2154 132.589 44.0078 132.589 44.9036V45.3171C132.589 46.2301 132.796 47.0484 133.209 47.7719C133.64 48.4782 134.234 49.0295 134.992 49.4257C135.75 49.8219 136.62 50.0201 137.602 50.0201C138.412 50.0201 139.144 49.8822 139.799 49.6066C140.47 49.331 141.056 48.9175 141.556 48.3663L142.925 49.9684C142.305 50.6919 141.53 51.2432 140.6 51.6222C139.687 52.0012 138.662 52.1907 137.525 52.1907ZM144.88 52.0356L150.772 44.3868L150.746 45.653L145.139 38.3401H147.904L152.193 43.9734H151.134L155.423 38.3401H158.136L152.452 45.7047L152.477 44.3868L158.421 52.0356H155.604L151.082 46.0406L152.09 46.1956L147.645 52.0356H144.88ZM169.377 52.0356V49.1415L169.248 48.5988V43.6633C169.248 42.6124 168.938 41.8028 168.317 41.2343C167.715 40.6485 166.801 40.3557 165.578 40.3557C164.769 40.3557 163.976 40.4935 163.201 40.7691C162.426 41.0275 161.771 41.3807 161.237 41.8286L160.204 39.9681C160.91 39.3996 161.754 38.9689 162.736 38.676C163.735 38.366 164.777 38.2109 165.863 38.2109C167.74 38.2109 169.187 38.6674 170.204 39.5805C171.22 40.4935 171.728 41.8889 171.728 43.7666V52.0356H169.377ZM164.881 52.1907C163.864 52.1907 162.968 52.0184 162.193 51.6738C161.435 51.3293 160.85 50.8556 160.436 50.2526C160.023 49.6324 159.816 48.9347 159.816 48.1595C159.816 47.4188 159.988 46.7469 160.333 46.144C160.694 45.541 161.272 45.0587 162.064 44.6969C162.874 44.3351 163.959 44.1542 165.32 44.1542H169.661V45.9372H165.423C164.183 45.9372 163.347 46.144 162.917 46.5574C162.486 46.9709 162.271 47.4704 162.271 48.0562C162.271 48.728 162.538 49.2707 163.072 49.6841C163.606 50.0803 164.347 50.2785 165.294 50.2785C166.224 50.2785 167.034 50.0717 167.723 49.6583C168.429 49.2448 168.938 48.6419 169.248 47.8494L169.739 49.5549C169.411 50.3646 168.834 51.0106 168.007 51.493C167.18 51.9581 166.138 52.1907 164.881 52.1907ZM183.621 52.0356V33.9472H191.243C193.173 33.9472 194.87 34.3262 196.334 35.0842C197.816 35.8422 198.961 36.9017 199.771 38.2626C200.598 39.6235 201.011 41.1998 201.011 42.9914C201.011 44.783 200.598 46.3593 199.771 47.7202C198.961 49.0812 197.816 50.1406 196.334 50.8986C194.87 51.6566 193.173 52.0356 191.243 52.0356H183.621ZM186.205 49.7875H191.088C192.587 49.7875 193.879 49.5032 194.965 48.9347C196.067 48.3663 196.92 47.5738 197.523 46.5574C198.126 45.5238 198.427 44.3351 198.427 42.9914C198.427 41.6305 198.126 40.4418 197.523 39.4254C196.92 38.409 196.067 37.6166 194.965 37.0481C193.879 36.4796 192.587 36.1954 191.088 36.1954H186.205V49.7875ZM210.706 52.1907C209.242 52.1907 207.95 51.8892 206.83 51.2862C205.727 50.6833 204.866 49.8564 204.246 48.8055C203.643 47.7547 203.341 46.5488 203.341 45.1879C203.341 43.8269 203.634 42.621 204.22 41.5702C204.823 40.5193 205.641 39.7011 206.675 39.1153C207.726 38.5124 208.906 38.2109 210.215 38.2109C211.541 38.2109 212.713 38.5038 213.729 39.0895C214.746 39.6752 215.538 40.5021 216.107 41.5702C216.692 42.621 216.985 43.8528 216.985 45.2654C216.985 45.3688 216.977 45.4893 216.959 45.6272C216.959 45.765 216.951 45.8942 216.933 46.0148H205.279V44.2318H215.641L214.634 44.8519C214.651 43.9734 214.47 43.1895 214.091 42.5004C213.712 41.8114 213.187 41.2773 212.515 40.8983C211.86 40.5021 211.093 40.304 210.215 40.304C209.354 40.304 208.587 40.5021 207.915 40.8983C207.243 41.2773 206.718 41.82 206.339 42.5263C205.96 43.2154 205.77 44.0078 205.77 44.9036V45.3171C205.77 46.2301 205.977 47.0484 206.39 47.7719C206.821 48.4782 207.415 49.0295 208.173 49.4257C208.931 49.8219 209.801 50.0201 210.783 50.0201C211.593 50.0201 212.325 49.8822 212.98 49.6066C213.652 49.331 214.237 48.9175 214.737 48.3663L216.107 49.9684C215.486 50.6919 214.711 51.2432 213.781 51.6222C212.868 52.0012 211.843 52.1907 210.706 52.1907ZM223.769 52.0356L217.774 38.3401H220.358L225.681 50.7436H224.441L229.868 38.3401H232.297L226.302 52.0356H223.769ZM240.332 52.1907C238.867 52.1907 237.575 51.8892 236.456 51.2862C235.353 50.6833 234.492 49.8564 233.872 48.8055C233.269 47.7547 232.967 46.5488 232.967 45.1879C232.967 43.8269 233.26 42.621 233.846 41.5702C234.449 40.5193 235.267 39.7011 236.301 39.1153C237.351 38.5124 238.531 38.2109 239.841 38.2109C241.167 38.2109 242.339 38.5038 243.355 39.0895C244.371 39.6752 245.164 40.5021 245.732 41.5702C246.318 42.621 246.611 43.8528 246.611 45.2654C246.611 45.3688 246.602 45.4893 246.585 45.6272C246.585 45.765 246.576 45.8942 246.559 46.0148H234.905V44.2318H245.267L244.259 44.8519C244.277 43.9734 244.096 43.1895 243.717 42.5004C243.338 41.8114 242.812 41.2773 242.14 40.8983C241.486 40.5021 240.719 40.304 239.841 40.304C238.979 40.304 238.213 40.5021 237.541 40.8983C236.869 41.2773 236.344 41.82 235.965 42.5263C235.586 43.2154 235.396 44.0078 235.396 44.9036V45.3171C235.396 46.2301 235.603 47.0484 236.016 47.7719C236.447 48.4782 237.041 49.0295 237.799 49.4257C238.557 49.8219 239.427 50.0201 240.409 50.0201C241.219 50.0201 241.951 49.8822 242.606 49.6066C243.277 49.331 243.863 48.9175 244.363 48.3663L245.732 49.9684C245.112 50.6919 244.337 51.2432 243.407 51.6222C242.494 52.0012 241.469 52.1907 240.332 52.1907ZM250.056 52.0356V32.8619H252.536V52.0356H250.056ZM263.139 52.1907C261.76 52.1907 260.537 51.8892 259.469 51.2862C258.401 50.6833 257.557 49.8564 256.937 48.8055C256.317 47.7375 256.007 46.5316 256.007 45.1879C256.007 43.8269 256.317 42.621 256.937 41.5702C257.557 40.5193 258.401 39.7011 259.469 39.1153C260.537 38.5124 261.76 38.2109 263.139 38.2109C264.499 38.2109 265.714 38.5124 266.782 39.1153C267.867 39.7011 268.712 40.5193 269.314 41.5702C269.935 42.6038 270.245 43.8097 270.245 45.1879C270.245 46.5488 269.935 47.7547 269.314 48.8055C268.712 49.8564 267.867 50.6833 266.782 51.2862C265.714 51.8892 264.499 52.1907 263.139 52.1907ZM263.139 50.0201C264.017 50.0201 264.801 49.8219 265.49 49.4257C266.196 49.0295 266.748 48.4696 267.144 47.7461C267.54 47.0053 267.738 46.1526 267.738 45.1879C267.738 44.2059 267.54 43.3618 267.144 42.6555C266.748 41.932 266.196 41.3721 265.49 40.9759C264.801 40.5796 264.017 40.3815 263.139 40.3815C262.26 40.3815 261.476 40.5796 260.787 40.9759C260.098 41.3721 259.547 41.932 259.133 42.6555C258.72 43.3618 258.513 44.2059 258.513 45.1879C258.513 46.1526 258.72 47.0053 259.133 47.7461C259.547 48.4696 260.098 49.0295 260.787 49.4257C261.476 49.8219 262.26 50.0201 263.139 50.0201ZM280.937 52.1907C279.8 52.1907 278.757 51.9323 277.81 51.4154C276.88 50.8814 276.13 50.0976 275.562 49.064C275.011 48.0303 274.735 46.7383 274.735 45.1879C274.735 43.6374 275.002 42.3454 275.536 41.3118C276.087 40.2782 276.828 39.5029 277.758 38.9861C278.706 38.4693 279.765 38.2109 280.937 38.2109C282.28 38.2109 283.469 38.5038 284.503 39.0895C285.536 39.6752 286.355 40.4935 286.958 41.5443C287.56 42.578 287.862 43.7925 287.862 45.1879C287.862 46.5833 287.56 47.8064 286.958 48.8572C286.355 49.9081 285.536 50.7264 284.503 51.3121C283.469 51.8978 282.28 52.1907 280.937 52.1907ZM273.675 57.0487V38.3401H276.053V42.0353L275.898 45.2137L276.156 48.3921V57.0487H273.675ZM280.73 50.0201C281.609 50.0201 282.392 49.8219 283.081 49.4257C283.788 49.0295 284.339 48.4696 284.735 47.7461C285.149 47.0053 285.355 46.1526 285.355 45.1879C285.355 44.2059 285.149 43.3618 284.735 42.6555C284.339 41.932 283.788 41.3721 283.081 40.9759C282.392 40.5796 281.609 40.3815 280.73 40.3815C279.869 40.3815 279.085 40.5796 278.378 40.9759C277.689 41.3721 277.138 41.932 276.725 42.6555C276.328 43.3618 276.13 44.2059 276.13 45.1879C276.13 46.1526 276.328 47.0053 276.725 47.7461C277.138 48.4696 277.689 49.0295 278.378 49.4257C279.085 49.8219 279.869 50.0201 280.73 50.0201ZM297.388 52.1907C295.924 52.1907 294.631 51.8892 293.512 51.2862C292.409 50.6833 291.548 49.8564 290.928 48.8055C290.325 47.7547 290.023 46.5488 290.023 45.1879C290.023 43.8269 290.316 42.621 290.902 41.5702C291.505 40.5193 292.323 39.7011 293.357 39.1153C294.408 38.5124 295.588 38.2109 296.897 38.2109C298.223 38.2109 299.395 38.5038 300.411 39.0895C301.428 39.6752 302.22 40.5021 302.788 41.5702C303.374 42.621 303.667 43.8528 303.667 45.2654C303.667 45.3688 303.658 45.4893 303.641 45.6272C303.641 45.765 303.633 45.8942 303.615 46.0148H291.961V44.2318H302.323L301.316 44.8519C301.333 43.9734 301.152 43.1895 300.773 42.5004C300.394 41.8114 299.868 41.2773 299.197 40.8983C298.542 40.5021 297.775 40.304 296.897 40.304C296.035 40.304 295.269 40.5021 294.597 40.8983C293.925 41.2773 293.4 41.82 293.021 42.5263C292.642 43.2154 292.452 44.0078 292.452 44.9036V45.3171C292.452 46.2301 292.659 47.0484 293.072 47.7719C293.503 48.4782 294.097 49.0295 294.855 49.4257C295.613 49.8219 296.483 50.0201 297.465 50.0201C298.275 50.0201 299.007 49.8822 299.662 49.6066C300.334 49.331 300.919 48.9175 301.419 48.3663L302.788 49.9684C302.168 50.6919 301.393 51.2432 300.463 51.6222C299.55 52.0012 298.525 52.1907 297.388 52.1907ZM307.112 52.0356V38.3401H309.489V42.0612L309.256 41.1309C309.635 40.1834 310.273 39.4599 311.169 38.9603C312.065 38.4607 313.167 38.2109 314.476 38.2109V40.6141C314.373 40.5969 314.27 40.5882 314.166 40.5882C314.08 40.5882 313.994 40.5882 313.908 40.5882C312.581 40.5882 311.53 40.9845 310.755 41.7769C309.98 42.5694 309.592 43.715 309.592 45.2137V52.0356H307.112ZM321.613 52.1907C320.476 52.1907 319.391 52.0356 318.357 51.7255C317.341 51.4154 316.54 51.0364 315.954 50.5885L316.987 48.6247C317.573 49.0209 318.297 49.3568 319.158 49.6324C320.019 49.9081 320.898 50.0459 321.794 50.0459C322.948 50.0459 323.775 49.8822 324.274 49.5549C324.791 49.2276 325.05 48.7711 325.05 48.1854C325.05 47.7547 324.895 47.4188 324.585 47.1776C324.274 46.9364 323.861 46.7555 323.344 46.6349C322.845 46.5143 322.285 46.411 321.665 46.3249C321.044 46.2215 320.424 46.1009 319.804 45.9631C319.184 45.808 318.615 45.6013 318.099 45.3429C317.582 45.0673 317.168 44.6969 316.858 44.2318C316.548 43.7494 316.393 43.112 316.393 42.3196C316.393 41.4927 316.626 40.7691 317.091 40.149C317.556 39.5288 318.211 39.055 319.055 38.7277C319.916 38.3832 320.932 38.2109 322.104 38.2109C323 38.2109 323.904 38.3229 324.817 38.5468C325.747 38.7536 326.505 39.055 327.091 39.4513L326.032 41.4151C325.411 41.0017 324.765 40.7174 324.094 40.5624C323.422 40.4074 322.75 40.3298 322.078 40.3298C320.993 40.3298 320.183 40.5107 319.649 40.8725C319.115 41.217 318.848 41.6649 318.848 42.2162C318.848 42.6813 319.003 43.0431 319.313 43.3015C319.64 43.5427 320.054 43.7322 320.553 43.87C321.07 44.0078 321.639 44.1284 322.259 44.2318C322.879 44.3179 323.499 44.4385 324.119 44.5935C324.74 44.7314 325.3 44.9295 325.799 45.1879C326.316 45.4463 326.729 45.808 327.039 46.2732C327.367 46.7383 327.53 47.3585 327.53 48.1337C327.53 48.9606 327.289 49.6755 326.807 50.2785C326.325 50.8814 325.644 51.3551 324.765 51.6997C323.887 52.027 322.836 52.1907 321.613 52.1907ZM343.204 52.2423C341.825 52.2423 340.507 52.0356 339.25 51.6222C337.992 51.1915 337.002 50.6402 336.278 49.9684L337.234 47.9528C337.923 48.5558 338.802 49.0553 339.87 49.4516C340.938 49.8478 342.049 50.0459 343.204 50.0459C344.254 50.0459 345.107 49.9253 345.762 49.6841C346.416 49.4429 346.899 49.1156 347.209 48.7022C347.519 48.2715 347.674 47.7891 347.674 47.2551C347.674 46.6349 347.467 46.1354 347.054 45.7564C346.658 45.3774 346.132 45.0759 345.477 44.8519C344.84 44.6108 344.134 44.404 343.359 44.2318C342.583 44.0595 341.8 43.8614 341.007 43.6374C340.232 43.3963 339.517 43.0948 338.862 42.733C338.225 42.3712 337.708 41.8889 337.312 41.2859C336.916 40.6658 336.718 39.8733 336.718 38.9086C336.718 37.9784 336.959 37.1256 337.441 36.3504C337.941 35.558 338.699 34.9292 339.715 34.464C340.749 33.9817 342.058 33.7405 343.643 33.7405C344.694 33.7405 345.736 33.8783 346.77 34.1539C347.803 34.4296 348.699 34.8258 349.457 35.3426L348.604 37.4099C347.829 36.893 347.011 36.5227 346.149 36.2987C345.288 36.0575 344.452 35.9369 343.643 35.9369C342.626 35.9369 341.791 36.0662 341.136 36.3246C340.482 36.583 339.999 36.9275 339.689 37.3582C339.396 37.7889 339.25 38.2712 339.25 38.8052C339.25 39.4426 339.448 39.9508 339.844 40.3298C340.258 40.7088 340.783 41.0103 341.421 41.2343C342.075 41.4582 342.79 41.6649 343.565 41.8544C344.34 42.0267 345.116 42.2248 345.891 42.4488C346.683 42.6727 347.398 42.9656 348.036 43.3273C348.69 43.6891 349.216 44.1715 349.612 44.7744C350.008 45.3774 350.206 46.1526 350.206 47.1001C350.206 48.0131 349.957 48.8658 349.457 49.6583C348.957 50.4335 348.182 51.0623 347.131 51.5446C346.098 52.0098 344.788 52.2423 343.204 52.2423ZM353.981 52.0356V33.9472H361.036C362.621 33.9472 363.973 34.197 365.093 34.6966C366.213 35.1962 367.074 35.9197 367.677 36.8672C368.28 37.8147 368.581 38.9431 368.581 40.2523C368.581 41.5616 368.28 42.6899 367.677 43.6374C367.074 44.5677 366.213 45.2826 365.093 45.7822C363.973 46.2818 362.621 46.5316 361.036 46.5316H355.403L356.566 45.3429V52.0356H353.981ZM366.075 52.0356L361.475 45.4721H364.24L368.891 52.0356H366.075ZM356.566 45.6013L355.403 44.3351H360.958C362.612 44.3351 363.861 43.982 364.705 43.2757C365.567 42.5521 365.997 41.5443 365.997 40.2523C365.997 38.9603 365.567 37.9611 364.705 37.2548C363.861 36.5485 362.612 36.1954 360.958 36.1954H355.403L356.566 34.9033V45.6013ZM372.756 52.0356V33.9472H374.875L382.989 47.6169H381.852L389.863 33.9472H391.982L392.007 52.0356H389.527L389.501 37.8491H390.095L382.963 49.8392H381.775L374.591 37.8491H375.237V52.0356H372.756Z" fill="white"/>
<defs>
<linearGradient id="paint0_linear_621_198" x1="44.7537" y1="-3.05176e-05" x2="44.7537" y2="87.2118" gradientUnits="userSpaceOnUse">
<stop stop-color="#F6632D"/>
</linearGradient>
</defs>
</svg>
